%TF.GenerationSoftware,KiCad,Pcbnew,(5.1.9)-1*%
%TF.CreationDate,2021-04-11T03:40:38-04:00*%
%TF.ProjectId,Progenitor-Tenkey,50726f67-656e-4697-946f-722d54656e6b,rev?*%
%TF.SameCoordinates,Original*%
%TF.FileFunction,Copper,L1,Top*%
%TF.FilePolarity,Positive*%
%FSLAX46Y46*%
G04 Gerber Fmt 4.6, Leading zero omitted, Abs format (unit mm)*
G04 Created by KiCad (PCBNEW (5.1.9)-1) date 2021-04-11 03:40:38*
%MOMM*%
%LPD*%
G01*
G04 APERTURE LIST*
%TA.AperFunction,ComponentPad*%
%ADD10O,1.700000X2.700000*%
%TD*%
%TA.AperFunction,ComponentPad*%
%ADD11C,2.250000*%
%TD*%
%TA.AperFunction,ViaPad*%
%ADD12C,0.800000*%
%TD*%
%TA.AperFunction,Conductor*%
%ADD13C,0.381000*%
%TD*%
%TA.AperFunction,Conductor*%
%ADD14C,0.254000*%
%TD*%
G04 APERTURE END LIST*
D10*
%TO.P,USB1,6*%
%TO.N,GND*%
X356395000Y-232791000D03*
X363695000Y-232791000D03*
X363695000Y-237291000D03*
X356395000Y-237291000D03*
%TD*%
D11*
%TO.P,MX-RAL1,2*%
%TO.N,Net-(D58-Pad2)*%
X289877500Y-330676250D03*
%TO.P,MX-RAL1,1*%
%TO.N,COL11*%
X283527500Y-333216250D03*
%TD*%
%TO.P,MX-RCT1,2*%
%TO.N,Net-(D76-Pad2)*%
X344646250Y-330676250D03*
%TO.P,MX-RCT1,1*%
%TO.N,COL13*%
X338296250Y-333216250D03*
%TD*%
%TO.P,MX-F13,2*%
%TO.N,Net-(D30-Pad2)*%
X177958750Y-292576250D03*
%TO.P,MX-F13,1*%
%TO.N,COL05*%
X171608750Y-295116250D03*
%TD*%
%TO.P,MX-Z1,2*%
%TO.N,Net-(D20-Pad2)*%
X120808750Y-311626250D03*
%TO.P,MX-Z1,1*%
%TO.N,COL02*%
X114458750Y-314166250D03*
%TD*%
%TO.P,MX-Y1,2*%
%TO.N,Net-(D34-Pad2)*%
X216058750Y-273526250D03*
%TO.P,MX-Y1,1*%
%TO.N,COL06*%
X209708750Y-276066250D03*
%TD*%
%TO.P,MX-X1,2*%
%TO.N,Net-(D26-Pad2)*%
X139858750Y-311626250D03*
%TO.P,MX-X1,1*%
%TO.N,COL03*%
X133508750Y-314166250D03*
%TD*%
%TO.P,MX-WIN1,2*%
%TO.N,Net-(D15-Pad2)*%
X130333750Y-330676250D03*
%TO.P,MX-WIN1,1*%
%TO.N,COL02*%
X123983750Y-333216250D03*
%TD*%
%TO.P,MX-W1,2*%
%TO.N,Net-(D13-Pad2)*%
X139858750Y-273526250D03*
%TO.P,MX-W1,1*%
%TO.N,COL02*%
X133508750Y-276066250D03*
%TD*%
%TO.P,MX-V1,2*%
%TO.N,Net-(D36-Pad2)*%
X177958750Y-311626250D03*
%TO.P,MX-V1,1*%
%TO.N,COL05*%
X171608750Y-314166250D03*
%TD*%
%TO.P,MX-UAR1,2*%
%TO.N,Net-(D90-Pad2)*%
X413702500Y-311626250D03*
%TO.P,MX-UAR1,1*%
%TO.N,COL16*%
X407352500Y-314166250D03*
%TD*%
%TO.P,MX-U1,2*%
%TO.N,Net-(D39-Pad2)*%
X235108750Y-273526250D03*
%TO.P,MX-U1,1*%
%TO.N,COL07*%
X228758750Y-276066250D03*
%TD*%
%TO.P,MX-TIL1,2*%
%TO.N,Net-(D2-Pad2)*%
X92233750Y-254476250D03*
%TO.P,MX-TIL1,1*%
%TO.N,COL00*%
X85883750Y-257016250D03*
%TD*%
%TO.P,MX-TAB1,2*%
%TO.N,Net-(D3-Pad2)*%
X96996250Y-273526250D03*
%TO.P,MX-TAB1,1*%
%TO.N,COL00*%
X90646250Y-276066250D03*
%TD*%
%TO.P,MX-T1,2*%
%TO.N,Net-(D29-Pad2)*%
X197008750Y-273526250D03*
%TO.P,MX-T1,1*%
%TO.N,COL05*%
X190658750Y-276066250D03*
%TD*%
%TO.P,MX-SPA1,2*%
%TO.N,Net-(D42-Pad2)*%
X218440000Y-330676250D03*
%TO.P,MX-SPA1,1*%
%TO.N,COL07*%
X212090000Y-333216250D03*
%TD*%
%TO.P,MX-S1,2*%
%TO.N,Net-(D19-Pad2)*%
X139858750Y-292576250D03*
%TO.P,MX-S1,1*%
%TO.N,COL03*%
X133508750Y-295116250D03*
%TD*%
%TO.P,MX-RSH1,2*%
%TO.N,Net-(D75-Pad2)*%
X339883750Y-311626250D03*
%TO.P,MX-RSH1,1*%
%TO.N,COL13*%
X333533750Y-314166250D03*
%TD*%
%TO.P,MX-RBR1,2*%
%TO.N,Net-(D67-Pad2)*%
X330358750Y-273526250D03*
%TO.P,MX-RBR1,1*%
%TO.N,COL12*%
X324008750Y-276066250D03*
%TD*%
%TO.P,MX-RAR1,2*%
%TO.N,Net-(D96-Pad2)*%
X432752500Y-330676250D03*
%TO.P,MX-RAR1,1*%
%TO.N,COL17*%
X426402500Y-333216250D03*
%TD*%
%TO.P,MX-R1,2*%
%TO.N,Net-(D24-Pad2)*%
X177958750Y-273526250D03*
%TO.P,MX-R1,1*%
%TO.N,COL04*%
X171608750Y-276066250D03*
%TD*%
%TO.P,MX-QUO1,2*%
%TO.N,Net-(D68-Pad2)*%
X311308750Y-292576250D03*
%TO.P,MX-QUO1,1*%
%TO.N,COL12*%
X304958750Y-295116250D03*
%TD*%
%TO.P,MX-QUE1,2*%
%TO.N,Net-(D69-Pad2)*%
X292258750Y-311626250D03*
%TO.P,MX-QUE1,1*%
%TO.N,COL11*%
X285908750Y-314166250D03*
%TD*%
%TO.P,MX-Q1,2*%
%TO.N,Net-(D9-Pad2)*%
X120808750Y-273526250D03*
%TO.P,MX-Q1,1*%
%TO.N,COL01*%
X114458750Y-276066250D03*
%TD*%
%TO.P,MX-PRT1,2*%
%TO.N,Net-(D64-Pad2)*%
X316071250Y-330676250D03*
%TO.P,MX-PRT1,1*%
%TO.N,COL12*%
X309721250Y-333216250D03*
%TD*%
%TO.P,MX-PLU1,2*%
%TO.N,Net-(D66-Pad2)*%
X320833750Y-254476250D03*
%TO.P,MX-PLU1,1*%
%TO.N,COL12*%
X314483750Y-257016250D03*
%TD*%
%TO.P,MX-P1,2*%
%TO.N,Net-(D55-Pad2)*%
X292258750Y-273526250D03*
%TO.P,MX-P1,1*%
%TO.N,COL10*%
X285908750Y-276066250D03*
%TD*%
%TO.P,MX-O1,2*%
%TO.N,Net-(D50-Pad2)*%
X273208750Y-273526250D03*
%TO.P,MX-O1,1*%
%TO.N,COL09*%
X266858750Y-276066250D03*
%TD*%
%TO.P,MX-NUM1,2*%
%TO.N,Net-(D80-Pad2)*%
X375602500Y-292576250D03*
%TO.P,MX-NUM1,1*%
%TO.N,COL14*%
X369252500Y-295116250D03*
%TD*%
%TO.P,MX-NSL1,2*%
%TO.N,Net-(D92-Pad2)*%
X432752500Y-235426250D03*
%TO.P,MX-NSL1,1*%
%TO.N,COL17*%
X426402500Y-237966250D03*
%TD*%
%TO.P,MX-NPL1,2*%
%TO.N,Net-(D95-Pad2)*%
X432752500Y-292576250D03*
%TO.P,MX-NPL1,1*%
%TO.N,COL17*%
X426402500Y-295116250D03*
%TD*%
%TO.P,MX-NDE1,2*%
%TO.N,Net-(D89-Pad2)*%
X413702500Y-292576250D03*
%TO.P,MX-NDE1,1*%
%TO.N,COL16*%
X407352500Y-295116250D03*
%TD*%
%TO.P,MX-NDA1,2*%
%TO.N,Net-(D94-Pad2)*%
X432752500Y-273526250D03*
%TO.P,MX-NDA1,1*%
%TO.N,COL17*%
X426402500Y-276066250D03*
%TD*%
%TO.P,MX-NAS1,2*%
%TO.N,Net-(D93-Pad2)*%
X432752500Y-254476250D03*
%TO.P,MX-NAS1,1*%
%TO.N,COL17*%
X426402500Y-257016250D03*
%TD*%
%TO.P,MX-N10,2*%
%TO.N,Net-(D47-Pad2)*%
X216058750Y-311626250D03*
%TO.P,MX-N10,1*%
%TO.N,COL07*%
X209708750Y-314166250D03*
%TD*%
%TO.P,MX-N9,2*%
%TO.N,Net-(D86-Pad2)*%
X413702500Y-235426250D03*
%TO.P,MX-N9,1*%
%TO.N,COL16*%
X407352500Y-237966250D03*
%TD*%
%TO.P,MX-N8,2*%
%TO.N,Net-(D81-Pad2)*%
X394652500Y-235426250D03*
%TO.P,MX-N8,1*%
%TO.N,COL15*%
X388302500Y-237966250D03*
%TD*%
%TO.P,MX-N7,2*%
%TO.N,Net-(D77-Pad2)*%
X375602500Y-235426250D03*
%TO.P,MX-N7,1*%
%TO.N,COL14*%
X369252500Y-237966250D03*
%TD*%
%TO.P,MX-N6,2*%
%TO.N,Net-(D87-Pad2)*%
X413702500Y-254476250D03*
%TO.P,MX-N6,1*%
%TO.N,COL16*%
X407352500Y-257016250D03*
%TD*%
%TO.P,MX-N5,2*%
%TO.N,Net-(D82-Pad2)*%
X394652500Y-254476250D03*
%TO.P,MX-N5,1*%
%TO.N,COL15*%
X388302500Y-257016250D03*
%TD*%
%TO.P,MX-N4,2*%
%TO.N,Net-(D78-Pad2)*%
X375602500Y-254476250D03*
%TO.P,MX-N4,1*%
%TO.N,COL14*%
X369252500Y-257016250D03*
%TD*%
%TO.P,MX-N3,2*%
%TO.N,Net-(D88-Pad2)*%
X413702500Y-273526250D03*
%TO.P,MX-N3,1*%
%TO.N,COL16*%
X407352500Y-276066250D03*
%TD*%
%TO.P,MX-N2,2*%
%TO.N,Net-(D83-Pad2)*%
X394652500Y-273526250D03*
%TO.P,MX-N2,1*%
%TO.N,COL15*%
X388302500Y-276066250D03*
%TD*%
%TO.P,MX-N1,2*%
%TO.N,Net-(D79-Pad2)*%
X375602500Y-273526250D03*
%TO.P,MX-N1,1*%
%TO.N,COL14*%
X369252500Y-276066250D03*
%TD*%
%TO.P,MX-N0,2*%
%TO.N,Net-(D84-Pad2)*%
X394652500Y-292576250D03*
%TO.P,MX-N0,1*%
%TO.N,COL15*%
X388302500Y-295116250D03*
%TD*%
%TO.P,MX-M1,2*%
%TO.N,Net-(D52-Pad2)*%
X235108750Y-311626250D03*
%TO.P,MX-M1,1*%
%TO.N,COL08*%
X228758750Y-314166250D03*
%TD*%
%TO.P,MX-LSH1,2*%
%TO.N,Net-(D5-Pad2)*%
X96996250Y-311626250D03*
%TO.P,MX-LSH1,1*%
%TO.N,COL00*%
X90646250Y-314166250D03*
%TD*%
%TO.P,MX-LFN1,2*%
%TO.N,Net-(D10-Pad2)*%
X111283750Y-330676250D03*
%TO.P,MX-LFN1,1*%
%TO.N,COL01*%
X104933750Y-333216250D03*
%TD*%
%TO.P,MX-LES1,2*%
%TO.N,Net-(D57-Pad2)*%
X254158750Y-311626250D03*
%TO.P,MX-LES1,1*%
%TO.N,COL09*%
X247808750Y-314166250D03*
%TD*%
%TO.P,MX-LCT1,2*%
%TO.N,Net-(D6-Pad2)*%
X92233750Y-330676250D03*
%TO.P,MX-LCT1,1*%
%TO.N,COL00*%
X85883750Y-333216250D03*
%TD*%
%TO.P,MX-LBR1,2*%
%TO.N,Net-(D61-Pad2)*%
X311308750Y-273526250D03*
%TO.P,MX-LBR1,1*%
%TO.N,COL11*%
X304958750Y-276066250D03*
%TD*%
%TO.P,MX-LAR1,2*%
%TO.N,Net-(D85-Pad2)*%
X394652500Y-330676250D03*
%TO.P,MX-LAR1,1*%
%TO.N,COL15*%
X388302500Y-333216250D03*
%TD*%
%TO.P,MX-LAL1,2*%
%TO.N,Net-(D21-Pad2)*%
X149383750Y-330676250D03*
%TO.P,MX-LAL1,1*%
%TO.N,COL03*%
X143033750Y-333216250D03*
%TD*%
%TO.P,MX-L1,2*%
%TO.N,Net-(D56-Pad2)*%
X273208750Y-292576250D03*
%TO.P,MX-L1,1*%
%TO.N,COL10*%
X266858750Y-295116250D03*
%TD*%
%TO.P,MX-K1,2*%
%TO.N,Net-(D51-Pad2)*%
X254158750Y-292576250D03*
%TO.P,MX-K1,1*%
%TO.N,COL09*%
X247808750Y-295116250D03*
%TD*%
%TO.P,MX-J1,2*%
%TO.N,Net-(D46-Pad2)*%
X235108750Y-292576250D03*
%TO.P,MX-J1,1*%
%TO.N,COL08*%
X228758750Y-295116250D03*
%TD*%
%TO.P,MX-I1,2*%
%TO.N,Net-(D45-Pad2)*%
X254158750Y-273526250D03*
%TO.P,MX-I1,1*%
%TO.N,COL08*%
X247808750Y-276066250D03*
%TD*%
%TO.P,MX-H1,2*%
%TO.N,Net-(D40-Pad2)*%
X216058750Y-292576250D03*
%TO.P,MX-H1,1*%
%TO.N,COL07*%
X209708750Y-295116250D03*
%TD*%
%TO.P,MX-GRE1,2*%
%TO.N,Net-(D63-Pad2)*%
X273208750Y-311626250D03*
%TO.P,MX-GRE1,1*%
%TO.N,COL10*%
X266858750Y-314166250D03*
%TD*%
%TO.P,MX-G1,2*%
%TO.N,Net-(D35-Pad2)*%
X197008750Y-292576250D03*
%TO.P,MX-G1,1*%
%TO.N,COL06*%
X190658750Y-295116250D03*
%TD*%
%TO.P,MX-FSL1,2*%
%TO.N,Net-(D73-Pad2)*%
X349408750Y-273526250D03*
%TO.P,MX-FSL1,1*%
%TO.N,COL13*%
X343058750Y-276066250D03*
%TD*%
%TO.P,MX-F12,2*%
%TO.N,Net-(D65-Pad2)*%
X320833750Y-235426250D03*
%TO.P,MX-F12,1*%
%TO.N,COL12*%
X314483750Y-237966250D03*
%TD*%
%TO.P,MX-F11,2*%
%TO.N,Net-(D59-Pad2)*%
X301783750Y-235426250D03*
%TO.P,MX-F11,1*%
%TO.N,COL11*%
X295433750Y-237966250D03*
%TD*%
%TO.P,MX-F10,2*%
%TO.N,Net-(D53-Pad2)*%
X282733750Y-235426250D03*
%TO.P,MX-F10,1*%
%TO.N,COL10*%
X276383750Y-237966250D03*
%TD*%
%TO.P,MX-F9,2*%
%TO.N,Net-(D48-Pad2)*%
X263683750Y-235426250D03*
%TO.P,MX-F9,1*%
%TO.N,COL09*%
X257333750Y-237966250D03*
%TD*%
%TO.P,MX-F8,2*%
%TO.N,Net-(D43-Pad2)*%
X244633750Y-235426250D03*
%TO.P,MX-F8,1*%
%TO.N,COL08*%
X238283750Y-237966250D03*
%TD*%
%TO.P,MX-F7,2*%
%TO.N,Net-(D37-Pad2)*%
X225583750Y-235426250D03*
%TO.P,MX-F7,1*%
%TO.N,COL07*%
X219233750Y-237966250D03*
%TD*%
%TO.P,MX-F6,2*%
%TO.N,Net-(D32-Pad2)*%
X206533750Y-235426250D03*
%TO.P,MX-F6,1*%
%TO.N,COL06*%
X200183750Y-237966250D03*
%TD*%
%TO.P,MX-F5,2*%
%TO.N,Net-(D27-Pad2)*%
X187483750Y-235426250D03*
%TO.P,MX-F5,1*%
%TO.N,COL05*%
X181133750Y-237966250D03*
%TD*%
%TO.P,MX-F4,2*%
%TO.N,Net-(D22-Pad2)*%
X168433750Y-235426250D03*
%TO.P,MX-F4,1*%
%TO.N,COL04*%
X162083750Y-237966250D03*
%TD*%
%TO.P,MX-F3,2*%
%TO.N,Net-(D16-Pad2)*%
X149383750Y-235426250D03*
%TO.P,MX-F3,1*%
%TO.N,COL03*%
X143033750Y-237966250D03*
%TD*%
%TO.P,MX-F2,2*%
%TO.N,Net-(D11-Pad2)*%
X130333750Y-235426250D03*
%TO.P,MX-F2,1*%
%TO.N,COL02*%
X123983750Y-237966250D03*
%TD*%
%TO.P,MX-F1,2*%
%TO.N,Net-(D7-Pad2)*%
X111283750Y-235426250D03*
%TO.P,MX-F1,1*%
%TO.N,COL01*%
X104933750Y-237966250D03*
%TD*%
%TO.P,MX-ESC1,2*%
%TO.N,Net-(D1-Pad2)*%
X92233750Y-235426250D03*
%TO.P,MX-ESC1,1*%
%TO.N,COL00*%
X85883750Y-237966250D03*
%TD*%
%TO.P,MX-ENT1,2*%
%TO.N,Net-(D74-Pad2)*%
X339883750Y-292576250D03*
%TO.P,MX-ENT1,1*%
%TO.N,COL13*%
X333533750Y-295116250D03*
%TD*%
%TO.P,MX-E1,2*%
%TO.N,Net-(D18-Pad2)*%
X158908750Y-273526250D03*
%TO.P,MX-E1,1*%
%TO.N,COL03*%
X152558750Y-276066250D03*
%TD*%
%TO.P,MX-DEL1,2*%
%TO.N,Net-(D71-Pad2)*%
X344646250Y-235426250D03*
%TO.P,MX-DEL1,1*%
%TO.N,COL13*%
X338296250Y-237966250D03*
%TD*%
%TO.P,MX-DAS1,2*%
%TO.N,Net-(D60-Pad2)*%
X301783750Y-254476250D03*
%TO.P,MX-DAS1,1*%
%TO.N,COL11*%
X295433750Y-257016250D03*
%TD*%
%TO.P,MX-DAR1,2*%
%TO.N,Net-(D91-Pad2)*%
X413702500Y-330676250D03*
%TO.P,MX-DAR1,1*%
%TO.N,COL16*%
X407352500Y-333216250D03*
%TD*%
%TO.P,MX-D1,2*%
%TO.N,Net-(D25-Pad2)*%
X158908750Y-292576250D03*
%TO.P,MX-D1,1*%
%TO.N,COL04*%
X152558750Y-295116250D03*
%TD*%
%TO.P,MX-CUR1,2*%
%TO.N,Net-(D70-Pad2)*%
X311308750Y-311626250D03*
%TO.P,MX-CUR1,1*%
%TO.N,COL12*%
X304958750Y-314166250D03*
%TD*%
%TO.P,MX-COL1,2*%
%TO.N,Net-(D62-Pad2)*%
X292258750Y-292576250D03*
%TO.P,MX-COL1,1*%
%TO.N,COL11*%
X285908750Y-295116250D03*
%TD*%
%TO.P,MX-CAP1,2*%
%TO.N,Net-(D4-Pad2)*%
X96996250Y-292576250D03*
%TO.P,MX-CAP1,1*%
%TO.N,COL00*%
X90646250Y-295116250D03*
%TD*%
%TO.P,MX-C1,2*%
%TO.N,Net-(D31-Pad2)*%
X158908750Y-311626250D03*
%TO.P,MX-C1,1*%
%TO.N,COL04*%
X152558750Y-314166250D03*
%TD*%
%TO.P,MX-BAC1,2*%
%TO.N,Net-(D72-Pad2)*%
X344646250Y-254476250D03*
%TO.P,MX-BAC1,1*%
%TO.N,COL13*%
X338296250Y-257016250D03*
%TD*%
%TO.P,MX-B1,2*%
%TO.N,Net-(D41-Pad2)*%
X197008750Y-311626250D03*
%TO.P,MX-B1,1*%
%TO.N,COL06*%
X190658750Y-314166250D03*
%TD*%
%TO.P,MX-A1,2*%
%TO.N,Net-(D14-Pad2)*%
X120808750Y-292576250D03*
%TO.P,MX-A1,1*%
%TO.N,COL02*%
X114458750Y-295116250D03*
%TD*%
%TO.P,MX-9,2*%
%TO.N,Net-(D49-Pad2)*%
X263683750Y-254476250D03*
%TO.P,MX-9,1*%
%TO.N,COL09*%
X257333750Y-257016250D03*
%TD*%
%TO.P,MX-8,2*%
%TO.N,Net-(D44-Pad2)*%
X244633750Y-254476250D03*
%TO.P,MX-8,1*%
%TO.N,COL08*%
X238283750Y-257016250D03*
%TD*%
%TO.P,MX-7,2*%
%TO.N,Net-(D38-Pad2)*%
X225583750Y-254476250D03*
%TO.P,MX-7,1*%
%TO.N,COL07*%
X219233750Y-257016250D03*
%TD*%
%TO.P,MX-6,2*%
%TO.N,Net-(D33-Pad2)*%
X206533750Y-254476250D03*
%TO.P,MX-6,1*%
%TO.N,COL06*%
X200183750Y-257016250D03*
%TD*%
%TO.P,MX-5,2*%
%TO.N,Net-(D28-Pad2)*%
X187483750Y-254476250D03*
%TO.P,MX-5,1*%
%TO.N,COL05*%
X181133750Y-257016250D03*
%TD*%
%TO.P,MX-4,2*%
%TO.N,Net-(D23-Pad2)*%
X168433750Y-254476250D03*
%TO.P,MX-4,1*%
%TO.N,COL04*%
X162083750Y-257016250D03*
%TD*%
%TO.P,MX-3,2*%
%TO.N,Net-(D17-Pad2)*%
X149383750Y-254476250D03*
%TO.P,MX-3,1*%
%TO.N,COL03*%
X143033750Y-257016250D03*
%TD*%
%TO.P,MX-2,2*%
%TO.N,Net-(D12-Pad2)*%
X130333750Y-254476250D03*
%TO.P,MX-2,1*%
%TO.N,COL02*%
X123983750Y-257016250D03*
%TD*%
%TO.P,MX-1,2*%
%TO.N,Net-(D8-Pad2)*%
X111283750Y-254476250D03*
%TO.P,MX-1,1*%
%TO.N,COL01*%
X104933750Y-257016250D03*
%TD*%
%TO.P,MX-0,2*%
%TO.N,Net-(D54-Pad2)*%
X282733750Y-254476250D03*
%TO.P,MX-0,1*%
%TO.N,COL10*%
X276383750Y-257016250D03*
%TD*%
D12*
%TO.N,+5V*%
X364842500Y-321056000D03*
X366903000Y-318897000D03*
X366776000Y-320929000D03*
X373761000Y-322326000D03*
%TO.N,ROW00*%
X354330000Y-249936000D03*
X364871000Y-249936000D03*
%TO.N,ROW01*%
X354457000Y-268986000D03*
X365379000Y-268986000D03*
%TO.N,ROW02*%
X354330000Y-288036000D03*
X365379000Y-287909000D03*
%TO.N,ROW03*%
X354584000Y-304800000D03*
X365760000Y-307213000D03*
%TO.N,ROW04*%
X362204000Y-327152000D03*
X356362000Y-325374000D03*
X378841000Y-327152000D03*
%TO.N,ROW05*%
X354203000Y-342900000D03*
X383159000Y-342900000D03*
%TO.N,COL10*%
X354330000Y-339725000D03*
%TO.N,COL01*%
X376555000Y-317500000D03*
%TO.N,COL02*%
X197993000Y-332232000D03*
X356362000Y-332359000D03*
X377698000Y-318770000D03*
%TO.N,COL03*%
X197993000Y-331089000D03*
X356362000Y-331343000D03*
X377698000Y-319786000D03*
%TO.N,COL04*%
X356362000Y-330200000D03*
X378841000Y-330200000D03*
X197993000Y-330073000D03*
%TO.N,COL05*%
X197993000Y-329057000D03*
X378841000Y-331216000D03*
X356362000Y-329057000D03*
%TO.N,COL06*%
X197993000Y-328041000D03*
X378841000Y-332232000D03*
X356362000Y-327914000D03*
%TO.N,COL07*%
X212090000Y-327025000D03*
X378841000Y-333248000D03*
X356362000Y-326644000D03*
%TO.N,COL08*%
X359664000Y-318516000D03*
%TO.N,COL09*%
X354330000Y-340995000D03*
%TO.N,COL13*%
X354330000Y-335915000D03*
%TO.N,COL00*%
X376555000Y-316357000D03*
%TO.N,COL11*%
X354330000Y-338455000D03*
%TO.N,COL12*%
X354330000Y-337185000D03*
%TO.N,COL16*%
X383159000Y-335534000D03*
%TO.N,COL14*%
X365760000Y-308229000D03*
%TO.N,COL17*%
X383159000Y-336804000D03*
%TD*%
D13*
%TO.N,+5V*%
X364842500Y-321056000D02*
X366522000Y-321056000D01*
X366903000Y-320675000D02*
X366903000Y-318897000D01*
X366712500Y-320865500D02*
X366776000Y-320929000D01*
X366522000Y-321056000D02*
X366712500Y-320865500D01*
X366712500Y-320865500D02*
X366903000Y-320675000D01*
X372364000Y-320929000D02*
X373761000Y-322326000D01*
X366776000Y-320929000D02*
X372364000Y-320929000D01*
D14*
%TO.N,ROW00*%
X354330000Y-249936000D02*
X364871000Y-249936000D01*
%TO.N,ROW01*%
X354457000Y-268986000D02*
X365379000Y-268986000D01*
%TO.N,ROW02*%
X365252000Y-288036000D02*
X365379000Y-287909000D01*
X354330000Y-288036000D02*
X365252000Y-288036000D01*
%TO.N,ROW03*%
X363347000Y-304800000D02*
X365760000Y-307213000D01*
X354584000Y-304800000D02*
X363347000Y-304800000D01*
%TO.N,ROW04*%
X361315000Y-326263000D02*
X362204000Y-327152000D01*
X356362000Y-325374000D02*
X357251000Y-326263000D01*
X357251000Y-326263000D02*
X361315000Y-326263000D01*
X378333000Y-327152000D02*
X362204000Y-327152000D01*
X378333000Y-327152000D02*
X378841000Y-327152000D01*
%TO.N,ROW05*%
X378206000Y-342900000D02*
X383159000Y-342900000D01*
X354203000Y-342900000D02*
X378206000Y-342900000D01*
X378206000Y-342900000D02*
X378460000Y-342900000D01*
%TO.N,COL10*%
X266858750Y-314166250D02*
X266858750Y-300069250D01*
X266858750Y-300069250D02*
X267589000Y-299339000D01*
X267589000Y-295846500D02*
X266858750Y-295116250D01*
X267589000Y-299339000D02*
X267589000Y-295846500D01*
X266858750Y-295116250D02*
X281559000Y-280416000D01*
X284317760Y-276066250D02*
X285908750Y-276066250D01*
X281559000Y-278825010D02*
X284317760Y-276066250D01*
X276383750Y-257016250D02*
X276383750Y-257587750D01*
X276383750Y-257587750D02*
X277114000Y-258318000D01*
X277114000Y-258318000D02*
X277114000Y-267843000D01*
X281559000Y-272288000D02*
X281559000Y-279146000D01*
X277114000Y-267843000D02*
X281559000Y-272288000D01*
X281559000Y-279146000D02*
X281559000Y-278825010D01*
X281559000Y-280416000D02*
X281559000Y-279146000D01*
X276383750Y-257016250D02*
X276383750Y-243046250D01*
X276383750Y-243046250D02*
X277114000Y-242316000D01*
X277114000Y-238696500D02*
X276383750Y-237966250D01*
X277114000Y-242316000D02*
X277114000Y-238696500D01*
X266858750Y-314166250D02*
X266858750Y-314737750D01*
X266858750Y-314737750D02*
X267462000Y-315341000D01*
X267462000Y-315341000D02*
X267462000Y-324358000D01*
X353856970Y-340325030D02*
X354330000Y-339852000D01*
X283429030Y-340325030D02*
X353856970Y-340325030D01*
X267462000Y-324358000D02*
X283429030Y-340325030D01*
%TO.N,COL01*%
X104933750Y-262350250D02*
X105410000Y-261874000D01*
X105410000Y-257492500D02*
X104933750Y-257016250D01*
X105410000Y-261874000D02*
X105410000Y-257492500D01*
X104933750Y-257016250D02*
X104933750Y-242665250D01*
X104933750Y-242665250D02*
X105664000Y-241935000D01*
X105664000Y-238696500D02*
X104933750Y-237966250D01*
X105664000Y-241935000D02*
X105664000Y-238696500D01*
X107156250Y-276066250D02*
X104933750Y-278288750D01*
X114458750Y-276066250D02*
X107156250Y-276066250D01*
X104933750Y-278288750D02*
X104933750Y-262350250D01*
X104933750Y-333216250D02*
X104933750Y-278288750D01*
X352425000Y-289306000D02*
X352425000Y-305943000D01*
X363982000Y-317500000D02*
X376555000Y-317500000D01*
X352425000Y-305943000D02*
X363982000Y-317500000D01*
X349885000Y-286766000D02*
X350266000Y-287147000D01*
X352679000Y-274193000D02*
X349885000Y-276987000D01*
X352679000Y-237617000D02*
X352679000Y-274193000D01*
X348488000Y-233426000D02*
X352679000Y-237617000D01*
X201168000Y-233426000D02*
X348488000Y-233426000D01*
X350139000Y-287020000D02*
X350266000Y-287147000D01*
X350266000Y-287147000D02*
X352425000Y-289306000D01*
X182585751Y-237269289D02*
X182585751Y-241583185D01*
X104933750Y-237966250D02*
X109728000Y-233172000D01*
X109728000Y-233172000D02*
X161860538Y-233172000D01*
X161860538Y-233172000D02*
X170396789Y-241708251D01*
X170396789Y-241708251D02*
X175242787Y-241708251D01*
X349885000Y-276987000D02*
X349885000Y-286766000D01*
X181830711Y-236514249D02*
X182585751Y-237269289D01*
X180436789Y-236514249D02*
X181830711Y-236514249D01*
X183829717Y-242827151D02*
X191766849Y-242827151D01*
X182585751Y-241583185D02*
X183829717Y-242827151D01*
X175242787Y-241708251D02*
X180436789Y-236514249D01*
X191766849Y-242827151D02*
X201168000Y-233426000D01*
%TO.N,COL02*%
X123983750Y-333216250D02*
X123983750Y-330358750D01*
X123983750Y-330358750D02*
X115189000Y-321564000D01*
X115189000Y-314896500D02*
X114458750Y-314166250D01*
X115189000Y-321564000D02*
X115189000Y-314896500D01*
X114458750Y-314166250D02*
X114458750Y-300831250D01*
X114458750Y-300831250D02*
X115316000Y-299974000D01*
X115316000Y-295973500D02*
X114458750Y-295116250D01*
X115316000Y-299974000D02*
X115316000Y-295973500D01*
X129766749Y-279808251D02*
X129766749Y-277903251D01*
X114458750Y-295116250D02*
X129766749Y-279808251D01*
X131603750Y-276066250D02*
X133508750Y-276066250D01*
X129766749Y-277903251D02*
X131603750Y-276066250D01*
X129766749Y-272895749D02*
X129766749Y-277903251D01*
X123983750Y-267112750D02*
X129766749Y-272895749D01*
X123983750Y-257016250D02*
X123983750Y-267112750D01*
X123983750Y-257016250D02*
X123983750Y-242284250D01*
X123983750Y-242284250D02*
X124841000Y-241427000D01*
X124841000Y-238823500D02*
X123983750Y-237966250D01*
X124841000Y-241427000D02*
X124841000Y-238823500D01*
X123983750Y-333216250D02*
X123983750Y-333914750D01*
X123983750Y-333914750D02*
X124841000Y-334772000D01*
X124841000Y-336238434D02*
X128708566Y-340106000D01*
X124841000Y-334772000D02*
X124841000Y-336238434D01*
X154813000Y-340106000D02*
X163375990Y-331543010D01*
X128708566Y-340106000D02*
X154813000Y-340106000D01*
X197304010Y-331543010D02*
X197993000Y-332232000D01*
X163375990Y-331543010D02*
X197304010Y-331543010D01*
X356362000Y-332359000D02*
X358866670Y-332359000D01*
X381419040Y-334314190D02*
X381419040Y-322737973D01*
X374373180Y-341360049D02*
X381419040Y-334314190D01*
X367867719Y-341360050D02*
X374373180Y-341360049D01*
X358866670Y-332359000D02*
X367867719Y-341360050D01*
X377757962Y-318770000D02*
X377698000Y-318770000D01*
X381419040Y-322431078D02*
X377757962Y-318770000D01*
X381419040Y-322737973D02*
X381419040Y-322431078D01*
%TO.N,COL03*%
X143033750Y-333216250D02*
X143033750Y-327437750D01*
X143033750Y-327437750D02*
X134366000Y-318770000D01*
X134366000Y-315023500D02*
X133508750Y-314166250D01*
X134366000Y-318770000D02*
X134366000Y-315023500D01*
X133508750Y-314166250D02*
X133508750Y-299815250D01*
X133508750Y-299815250D02*
X134239000Y-299085000D01*
X134239000Y-295846500D02*
X133508750Y-295116250D01*
X134239000Y-299085000D02*
X134239000Y-295846500D01*
X133508750Y-295116250D02*
X148717000Y-279908000D01*
X150967760Y-276066250D02*
X152558750Y-276066250D01*
X148717000Y-278317010D02*
X150967760Y-276066250D01*
X148717000Y-279908000D02*
X148717000Y-278317010D01*
X143033750Y-257016250D02*
X143033750Y-257714750D01*
X143033750Y-257714750D02*
X143637000Y-258318000D01*
X143637000Y-258318000D02*
X143637000Y-267716000D01*
X148717000Y-272796000D02*
X148717000Y-278317010D01*
X143637000Y-267716000D02*
X148717000Y-272796000D01*
X143033750Y-257016250D02*
X143033750Y-242411250D01*
X143033750Y-242411250D02*
X143510000Y-241935000D01*
X143510000Y-238442500D02*
X143033750Y-237966250D01*
X143510000Y-241935000D02*
X143510000Y-238442500D01*
X162806934Y-331089000D02*
X197993000Y-331089000D01*
X159155684Y-327437750D02*
X162806934Y-331089000D01*
X143033750Y-327437750D02*
X159155684Y-327437750D01*
X356362000Y-331343000D02*
X358492736Y-331343000D01*
X368055776Y-340906040D02*
X368084040Y-340906040D01*
X358492736Y-331343000D02*
X368055776Y-340906040D01*
X368084040Y-340906040D02*
X374185121Y-340906040D01*
X380965030Y-334126133D02*
X380965030Y-323180030D01*
X374185123Y-340906040D02*
X380965030Y-334126133D01*
X374185121Y-340906040D02*
X374185123Y-340906040D01*
X380965030Y-323180030D02*
X380965030Y-322926030D01*
X377825000Y-319786000D02*
X377698000Y-319786000D01*
X380965030Y-322926030D02*
X377825000Y-319786000D01*
%TO.N,COL04*%
X152558750Y-314166250D02*
X152558750Y-299815250D01*
X152558750Y-299815250D02*
X153416000Y-298958000D01*
X153416000Y-295973500D02*
X152558750Y-295116250D01*
X153416000Y-298958000D02*
X153416000Y-295973500D01*
X167767000Y-278317010D02*
X170017760Y-276066250D01*
X167767000Y-279908000D02*
X167767000Y-278317010D01*
X170017760Y-276066250D02*
X171608750Y-276066250D01*
X152558750Y-295116250D02*
X167767000Y-279908000D01*
X162083750Y-257016250D02*
X162083750Y-257587750D01*
X162083750Y-257587750D02*
X162814000Y-258318000D01*
X162814000Y-258318000D02*
X162814000Y-268097000D01*
X167767000Y-273050000D02*
X167767000Y-278317010D01*
X162814000Y-268097000D02*
X167767000Y-273050000D01*
X162083750Y-257016250D02*
X162083750Y-242157250D01*
X162083750Y-242157250D02*
X162687000Y-241554000D01*
X162687000Y-238569500D02*
X162083750Y-237966250D01*
X162687000Y-241554000D02*
X162687000Y-238569500D01*
X368392030Y-340452030D02*
X373997066Y-340452030D01*
X356362000Y-330200000D02*
X357991802Y-330200000D01*
X357991802Y-330200000D02*
X368243832Y-340452030D01*
X368243832Y-340452030D02*
X368392030Y-340452030D01*
X373997066Y-340452030D02*
X374263019Y-340186076D01*
X374263019Y-340186076D02*
X380511020Y-333938076D01*
X380511020Y-333938076D02*
X380511020Y-331810058D01*
X380511020Y-331810058D02*
X378900962Y-330200000D01*
X378900962Y-330200000D02*
X378841000Y-330200000D01*
X197933038Y-330073000D02*
X197993000Y-330073000D01*
X197371048Y-330634990D02*
X197933038Y-330073000D01*
X162994990Y-330634990D02*
X197371048Y-330634990D01*
X153162000Y-320802000D02*
X162994990Y-330634990D01*
X153162000Y-315214000D02*
X153162000Y-320802000D01*
X152558750Y-314610750D02*
X153162000Y-315214000D01*
X152558750Y-314166250D02*
X152558750Y-314610750D01*
%TO.N,COL05*%
X171608750Y-314166250D02*
X171608750Y-299942250D01*
X171608750Y-299942250D02*
X172212000Y-299339000D01*
X172212000Y-295719500D02*
X171608750Y-295116250D01*
X172212000Y-299339000D02*
X172212000Y-295719500D01*
X171608750Y-295116250D02*
X186436000Y-280289000D01*
X186436000Y-278698010D02*
X189067760Y-276066250D01*
X189067760Y-276066250D02*
X190658750Y-276066250D01*
X186436000Y-275336000D02*
X186436000Y-278892000D01*
X181737000Y-270637000D02*
X186436000Y-275336000D01*
X181737000Y-258826000D02*
X181737000Y-270637000D01*
X181133750Y-258222750D02*
X181737000Y-258826000D01*
X181133750Y-257016250D02*
X181133750Y-258222750D01*
X186436000Y-278892000D02*
X186436000Y-278698010D01*
X186436000Y-280289000D02*
X186436000Y-278892000D01*
X181133750Y-257016250D02*
X181133750Y-242919250D01*
X181133750Y-242919250D02*
X181864000Y-242189000D01*
X181864000Y-238696500D02*
X181133750Y-237966250D01*
X181864000Y-242189000D02*
X181864000Y-238696500D01*
X380057010Y-333750019D02*
X380057010Y-332305010D01*
X373809009Y-339998020D02*
X380057010Y-333750019D01*
X378968000Y-331216000D02*
X378841000Y-331216000D01*
X380057010Y-332305010D02*
X378968000Y-331216000D01*
X356362000Y-329057000D02*
X357490868Y-329057000D01*
X368431888Y-339998020D02*
X368573020Y-339998020D01*
X357490868Y-329057000D02*
X368431888Y-339998020D01*
X368573020Y-339998020D02*
X373809009Y-339998020D01*
X197604934Y-329057000D02*
X197993000Y-329057000D01*
X181590980Y-330180980D02*
X196480954Y-330180980D01*
X196480954Y-330180980D02*
X196909967Y-329751967D01*
X172212000Y-320802000D02*
X181590980Y-330180980D01*
X172212000Y-315595000D02*
X172212000Y-320802000D01*
X171608750Y-314991750D02*
X172212000Y-315595000D01*
X171608750Y-314166250D02*
X171608750Y-314991750D01*
X196909967Y-329751967D02*
X197604934Y-329057000D01*
X196753945Y-329907989D02*
X196909967Y-329751967D01*
%TO.N,COL06*%
X190658750Y-314166250D02*
X190658750Y-299434250D01*
X190658750Y-299434250D02*
X191516000Y-298577000D01*
X191516000Y-295973500D02*
X190658750Y-295116250D01*
X191516000Y-298577000D02*
X191516000Y-295973500D01*
X196789651Y-288985349D02*
X197170651Y-288985349D01*
X190658750Y-295116250D02*
X196789651Y-288985349D01*
X197170651Y-288985349D02*
X205359000Y-280797000D01*
X208117760Y-276066250D02*
X209708750Y-276066250D01*
X205359000Y-278825010D02*
X208117760Y-276066250D01*
X200183750Y-257016250D02*
X200183750Y-257460750D01*
X200183750Y-257460750D02*
X200787000Y-258064000D01*
X200787000Y-258064000D02*
X200787000Y-268097000D01*
X205359000Y-272669000D02*
X205359000Y-279019000D01*
X200787000Y-268097000D02*
X205359000Y-272669000D01*
X205359000Y-279019000D02*
X205359000Y-278825010D01*
X205359000Y-280797000D02*
X205359000Y-279019000D01*
X200183750Y-237966250D02*
X200183750Y-238537750D01*
X200183750Y-238537750D02*
X200914000Y-239268000D01*
X200183750Y-257016250D02*
X200183750Y-243046250D01*
X200914000Y-242316000D02*
X200914000Y-239268000D01*
X200183750Y-243046250D02*
X200914000Y-242316000D01*
X190658750Y-314166250D02*
X190658750Y-314483750D01*
X190658750Y-314483750D02*
X191135000Y-314960000D01*
X191135000Y-321183000D02*
X197993000Y-328041000D01*
X191135000Y-314960000D02*
X191135000Y-321183000D01*
X373620952Y-339544010D02*
X379603000Y-333561962D01*
X378900962Y-332232000D02*
X378841000Y-332232000D01*
X379603000Y-332934038D02*
X378900962Y-332232000D01*
X379603000Y-333561962D02*
X379603000Y-332934038D01*
X356362000Y-327914000D02*
X356989934Y-327914000D01*
X368619944Y-339544010D02*
X368734990Y-339544010D01*
X356989934Y-327914000D02*
X368619944Y-339544010D01*
X368734990Y-339544010D02*
X373620952Y-339544010D01*
%TO.N,COL07*%
X212090000Y-320040000D02*
X210439000Y-318389000D01*
X210439000Y-314896500D02*
X209708750Y-314166250D01*
X210439000Y-318389000D02*
X210439000Y-314896500D01*
X209708750Y-314166250D02*
X209708750Y-299053250D01*
X209708750Y-299053250D02*
X210312000Y-298450000D01*
X210312000Y-295719500D02*
X209708750Y-295116250D01*
X210312000Y-298450000D02*
X210312000Y-295719500D01*
X209708750Y-295116250D02*
X224917000Y-279908000D01*
X227167760Y-276066250D02*
X228758750Y-276066250D01*
X224917000Y-278317010D02*
X227167760Y-276066250D01*
X219233750Y-257016250D02*
X219233750Y-257587750D01*
X219233750Y-257587750D02*
X219837000Y-258191000D01*
X219837000Y-258191000D02*
X219837000Y-268097000D01*
X224917000Y-273177000D02*
X224917000Y-278511000D01*
X219837000Y-268097000D02*
X224917000Y-273177000D01*
X224917000Y-278511000D02*
X224917000Y-278317010D01*
X224917000Y-279908000D02*
X224917000Y-278511000D01*
X219233750Y-257016250D02*
X219233750Y-243046250D01*
X219233750Y-243046250D02*
X219837000Y-242443000D01*
X219837000Y-238569500D02*
X219233750Y-237966250D01*
X219837000Y-242443000D02*
X219837000Y-238569500D01*
X212090000Y-333216250D02*
X212090000Y-327025000D01*
X212090000Y-327025000D02*
X212090000Y-320040000D01*
X378841000Y-333248000D02*
X378841000Y-333681896D01*
X378841000Y-333681896D02*
X373432896Y-339090000D01*
X373432896Y-339090000D02*
X372872000Y-339090000D01*
X368808000Y-339090000D02*
X368935000Y-339090000D01*
X368935000Y-339090000D02*
X372999000Y-339090000D01*
X356362000Y-326644000D02*
X368808000Y-339090000D01*
%TO.N,COL08*%
X228758750Y-314166250D02*
X228758750Y-300323250D01*
X228758750Y-300323250D02*
X229489000Y-299593000D01*
X229489000Y-295846500D02*
X228758750Y-295116250D01*
X229489000Y-299593000D02*
X229489000Y-295846500D01*
X228758750Y-295116250D02*
X243459000Y-280416000D01*
X246217760Y-276066250D02*
X247808750Y-276066250D01*
X243459000Y-278825010D02*
X246217760Y-276066250D01*
X238283750Y-257016250D02*
X238283750Y-257587750D01*
X238283750Y-257587750D02*
X238887000Y-258191000D01*
X238887000Y-258191000D02*
X238887000Y-267843000D01*
X243459000Y-272415000D02*
X243459000Y-279146000D01*
X238887000Y-267843000D02*
X243459000Y-272415000D01*
X243459000Y-279146000D02*
X243459000Y-278825010D01*
X243459000Y-280416000D02*
X243459000Y-279146000D01*
X238283750Y-257016250D02*
X238283750Y-242919250D01*
X238283750Y-242919250D02*
X239014000Y-242189000D01*
X239014000Y-238696500D02*
X238283750Y-237966250D01*
X239014000Y-242189000D02*
X239014000Y-238696500D01*
X228758750Y-314166250D02*
X228758750Y-314483750D01*
X228758750Y-314483750D02*
X229362000Y-315087000D01*
X229362000Y-315087000D02*
X229362000Y-320294000D01*
X229362000Y-320294000D02*
X229362000Y-320675000D01*
X236474000Y-327787000D02*
X256786934Y-327787000D01*
X229362000Y-320675000D02*
X236474000Y-327787000D01*
X256786934Y-327787000D02*
X262955943Y-333956010D01*
X262955943Y-333956010D02*
X275775878Y-333956010D01*
X275775878Y-333956010D02*
X283052917Y-341233049D01*
X283052917Y-341233049D02*
X283059983Y-341233050D01*
X353044050Y-341233050D02*
X353695000Y-341884000D01*
X283059983Y-341233050D02*
X353044050Y-341233050D01*
X353695000Y-341884000D02*
X354711000Y-341884000D01*
X354711000Y-341884000D02*
X355346000Y-341249000D01*
X355346000Y-341249000D02*
X355346000Y-329311000D01*
X355346000Y-329311000D02*
X353314000Y-327279000D01*
X353314000Y-327279000D02*
X353314000Y-324866000D01*
X353314000Y-324866000D02*
X359664000Y-318516000D01*
%TO.N,COL09*%
X247808750Y-314166250D02*
X247808750Y-299815250D01*
X247808750Y-299815250D02*
X248666000Y-298958000D01*
X248666000Y-295973500D02*
X247808750Y-295116250D01*
X248666000Y-298958000D02*
X248666000Y-295973500D01*
X247808750Y-295116250D02*
X262382000Y-280543000D01*
X265267760Y-276066250D02*
X266858750Y-276066250D01*
X262382000Y-278952010D02*
X265267760Y-276066250D01*
X257333750Y-257016250D02*
X257333750Y-257841750D01*
X257333750Y-257841750D02*
X257810000Y-258318000D01*
X257810000Y-258318000D02*
X257810000Y-267970000D01*
X257810000Y-267970000D02*
X262382000Y-272542000D01*
X262382000Y-279400000D02*
X262382000Y-278952010D01*
X262382000Y-272542000D02*
X262382000Y-279400000D01*
X262382000Y-280543000D02*
X262382000Y-279400000D01*
X257333750Y-257016250D02*
X257333750Y-242792250D01*
X257333750Y-242792250D02*
X257937000Y-242189000D01*
X257937000Y-238569500D02*
X257333750Y-237966250D01*
X257937000Y-242189000D02*
X257937000Y-238569500D01*
X353764315Y-340995000D02*
X353548355Y-340779040D01*
X354330000Y-340995000D02*
X353764315Y-340995000D01*
X283240974Y-340779040D02*
X283248040Y-340779040D01*
X275963934Y-333502000D02*
X283240974Y-340779040D01*
X248412000Y-318770000D02*
X263144000Y-333502000D01*
X247808750Y-314166250D02*
X247808750Y-314737750D01*
X247808750Y-314737750D02*
X248412000Y-315341000D01*
X263144000Y-333502000D02*
X275963934Y-333502000D01*
X248412000Y-315341000D02*
X248412000Y-318770000D01*
X353548355Y-340779040D02*
X283248040Y-340779040D01*
%TO.N,COL13*%
X338296250Y-333216250D02*
X338296250Y-322421250D01*
X338296250Y-322421250D02*
X334264000Y-318389000D01*
X334264000Y-314896500D02*
X333533750Y-314166250D01*
X334264000Y-318389000D02*
X334264000Y-314896500D01*
X333533750Y-314166250D02*
X333533750Y-300323250D01*
X333533750Y-300323250D02*
X334264000Y-299593000D01*
X334264000Y-295846500D02*
X333533750Y-295116250D01*
X334264000Y-299593000D02*
X334264000Y-295846500D01*
X333533750Y-295116250D02*
X333533750Y-290671250D01*
X333533750Y-290671250D02*
X343789000Y-280416000D01*
X343789000Y-276796500D02*
X343058750Y-276066250D01*
X343789000Y-280416000D02*
X343789000Y-276796500D01*
X343058750Y-276066250D02*
X343058750Y-267874750D01*
X343058750Y-267874750D02*
X339217000Y-264033000D01*
X339217000Y-257937000D02*
X338296250Y-257016250D01*
X339217000Y-264033000D02*
X339217000Y-257937000D01*
X338296250Y-257016250D02*
X338296250Y-243109750D01*
X338296250Y-243109750D02*
X339217000Y-242189000D01*
X339217000Y-238887000D02*
X338296250Y-237966250D01*
X339217000Y-242189000D02*
X339217000Y-238887000D01*
X338296250Y-333216250D02*
X338296250Y-333724250D01*
X338296250Y-333216250D02*
X338296250Y-333597250D01*
X338296250Y-333597250D02*
X338963000Y-334264000D01*
X338963000Y-334264000D02*
X338963000Y-338074000D01*
X338963000Y-338074000D02*
X339852000Y-338963000D01*
X351282000Y-338963000D02*
X354330000Y-335915000D01*
X339852000Y-338963000D02*
X351282000Y-338963000D01*
%TO.N,COL00*%
X85883750Y-280319788D02*
X86614000Y-279589538D01*
X86614000Y-257746500D02*
X85883750Y-257016250D01*
X86614000Y-279589538D02*
X86614000Y-257746500D01*
X85883750Y-257016250D02*
X85883750Y-242538250D01*
X85883750Y-242538250D02*
X86614000Y-241808000D01*
X86614000Y-238696500D02*
X85883750Y-237966250D01*
X86614000Y-241808000D02*
X86614000Y-238696500D01*
X86614000Y-279589538D02*
X86614000Y-278003000D01*
X88550750Y-276066250D02*
X90646250Y-276066250D01*
X86614000Y-278003000D02*
X88550750Y-276066250D01*
X88296750Y-295116250D02*
X85883750Y-297529250D01*
X90646250Y-295116250D02*
X88296750Y-295116250D01*
X85883750Y-297529250D02*
X85883750Y-280319788D01*
X88677750Y-314166250D02*
X85883750Y-316960250D01*
X90646250Y-314166250D02*
X88677750Y-314166250D01*
X85883750Y-316960250D02*
X85883750Y-297529250D01*
X85883750Y-333216250D02*
X85883750Y-316960250D01*
X352879010Y-289117943D02*
X352879010Y-305754944D01*
X352879010Y-305754944D02*
X364170056Y-317045990D01*
X375866010Y-317045990D02*
X376555000Y-316357000D01*
X364170056Y-317045990D02*
X375866010Y-317045990D01*
X350339010Y-277175056D02*
X350339010Y-286577944D01*
X350339010Y-286577944D02*
X350650533Y-286889467D01*
X353133010Y-274381057D02*
X350339010Y-277175056D01*
X350650533Y-286889467D02*
X350904533Y-287143467D01*
X109654990Y-232717990D02*
X348422056Y-232717990D01*
X348422056Y-232717990D02*
X353133010Y-237428943D01*
X109220000Y-232283000D02*
X109654990Y-232717990D01*
X91567000Y-232283000D02*
X109220000Y-232283000D01*
X85883750Y-237966250D02*
X91567000Y-232283000D01*
X353133010Y-237428943D02*
X353133010Y-274381057D01*
X350904533Y-287143467D02*
X352879010Y-289117943D01*
X350593010Y-286831944D02*
X350904533Y-287143467D01*
%TO.N,COL11*%
X283527500Y-333216250D02*
X283527500Y-321246500D01*
X283527500Y-321246500D02*
X286766000Y-318008000D01*
X286766000Y-315023500D02*
X285908750Y-314166250D01*
X286766000Y-318008000D02*
X286766000Y-315023500D01*
X285908750Y-314166250D02*
X285908750Y-300196250D01*
X285908750Y-300196250D02*
X286893000Y-299212000D01*
X286893000Y-296100500D02*
X285908750Y-295116250D01*
X286893000Y-299212000D02*
X286893000Y-296100500D01*
X285908750Y-295116250D02*
X300736000Y-280289000D01*
X303367760Y-276066250D02*
X304958750Y-276066250D01*
X300736000Y-278698010D02*
X303367760Y-276066250D01*
X295433750Y-237966250D02*
X295433750Y-238410750D01*
X295433750Y-257016250D02*
X295433750Y-257968750D01*
X295433750Y-257968750D02*
X295910000Y-258445000D01*
X295910000Y-258445000D02*
X295910000Y-267843000D01*
X300736000Y-272669000D02*
X300736000Y-278892000D01*
X295910000Y-267843000D02*
X300736000Y-272669000D01*
X300736000Y-278892000D02*
X300736000Y-278698010D01*
X300736000Y-280289000D02*
X300736000Y-278892000D01*
X295433750Y-257016250D02*
X295433750Y-243046250D01*
X295433750Y-243046250D02*
X296164000Y-242316000D01*
X296164000Y-238696500D02*
X295433750Y-237966250D01*
X296164000Y-242316000D02*
X296164000Y-238696500D01*
X352913980Y-339871020D02*
X354330000Y-338455000D01*
X284099000Y-337058000D02*
X286912020Y-339871020D01*
X284099000Y-334264000D02*
X284099000Y-337058000D01*
X286912020Y-339871020D02*
X352913980Y-339871020D01*
X283527500Y-333692500D02*
X284099000Y-334264000D01*
X283527500Y-333216250D02*
X283527500Y-333692500D01*
%TO.N,COL12*%
X309721250Y-333216250D02*
X309721250Y-323056250D01*
X309721250Y-323056250D02*
X305816000Y-319151000D01*
X305816000Y-315023500D02*
X304958750Y-314166250D01*
X305816000Y-319151000D02*
X305816000Y-315023500D01*
X304958750Y-314166250D02*
X304958750Y-300069250D01*
X304958750Y-300069250D02*
X305562000Y-299466000D01*
X305562000Y-295719500D02*
X304958750Y-295116250D01*
X305562000Y-299466000D02*
X305562000Y-295719500D01*
X304958750Y-295116250D02*
X319659000Y-280416000D01*
X322417760Y-276066250D02*
X324008750Y-276066250D01*
X319659000Y-278825010D02*
X322417760Y-276066250D01*
X314483750Y-257016250D02*
X314483750Y-257714750D01*
X314483750Y-257714750D02*
X315214000Y-258445000D01*
X315214000Y-258445000D02*
X315214000Y-266700000D01*
X319659000Y-271145000D02*
X319659000Y-279654000D01*
X315214000Y-266700000D02*
X319659000Y-271145000D01*
X319659000Y-279654000D02*
X319659000Y-278825010D01*
X319659000Y-280416000D02*
X319659000Y-279654000D01*
X314483750Y-257016250D02*
X314483750Y-243046250D01*
X314483750Y-243046250D02*
X315214000Y-242316000D01*
X315214000Y-238696500D02*
X314483750Y-237966250D01*
X315214000Y-242316000D02*
X315214000Y-238696500D01*
X309721250Y-333216250D02*
X309721250Y-333851250D01*
X309721250Y-333851250D02*
X310261000Y-334391000D01*
X310261000Y-334391000D02*
X310261000Y-337439000D01*
X352097990Y-339417010D02*
X354330000Y-337185000D01*
X312239010Y-339417010D02*
X352097990Y-339417010D01*
X310261000Y-337439000D02*
X312239010Y-339417010D01*
%TO.N,COL16*%
X407352500Y-333216250D02*
X407352500Y-318833500D01*
X407352500Y-318833500D02*
X408178000Y-318008000D01*
X408178000Y-314991750D02*
X407352500Y-314166250D01*
X408178000Y-318008000D02*
X408178000Y-314991750D01*
X407352500Y-314166250D02*
X407352500Y-300164500D01*
X407352500Y-300164500D02*
X408178000Y-299339000D01*
X408178000Y-295941750D02*
X407352500Y-295116250D01*
X408178000Y-299339000D02*
X408178000Y-295941750D01*
X407352500Y-295116250D02*
X407352500Y-280098500D01*
X407352500Y-280098500D02*
X408051000Y-279400000D01*
X408051000Y-276764750D02*
X407352500Y-276066250D01*
X408051000Y-279400000D02*
X408051000Y-276764750D01*
X407352500Y-276066250D02*
X407352500Y-262064500D01*
X407352500Y-262064500D02*
X408178000Y-261239000D01*
X408178000Y-257841750D02*
X407352500Y-257016250D01*
X408178000Y-261239000D02*
X408178000Y-257841750D01*
X407352500Y-257016250D02*
X407352500Y-242887500D01*
X407352500Y-242887500D02*
X408051000Y-242189000D01*
X408051000Y-238664750D02*
X407352500Y-237966250D01*
X408051000Y-242189000D02*
X408051000Y-238664750D01*
X407352500Y-333216250D02*
X407352500Y-333819500D01*
X407352500Y-333819500D02*
X407924000Y-334391000D01*
X407924000Y-334391000D02*
X407924000Y-337058000D01*
X406400000Y-338582000D02*
X387223000Y-338582000D01*
X407924000Y-337058000D02*
X406400000Y-338582000D01*
X387223000Y-338582000D02*
X386080000Y-338582000D01*
X383159000Y-335661000D02*
X383159000Y-335534000D01*
X386080000Y-338582000D02*
X383159000Y-335661000D01*
%TO.N,COL15*%
X388302500Y-333216250D02*
X388302500Y-300037500D01*
X388302500Y-300037500D02*
X389001000Y-299339000D01*
X389001000Y-295814750D02*
X388302500Y-295116250D01*
X389001000Y-299339000D02*
X389001000Y-295814750D01*
X388302500Y-295116250D02*
X388302500Y-281368500D01*
X388302500Y-281368500D02*
X389128000Y-280543000D01*
X389128000Y-276891750D02*
X388302500Y-276066250D01*
X389128000Y-280543000D02*
X389128000Y-276891750D01*
X388302500Y-276066250D02*
X388302500Y-262445500D01*
X388302500Y-262445500D02*
X389001000Y-261747000D01*
X389001000Y-257714750D02*
X388302500Y-257016250D01*
X389001000Y-261747000D02*
X389001000Y-257714750D01*
X388302500Y-257016250D02*
X388302500Y-243014500D01*
X388302500Y-243014500D02*
X389128000Y-242189000D01*
X389128000Y-238791750D02*
X388302500Y-237966250D01*
X389128000Y-242189000D02*
X389128000Y-238791750D01*
%TO.N,COL14*%
X369252500Y-295116250D02*
X369252500Y-280987500D01*
X369252500Y-280987500D02*
X369951000Y-280289000D01*
X369951000Y-276764750D02*
X369252500Y-276066250D01*
X369951000Y-280289000D02*
X369951000Y-276764750D01*
X369252500Y-276066250D02*
X369252500Y-261937500D01*
X369252500Y-261937500D02*
X370205000Y-260985000D01*
X370205000Y-257968750D02*
X369252500Y-257016250D01*
X370205000Y-260985000D02*
X370205000Y-257968750D01*
X369252500Y-257016250D02*
X369252500Y-243141500D01*
X369252500Y-243141500D02*
X370078000Y-242316000D01*
X370078000Y-238791750D02*
X369252500Y-237966250D01*
X370078000Y-242316000D02*
X370078000Y-238791750D01*
X369252500Y-295116250D02*
X369252500Y-295846500D01*
X369252500Y-295846500D02*
X369570000Y-296164000D01*
X365819962Y-308229000D02*
X365760000Y-308229000D01*
X369570000Y-304478962D02*
X365819962Y-308229000D01*
X369570000Y-296164000D02*
X369570000Y-304478962D01*
%TO.N,COL17*%
X426402500Y-333216250D02*
X426402500Y-300164500D01*
X426402500Y-300164500D02*
X427228000Y-299339000D01*
X427228000Y-295941750D02*
X426402500Y-295116250D01*
X427228000Y-299339000D02*
X427228000Y-295941750D01*
X426402500Y-295116250D02*
X426402500Y-281114500D01*
X426402500Y-281114500D02*
X427101000Y-280416000D01*
X427101000Y-276764750D02*
X426402500Y-276066250D01*
X427101000Y-280416000D02*
X427101000Y-276764750D01*
X426402500Y-276066250D02*
X426402500Y-262064500D01*
X426402500Y-262064500D02*
X427228000Y-261239000D01*
X427228000Y-257841750D02*
X426402500Y-257016250D01*
X427228000Y-261239000D02*
X427228000Y-257841750D01*
X426402500Y-257016250D02*
X426402500Y-243014500D01*
X426402500Y-243014500D02*
X427101000Y-242316000D01*
X427101000Y-238664750D02*
X426402500Y-237966250D01*
X427101000Y-242316000D02*
X427101000Y-238664750D01*
X426402500Y-333216250D02*
X426402500Y-333692500D01*
X426402500Y-333692500D02*
X426212000Y-333883000D01*
X422910000Y-336931000D02*
X422910000Y-335661000D01*
X424688000Y-333883000D02*
X425323000Y-333883000D01*
X425323000Y-333883000D02*
X425226788Y-333883000D01*
X422910000Y-335661000D02*
X424688000Y-333883000D01*
X426212000Y-333883000D02*
X425323000Y-333883000D01*
X385391010Y-339036010D02*
X383159000Y-336804000D01*
X420804990Y-339036010D02*
X385391010Y-339036010D01*
X422910000Y-336931000D02*
X420804990Y-339036010D01*
%TD*%
M02*
