%TF.GenerationSoftware,KiCad,Pcbnew,(5.1.9)-1*%
%TF.CreationDate,2021-04-11T04:13:24-04:00*%
%TF.ProjectId,Progenitor-Tenkey,50726f67-656e-4697-946f-722d54656e6b,rev?*%
%TF.SameCoordinates,Original*%
%TF.FileFunction,Legend,Top*%
%TF.FilePolarity,Positive*%
%FSLAX46Y46*%
G04 Gerber Fmt 4.6, Leading zero omitted, Abs format (unit mm)*
G04 Created by KiCad (PCBNEW (5.1.9)-1) date 2021-04-11 04:13:24*
%MOMM*%
%LPD*%
G01*
G04 APERTURE LIST*
%ADD10C,0.150000*%
%ADD11C,0.254000*%
%ADD12O,1.700000X2.700000*%
%ADD13C,3.987800*%
%ADD14C,1.750000*%
%ADD15C,3.048000*%
G04 APERTURE END LIST*
D10*
X363427083Y-312189880D02*
X363998511Y-312189880D01*
X363712797Y-313189880D02*
X363712797Y-312189880D01*
X364760416Y-313189880D02*
X364760416Y-312666071D01*
X364712797Y-312570833D01*
X364617559Y-312523214D01*
X364427083Y-312523214D01*
X364331845Y-312570833D01*
X364760416Y-313142261D02*
X364665178Y-313189880D01*
X364427083Y-313189880D01*
X364331845Y-313142261D01*
X364284226Y-313047023D01*
X364284226Y-312951785D01*
X364331845Y-312856547D01*
X364427083Y-312808928D01*
X364665178Y-312808928D01*
X364760416Y-312761309D01*
X365141369Y-312523214D02*
X365379464Y-313189880D01*
X365617559Y-312523214D02*
X365379464Y-313189880D01*
X365284226Y-313427976D01*
X365236607Y-313475595D01*
X365141369Y-313523214D01*
X366141369Y-313189880D02*
X366046130Y-313142261D01*
X365998511Y-313047023D01*
X365998511Y-312189880D01*
X366665178Y-313189880D02*
X366569940Y-313142261D01*
X366522321Y-313094642D01*
X366474702Y-312999404D01*
X366474702Y-312713690D01*
X366522321Y-312618452D01*
X366569940Y-312570833D01*
X366665178Y-312523214D01*
X366808035Y-312523214D01*
X366903273Y-312570833D01*
X366950892Y-312618452D01*
X366998511Y-312713690D01*
X366998511Y-312999404D01*
X366950892Y-313094642D01*
X366903273Y-313142261D01*
X366808035Y-313189880D01*
X366665178Y-313189880D01*
X367427083Y-313189880D02*
X367427083Y-312523214D01*
X367427083Y-312713690D02*
X367474702Y-312618452D01*
X367522321Y-312570833D01*
X367617559Y-312523214D01*
X367712797Y-312523214D01*
X368760416Y-313142261D02*
X368903273Y-313189880D01*
X369141369Y-313189880D01*
X369236607Y-313142261D01*
X369284226Y-313094642D01*
X369331845Y-312999404D01*
X369331845Y-312904166D01*
X369284226Y-312808928D01*
X369236607Y-312761309D01*
X369141369Y-312713690D01*
X368950892Y-312666071D01*
X368855654Y-312618452D01*
X368808035Y-312570833D01*
X368760416Y-312475595D01*
X368760416Y-312380357D01*
X368808035Y-312285119D01*
X368855654Y-312237500D01*
X368950892Y-312189880D01*
X369188988Y-312189880D01*
X369331845Y-312237500D01*
X369760416Y-313189880D02*
X369760416Y-312523214D01*
X369760416Y-312189880D02*
X369712797Y-312237500D01*
X369760416Y-312285119D01*
X369808035Y-312237500D01*
X369760416Y-312189880D01*
X369760416Y-312285119D01*
X370236607Y-313189880D02*
X370236607Y-312523214D01*
X370236607Y-312618452D02*
X370284226Y-312570833D01*
X370379464Y-312523214D01*
X370522321Y-312523214D01*
X370617559Y-312570833D01*
X370665178Y-312666071D01*
X370665178Y-313189880D01*
X370665178Y-312666071D02*
X370712797Y-312570833D01*
X370808035Y-312523214D01*
X370950892Y-312523214D01*
X371046130Y-312570833D01*
X371093750Y-312666071D01*
X371093750Y-313189880D01*
X371569940Y-312523214D02*
X371569940Y-313523214D01*
X371569940Y-312570833D02*
X371665178Y-312523214D01*
X371855654Y-312523214D01*
X371950892Y-312570833D01*
X371998511Y-312618452D01*
X372046130Y-312713690D01*
X372046130Y-312999404D01*
X371998511Y-313094642D01*
X371950892Y-313142261D01*
X371855654Y-313189880D01*
X371665178Y-313189880D01*
X371569940Y-313142261D01*
X372427083Y-313142261D02*
X372522321Y-313189880D01*
X372712797Y-313189880D01*
X372808035Y-313142261D01*
X372855654Y-313047023D01*
X372855654Y-312999404D01*
X372808035Y-312904166D01*
X372712797Y-312856547D01*
X372569940Y-312856547D01*
X372474702Y-312808928D01*
X372427083Y-312713690D01*
X372427083Y-312666071D01*
X372474702Y-312570833D01*
X372569940Y-312523214D01*
X372712797Y-312523214D01*
X372808035Y-312570833D01*
X373427083Y-313189880D02*
X373331845Y-313142261D01*
X373284226Y-313094642D01*
X373236607Y-312999404D01*
X373236607Y-312713690D01*
X373284226Y-312618452D01*
X373331845Y-312570833D01*
X373427083Y-312523214D01*
X373569940Y-312523214D01*
X373665178Y-312570833D01*
X373712797Y-312618452D01*
X373760416Y-312713690D01*
X373760416Y-312999404D01*
X373712797Y-313094642D01*
X373665178Y-313142261D01*
X373569940Y-313189880D01*
X373427083Y-313189880D01*
X374188988Y-312523214D02*
X374188988Y-313189880D01*
X374188988Y-312618452D02*
X374236607Y-312570833D01*
X374331845Y-312523214D01*
X374474702Y-312523214D01*
X374569940Y-312570833D01*
X374617559Y-312666071D01*
X374617559Y-313189880D01*
D11*
X363620654Y-311724523D02*
X363620654Y-310454523D01*
X364104464Y-310454523D01*
X364225416Y-310515000D01*
X364285892Y-310575476D01*
X364346369Y-310696428D01*
X364346369Y-310877857D01*
X364285892Y-310998809D01*
X364225416Y-311059285D01*
X364104464Y-311119761D01*
X363620654Y-311119761D01*
X365616369Y-311724523D02*
X365193035Y-311119761D01*
X364890654Y-311724523D02*
X364890654Y-310454523D01*
X365374464Y-310454523D01*
X365495416Y-310515000D01*
X365555892Y-310575476D01*
X365616369Y-310696428D01*
X365616369Y-310877857D01*
X365555892Y-310998809D01*
X365495416Y-311059285D01*
X365374464Y-311119761D01*
X364890654Y-311119761D01*
X366402559Y-310454523D02*
X366644464Y-310454523D01*
X366765416Y-310515000D01*
X366886369Y-310635952D01*
X366946845Y-310877857D01*
X366946845Y-311301190D01*
X366886369Y-311543095D01*
X366765416Y-311664047D01*
X366644464Y-311724523D01*
X366402559Y-311724523D01*
X366281607Y-311664047D01*
X366160654Y-311543095D01*
X366100178Y-311301190D01*
X366100178Y-310877857D01*
X366160654Y-310635952D01*
X366281607Y-310515000D01*
X366402559Y-310454523D01*
X368156369Y-310515000D02*
X368035416Y-310454523D01*
X367853988Y-310454523D01*
X367672559Y-310515000D01*
X367551607Y-310635952D01*
X367491130Y-310756904D01*
X367430654Y-310998809D01*
X367430654Y-311180238D01*
X367491130Y-311422142D01*
X367551607Y-311543095D01*
X367672559Y-311664047D01*
X367853988Y-311724523D01*
X367974940Y-311724523D01*
X368156369Y-311664047D01*
X368216845Y-311603571D01*
X368216845Y-311180238D01*
X367974940Y-311180238D01*
X368761130Y-311059285D02*
X369184464Y-311059285D01*
X369365892Y-311724523D02*
X368761130Y-311724523D01*
X368761130Y-310454523D01*
X369365892Y-310454523D01*
X369910178Y-311724523D02*
X369910178Y-310454523D01*
X370635892Y-311724523D01*
X370635892Y-310454523D01*
X371240654Y-311724523D02*
X371240654Y-310454523D01*
X371663988Y-310454523D02*
X372389702Y-310454523D01*
X372026845Y-311724523D02*
X372026845Y-310454523D01*
X373054940Y-310454523D02*
X373296845Y-310454523D01*
X373417797Y-310515000D01*
X373538750Y-310635952D01*
X373599226Y-310877857D01*
X373599226Y-311301190D01*
X373538750Y-311543095D01*
X373417797Y-311664047D01*
X373296845Y-311724523D01*
X373054940Y-311724523D01*
X372933988Y-311664047D01*
X372813035Y-311543095D01*
X372752559Y-311301190D01*
X372752559Y-310877857D01*
X372813035Y-310635952D01*
X372933988Y-310515000D01*
X373054940Y-310454523D01*
X374869226Y-311724523D02*
X374445892Y-311119761D01*
X374143511Y-311724523D02*
X374143511Y-310454523D01*
X374627321Y-310454523D01*
X374748273Y-310515000D01*
X374808750Y-310575476D01*
X374869226Y-310696428D01*
X374869226Y-310877857D01*
X374808750Y-310998809D01*
X374748273Y-311059285D01*
X374627321Y-311119761D01*
X374143511Y-311119761D01*
X377106845Y-311724523D02*
X376683511Y-311119761D01*
X376381130Y-311724523D02*
X376381130Y-310454523D01*
X376864940Y-310454523D01*
X376985892Y-310515000D01*
X377046369Y-310575476D01*
X377106845Y-310696428D01*
X377106845Y-310877857D01*
X377046369Y-310998809D01*
X376985892Y-311059285D01*
X376864940Y-311119761D01*
X376381130Y-311119761D01*
X378134940Y-311664047D02*
X378013988Y-311724523D01*
X377772083Y-311724523D01*
X377651130Y-311664047D01*
X377590654Y-311543095D01*
X377590654Y-311059285D01*
X377651130Y-310938333D01*
X377772083Y-310877857D01*
X378013988Y-310877857D01*
X378134940Y-310938333D01*
X378195416Y-311059285D01*
X378195416Y-311180238D01*
X377590654Y-311301190D01*
X378618750Y-310877857D02*
X378921130Y-311724523D01*
X379223511Y-310877857D01*
X379707321Y-311603571D02*
X379767797Y-311664047D01*
X379707321Y-311724523D01*
X379646845Y-311664047D01*
X379707321Y-311603571D01*
X379707321Y-311724523D01*
X380977321Y-311724523D02*
X380251607Y-311724523D01*
X380614464Y-311724523D02*
X380614464Y-310454523D01*
X380493511Y-310635952D01*
X380372559Y-310756904D01*
X380251607Y-310817380D01*
%LPC*%
D12*
%TO.C,USB1*%
X356395000Y-232791000D03*
X363695000Y-232791000D03*
X363695000Y-237291000D03*
X356395000Y-237291000D03*
%TD*%
D13*
%TO.C,MX-RAL1*%
X287337500Y-335756250D03*
D14*
X282257500Y-335756250D03*
X292417500Y-335756250D03*
%TD*%
D13*
%TO.C,MX-RCT1*%
X342106250Y-335756250D03*
D14*
X337026250Y-335756250D03*
X347186250Y-335756250D03*
%TD*%
D13*
%TO.C,MX-F13*%
X175418750Y-297656250D03*
D14*
X170338750Y-297656250D03*
X180498750Y-297656250D03*
%TD*%
D13*
%TO.C,MX-Z1*%
X118268750Y-316706250D03*
D14*
X113188750Y-316706250D03*
X123348750Y-316706250D03*
%TD*%
D13*
%TO.C,MX-Y1*%
X213518750Y-278606250D03*
D14*
X208438750Y-278606250D03*
X218598750Y-278606250D03*
%TD*%
D13*
%TO.C,MX-X1*%
X137318750Y-316706250D03*
D14*
X132238750Y-316706250D03*
X142398750Y-316706250D03*
%TD*%
D13*
%TO.C,MX-WIN1*%
X127793750Y-335756250D03*
D14*
X122713750Y-335756250D03*
X132873750Y-335756250D03*
%TD*%
D13*
%TO.C,MX-W1*%
X137318750Y-278606250D03*
D14*
X132238750Y-278606250D03*
X142398750Y-278606250D03*
%TD*%
D13*
%TO.C,MX-V1*%
X175418750Y-316706250D03*
D14*
X170338750Y-316706250D03*
X180498750Y-316706250D03*
%TD*%
D13*
%TO.C,MX-UAR1*%
X411162500Y-316706250D03*
D14*
X406082500Y-316706250D03*
X416242500Y-316706250D03*
%TD*%
D13*
%TO.C,MX-U1*%
X232568750Y-278606250D03*
D14*
X227488750Y-278606250D03*
X237648750Y-278606250D03*
%TD*%
D13*
%TO.C,MX-TIL1*%
X89693750Y-259556250D03*
D14*
X84613750Y-259556250D03*
X94773750Y-259556250D03*
%TD*%
D13*
%TO.C,MX-TAB1*%
X94456250Y-278606250D03*
D14*
X89376250Y-278606250D03*
X99536250Y-278606250D03*
%TD*%
D13*
%TO.C,MX-T1*%
X194468750Y-278606250D03*
D14*
X189388750Y-278606250D03*
X199548750Y-278606250D03*
%TD*%
D13*
%TO.C,MX-SPA1*%
X215900000Y-335756250D03*
D14*
X210820000Y-335756250D03*
X220980000Y-335756250D03*
D15*
X165900100Y-342741250D03*
X265899900Y-342741250D03*
D13*
X165900100Y-327501250D03*
X265899900Y-327501250D03*
%TD*%
%TO.C,MX-S1*%
X137318750Y-297656250D03*
D14*
X132238750Y-297656250D03*
X142398750Y-297656250D03*
%TD*%
D13*
%TO.C,MX-RSH1*%
X337343750Y-316706250D03*
D14*
X332263750Y-316706250D03*
X342423750Y-316706250D03*
D15*
X325437500Y-309721250D03*
X349250000Y-309721250D03*
D13*
X325437500Y-324961250D03*
X349250000Y-324961250D03*
%TD*%
%TO.C,MX-RBR1*%
X327818750Y-278606250D03*
D14*
X322738750Y-278606250D03*
X332898750Y-278606250D03*
%TD*%
D13*
%TO.C,MX-RAR1*%
X430212500Y-335756250D03*
D14*
X425132500Y-335756250D03*
X435292500Y-335756250D03*
%TD*%
D13*
%TO.C,MX-R1*%
X175418750Y-278606250D03*
D14*
X170338750Y-278606250D03*
X180498750Y-278606250D03*
%TD*%
D13*
%TO.C,MX-QUO1*%
X308768750Y-297656250D03*
D14*
X303688750Y-297656250D03*
X313848750Y-297656250D03*
%TD*%
D13*
%TO.C,MX-QUE1*%
X289718750Y-316706250D03*
D14*
X284638750Y-316706250D03*
X294798750Y-316706250D03*
%TD*%
D13*
%TO.C,MX-Q1*%
X118268750Y-278606250D03*
D14*
X113188750Y-278606250D03*
X123348750Y-278606250D03*
%TD*%
D13*
%TO.C,MX-PRT1*%
X313531250Y-335756250D03*
D14*
X308451250Y-335756250D03*
X318611250Y-335756250D03*
%TD*%
D13*
%TO.C,MX-PLU1*%
X318293750Y-259556250D03*
D14*
X313213750Y-259556250D03*
X323373750Y-259556250D03*
%TD*%
D13*
%TO.C,MX-P1*%
X289718750Y-278606250D03*
D14*
X284638750Y-278606250D03*
X294798750Y-278606250D03*
%TD*%
D13*
%TO.C,MX-O1*%
X270668750Y-278606250D03*
D14*
X265588750Y-278606250D03*
X275748750Y-278606250D03*
%TD*%
D13*
%TO.C,MX-NUM1*%
X373062500Y-297656250D03*
D14*
X367982500Y-297656250D03*
X378142500Y-297656250D03*
%TD*%
D13*
%TO.C,MX-NSL1*%
X430212500Y-240506250D03*
D14*
X425132500Y-240506250D03*
X435292500Y-240506250D03*
%TD*%
D13*
%TO.C,MX-NPL1*%
X430212500Y-297656250D03*
D14*
X425132500Y-297656250D03*
X435292500Y-297656250D03*
%TD*%
D13*
%TO.C,MX-NDE1*%
X411162500Y-297656250D03*
D14*
X406082500Y-297656250D03*
X416242500Y-297656250D03*
%TD*%
D13*
%TO.C,MX-NDA1*%
X430212500Y-278606250D03*
D14*
X425132500Y-278606250D03*
X435292500Y-278606250D03*
%TD*%
D13*
%TO.C,MX-NAS1*%
X430212500Y-259556250D03*
D14*
X425132500Y-259556250D03*
X435292500Y-259556250D03*
%TD*%
D13*
%TO.C,MX-N10*%
X213518750Y-316706250D03*
D14*
X208438750Y-316706250D03*
X218598750Y-316706250D03*
%TD*%
D13*
%TO.C,MX-N9*%
X411162500Y-240506250D03*
D14*
X406082500Y-240506250D03*
X416242500Y-240506250D03*
%TD*%
D13*
%TO.C,MX-N8*%
X392112500Y-240506250D03*
D14*
X387032500Y-240506250D03*
X397192500Y-240506250D03*
%TD*%
D13*
%TO.C,MX-N7*%
X373062500Y-240506250D03*
D14*
X367982500Y-240506250D03*
X378142500Y-240506250D03*
%TD*%
D13*
%TO.C,MX-N6*%
X411162500Y-259556250D03*
D14*
X406082500Y-259556250D03*
X416242500Y-259556250D03*
%TD*%
D13*
%TO.C,MX-N5*%
X392112500Y-259556250D03*
D14*
X387032500Y-259556250D03*
X397192500Y-259556250D03*
%TD*%
D13*
%TO.C,MX-N4*%
X373062500Y-259556250D03*
D14*
X367982500Y-259556250D03*
X378142500Y-259556250D03*
%TD*%
D13*
%TO.C,MX-N3*%
X411162500Y-278606250D03*
D14*
X406082500Y-278606250D03*
X416242500Y-278606250D03*
%TD*%
D13*
%TO.C,MX-N2*%
X392112500Y-278606250D03*
D14*
X387032500Y-278606250D03*
X397192500Y-278606250D03*
%TD*%
D13*
%TO.C,MX-N1*%
X373062500Y-278606250D03*
D14*
X367982500Y-278606250D03*
X378142500Y-278606250D03*
%TD*%
D13*
%TO.C,MX-N0*%
X392112500Y-297656250D03*
D14*
X387032500Y-297656250D03*
X397192500Y-297656250D03*
%TD*%
D13*
%TO.C,MX-M1*%
X232568750Y-316706250D03*
D14*
X227488750Y-316706250D03*
X237648750Y-316706250D03*
%TD*%
D13*
%TO.C,MX-LSH1*%
X94456250Y-316706250D03*
D14*
X89376250Y-316706250D03*
X99536250Y-316706250D03*
%TD*%
D13*
%TO.C,MX-LFN1*%
X108743750Y-335756250D03*
D14*
X103663750Y-335756250D03*
X113823750Y-335756250D03*
%TD*%
D13*
%TO.C,MX-LES1*%
X251618750Y-316706250D03*
D14*
X246538750Y-316706250D03*
X256698750Y-316706250D03*
%TD*%
D13*
%TO.C,MX-LCT1*%
X89693750Y-335756250D03*
D14*
X84613750Y-335756250D03*
X94773750Y-335756250D03*
%TD*%
D13*
%TO.C,MX-LBR1*%
X308768750Y-278606250D03*
D14*
X303688750Y-278606250D03*
X313848750Y-278606250D03*
%TD*%
D13*
%TO.C,MX-LAR1*%
X392112500Y-335756250D03*
D14*
X387032500Y-335756250D03*
X397192500Y-335756250D03*
%TD*%
D13*
%TO.C,MX-LAL1*%
X146843750Y-335756250D03*
D14*
X141763750Y-335756250D03*
X151923750Y-335756250D03*
%TD*%
D13*
%TO.C,MX-L1*%
X270668750Y-297656250D03*
D14*
X265588750Y-297656250D03*
X275748750Y-297656250D03*
%TD*%
D13*
%TO.C,MX-K1*%
X251618750Y-297656250D03*
D14*
X246538750Y-297656250D03*
X256698750Y-297656250D03*
%TD*%
D13*
%TO.C,MX-J1*%
X232568750Y-297656250D03*
D14*
X227488750Y-297656250D03*
X237648750Y-297656250D03*
%TD*%
D13*
%TO.C,MX-I1*%
X251618750Y-278606250D03*
D14*
X246538750Y-278606250D03*
X256698750Y-278606250D03*
%TD*%
D13*
%TO.C,MX-H1*%
X213518750Y-297656250D03*
D14*
X208438750Y-297656250D03*
X218598750Y-297656250D03*
%TD*%
D13*
%TO.C,MX-GRE1*%
X270668750Y-316706250D03*
D14*
X265588750Y-316706250D03*
X275748750Y-316706250D03*
%TD*%
D13*
%TO.C,MX-G1*%
X194468750Y-297656250D03*
D14*
X189388750Y-297656250D03*
X199548750Y-297656250D03*
%TD*%
D13*
%TO.C,MX-FSL1*%
X346868750Y-278606250D03*
D14*
X341788750Y-278606250D03*
X351948750Y-278606250D03*
%TD*%
D13*
%TO.C,MX-F12*%
X318293750Y-240506250D03*
D14*
X313213750Y-240506250D03*
X323373750Y-240506250D03*
%TD*%
D13*
%TO.C,MX-F11*%
X299243750Y-240506250D03*
D14*
X294163750Y-240506250D03*
X304323750Y-240506250D03*
%TD*%
D13*
%TO.C,MX-F10*%
X280193750Y-240506250D03*
D14*
X275113750Y-240506250D03*
X285273750Y-240506250D03*
%TD*%
D13*
%TO.C,MX-F9*%
X261143750Y-240506250D03*
D14*
X256063750Y-240506250D03*
X266223750Y-240506250D03*
%TD*%
D13*
%TO.C,MX-F8*%
X242093750Y-240506250D03*
D14*
X237013750Y-240506250D03*
X247173750Y-240506250D03*
%TD*%
D13*
%TO.C,MX-F7*%
X223043750Y-240506250D03*
D14*
X217963750Y-240506250D03*
X228123750Y-240506250D03*
%TD*%
D13*
%TO.C,MX-F6*%
X203993750Y-240506250D03*
D14*
X198913750Y-240506250D03*
X209073750Y-240506250D03*
%TD*%
D13*
%TO.C,MX-F5*%
X184943750Y-240506250D03*
D14*
X179863750Y-240506250D03*
X190023750Y-240506250D03*
%TD*%
D13*
%TO.C,MX-F4*%
X165893750Y-240506250D03*
D14*
X160813750Y-240506250D03*
X170973750Y-240506250D03*
%TD*%
D13*
%TO.C,MX-F3*%
X146843750Y-240506250D03*
D14*
X141763750Y-240506250D03*
X151923750Y-240506250D03*
%TD*%
D13*
%TO.C,MX-F2*%
X127793750Y-240506250D03*
D14*
X122713750Y-240506250D03*
X132873750Y-240506250D03*
%TD*%
D13*
%TO.C,MX-F1*%
X108743750Y-240506250D03*
D14*
X103663750Y-240506250D03*
X113823750Y-240506250D03*
%TD*%
D13*
%TO.C,MX-ESC1*%
X89693750Y-240506250D03*
D14*
X84613750Y-240506250D03*
X94773750Y-240506250D03*
%TD*%
D13*
%TO.C,MX-ENT1*%
X337343750Y-297656250D03*
D14*
X332263750Y-297656250D03*
X342423750Y-297656250D03*
D15*
X325437500Y-290671250D03*
X349250000Y-290671250D03*
D13*
X325437500Y-305911250D03*
X349250000Y-305911250D03*
%TD*%
%TO.C,MX-E1*%
X156368750Y-278606250D03*
D14*
X151288750Y-278606250D03*
X161448750Y-278606250D03*
%TD*%
D13*
%TO.C,MX-DEL1*%
X342106250Y-240506250D03*
D14*
X337026250Y-240506250D03*
X347186250Y-240506250D03*
%TD*%
D13*
%TO.C,MX-DAS1*%
X299243750Y-259556250D03*
D14*
X294163750Y-259556250D03*
X304323750Y-259556250D03*
%TD*%
D13*
%TO.C,MX-DAR1*%
X411162500Y-335756250D03*
D14*
X406082500Y-335756250D03*
X416242500Y-335756250D03*
%TD*%
D13*
%TO.C,MX-D1*%
X156368750Y-297656250D03*
D14*
X151288750Y-297656250D03*
X161448750Y-297656250D03*
%TD*%
D13*
%TO.C,MX-CUR1*%
X308768750Y-316706250D03*
D14*
X303688750Y-316706250D03*
X313848750Y-316706250D03*
%TD*%
D13*
%TO.C,MX-COL1*%
X289718750Y-297656250D03*
D14*
X284638750Y-297656250D03*
X294798750Y-297656250D03*
%TD*%
D13*
%TO.C,MX-CAP1*%
X94456250Y-297656250D03*
D14*
X89376250Y-297656250D03*
X99536250Y-297656250D03*
%TD*%
D13*
%TO.C,MX-C1*%
X156368750Y-316706250D03*
D14*
X151288750Y-316706250D03*
X161448750Y-316706250D03*
%TD*%
D13*
%TO.C,MX-BAC1*%
X342106250Y-259556250D03*
D14*
X337026250Y-259556250D03*
X347186250Y-259556250D03*
%TD*%
D13*
%TO.C,MX-B1*%
X194468750Y-316706250D03*
D14*
X189388750Y-316706250D03*
X199548750Y-316706250D03*
%TD*%
D13*
%TO.C,MX-A1*%
X118268750Y-297656250D03*
D14*
X113188750Y-297656250D03*
X123348750Y-297656250D03*
%TD*%
D13*
%TO.C,MX-9*%
X261143750Y-259556250D03*
D14*
X256063750Y-259556250D03*
X266223750Y-259556250D03*
%TD*%
D13*
%TO.C,MX-8*%
X242093750Y-259556250D03*
D14*
X237013750Y-259556250D03*
X247173750Y-259556250D03*
%TD*%
D13*
%TO.C,MX-7*%
X223043750Y-259556250D03*
D14*
X217963750Y-259556250D03*
X228123750Y-259556250D03*
%TD*%
D13*
%TO.C,MX-6*%
X203993750Y-259556250D03*
D14*
X198913750Y-259556250D03*
X209073750Y-259556250D03*
%TD*%
D13*
%TO.C,MX-5*%
X184943750Y-259556250D03*
D14*
X179863750Y-259556250D03*
X190023750Y-259556250D03*
%TD*%
D13*
%TO.C,MX-4*%
X165893750Y-259556250D03*
D14*
X160813750Y-259556250D03*
X170973750Y-259556250D03*
%TD*%
D13*
%TO.C,MX-3*%
X146843750Y-259556250D03*
D14*
X141763750Y-259556250D03*
X151923750Y-259556250D03*
%TD*%
D13*
%TO.C,MX-2*%
X127793750Y-259556250D03*
D14*
X122713750Y-259556250D03*
X132873750Y-259556250D03*
%TD*%
D13*
%TO.C,MX-1*%
X108743750Y-259556250D03*
D14*
X103663750Y-259556250D03*
X113823750Y-259556250D03*
%TD*%
D13*
%TO.C,MX-0*%
X280193750Y-259556250D03*
D14*
X275113750Y-259556250D03*
X285273750Y-259556250D03*
%TD*%
M02*
