%TF.GenerationSoftware,KiCad,Pcbnew,(5.1.9)-1*%
%TF.CreationDate,2021-04-11T04:13:23-04:00*%
%TF.ProjectId,Progenitor-Tenkey,50726f67-656e-4697-946f-722d54656e6b,rev?*%
%TF.SameCoordinates,Original*%
%TF.FileFunction,Copper,L2,Bot*%
%TF.FilePolarity,Positive*%
%FSLAX46Y46*%
G04 Gerber Fmt 4.6, Leading zero omitted, Abs format (unit mm)*
G04 Created by KiCad (PCBNEW (5.1.9)-1) date 2021-04-11 04:13:23*
%MOMM*%
%LPD*%
G01*
G04 APERTURE LIST*
%TA.AperFunction,SMDPad,CuDef*%
%ADD10C,0.100000*%
%TD*%
%TA.AperFunction,ComponentPad*%
%ADD11O,1.700000X2.700000*%
%TD*%
%TA.AperFunction,SMDPad,CuDef*%
%ADD12R,0.500000X2.250000*%
%TD*%
%TA.AperFunction,ComponentPad*%
%ADD13C,2.250000*%
%TD*%
%TA.AperFunction,SMDPad,CuDef*%
%ADD14R,1.200000X0.900000*%
%TD*%
%TA.AperFunction,ViaPad*%
%ADD15C,0.800000*%
%TD*%
%TA.AperFunction,Conductor*%
%ADD16C,0.381000*%
%TD*%
%TA.AperFunction,Conductor*%
%ADD17C,0.254000*%
%TD*%
%TA.AperFunction,Conductor*%
%ADD18C,0.100000*%
%TD*%
G04 APERTURE END LIST*
%TA.AperFunction,SMDPad,CuDef*%
D10*
%TO.P,U1,44*%
%TO.N,+5V*%
G36*
X362792940Y-322803298D02*
G01*
X363181848Y-323192206D01*
X362121188Y-324252866D01*
X361732280Y-323863958D01*
X362792940Y-322803298D01*
G37*
%TD.AperFunction*%
%TA.AperFunction,SMDPad,CuDef*%
%TO.P,U1,43*%
%TO.N,GND*%
G36*
X363358626Y-323368983D02*
G01*
X363747534Y-323757891D01*
X362686874Y-324818551D01*
X362297966Y-324429643D01*
X363358626Y-323368983D01*
G37*
%TD.AperFunction*%
%TA.AperFunction,SMDPad,CuDef*%
%TO.P,U1,42*%
%TO.N,Net-(U1-Pad42)*%
G36*
X363924311Y-323934668D02*
G01*
X364313219Y-324323576D01*
X363252559Y-325384236D01*
X362863651Y-324995328D01*
X363924311Y-323934668D01*
G37*
%TD.AperFunction*%
%TA.AperFunction,SMDPad,CuDef*%
%TO.P,U1,41*%
%TO.N,ROW04*%
G36*
X364489996Y-324500354D02*
G01*
X364878904Y-324889262D01*
X363818244Y-325949922D01*
X363429336Y-325561014D01*
X364489996Y-324500354D01*
G37*
%TD.AperFunction*%
%TA.AperFunction,SMDPad,CuDef*%
%TO.P,U1,40*%
%TO.N,COL13*%
G36*
X365055682Y-325066039D02*
G01*
X365444590Y-325454947D01*
X364383930Y-326515607D01*
X363995022Y-326126699D01*
X365055682Y-325066039D01*
G37*
%TD.AperFunction*%
%TA.AperFunction,SMDPad,CuDef*%
%TO.P,U1,39*%
%TO.N,COL12*%
G36*
X365621367Y-325631725D02*
G01*
X366010275Y-326020633D01*
X364949615Y-327081293D01*
X364560707Y-326692385D01*
X365621367Y-325631725D01*
G37*
%TD.AperFunction*%
%TA.AperFunction,SMDPad,CuDef*%
%TO.P,U1,38*%
%TO.N,COL11*%
G36*
X366187053Y-326197410D02*
G01*
X366575961Y-326586318D01*
X365515301Y-327646978D01*
X365126393Y-327258070D01*
X366187053Y-326197410D01*
G37*
%TD.AperFunction*%
%TA.AperFunction,SMDPad,CuDef*%
%TO.P,U1,37*%
%TO.N,COL10*%
G36*
X366752738Y-326763096D02*
G01*
X367141646Y-327152004D01*
X366080986Y-328212664D01*
X365692078Y-327823756D01*
X366752738Y-326763096D01*
G37*
%TD.AperFunction*%
%TA.AperFunction,SMDPad,CuDef*%
%TO.P,U1,36*%
%TO.N,COL09*%
G36*
X367318424Y-327328781D02*
G01*
X367707332Y-327717689D01*
X366646672Y-328778349D01*
X366257764Y-328389441D01*
X367318424Y-327328781D01*
G37*
%TD.AperFunction*%
%TA.AperFunction,SMDPad,CuDef*%
%TO.P,U1,35*%
%TO.N,GND*%
G36*
X367884109Y-327894466D02*
G01*
X368273017Y-328283374D01*
X367212357Y-329344034D01*
X366823449Y-328955126D01*
X367884109Y-327894466D01*
G37*
%TD.AperFunction*%
%TA.AperFunction,SMDPad,CuDef*%
%TO.P,U1,34*%
%TO.N,+5V*%
G36*
X368449794Y-328460152D02*
G01*
X368838702Y-328849060D01*
X367778042Y-329909720D01*
X367389134Y-329520812D01*
X368449794Y-328460152D01*
G37*
%TD.AperFunction*%
%TA.AperFunction,SMDPad,CuDef*%
%TO.P,U1,33*%
%TO.N,Net-(R4-Pad2)*%
G36*
X369793298Y-328849060D02*
G01*
X370182206Y-328460152D01*
X371242866Y-329520812D01*
X370853958Y-329909720D01*
X369793298Y-328849060D01*
G37*
%TD.AperFunction*%
%TA.AperFunction,SMDPad,CuDef*%
%TO.P,U1,32*%
%TO.N,ROW05*%
G36*
X370358983Y-328283374D02*
G01*
X370747891Y-327894466D01*
X371808551Y-328955126D01*
X371419643Y-329344034D01*
X370358983Y-328283374D01*
G37*
%TD.AperFunction*%
%TA.AperFunction,SMDPad,CuDef*%
%TO.P,U1,31*%
%TO.N,COL17*%
G36*
X370924668Y-327717689D02*
G01*
X371313576Y-327328781D01*
X372374236Y-328389441D01*
X371985328Y-328778349D01*
X370924668Y-327717689D01*
G37*
%TD.AperFunction*%
%TA.AperFunction,SMDPad,CuDef*%
%TO.P,U1,30*%
%TO.N,COL16*%
G36*
X371490354Y-327152004D02*
G01*
X371879262Y-326763096D01*
X372939922Y-327823756D01*
X372551014Y-328212664D01*
X371490354Y-327152004D01*
G37*
%TD.AperFunction*%
%TA.AperFunction,SMDPad,CuDef*%
%TO.P,U1,29*%
%TO.N,COL15*%
G36*
X372056039Y-326586318D02*
G01*
X372444947Y-326197410D01*
X373505607Y-327258070D01*
X373116699Y-327646978D01*
X372056039Y-326586318D01*
G37*
%TD.AperFunction*%
%TA.AperFunction,SMDPad,CuDef*%
%TO.P,U1,28*%
%TO.N,COL07*%
G36*
X372621725Y-326020633D02*
G01*
X373010633Y-325631725D01*
X374071293Y-326692385D01*
X373682385Y-327081293D01*
X372621725Y-326020633D01*
G37*
%TD.AperFunction*%
%TA.AperFunction,SMDPad,CuDef*%
%TO.P,U1,27*%
%TO.N,COL06*%
G36*
X373187410Y-325454947D02*
G01*
X373576318Y-325066039D01*
X374636978Y-326126699D01*
X374248070Y-326515607D01*
X373187410Y-325454947D01*
G37*
%TD.AperFunction*%
%TA.AperFunction,SMDPad,CuDef*%
%TO.P,U1,26*%
%TO.N,COL05*%
G36*
X373753096Y-324889262D02*
G01*
X374142004Y-324500354D01*
X375202664Y-325561014D01*
X374813756Y-325949922D01*
X373753096Y-324889262D01*
G37*
%TD.AperFunction*%
%TA.AperFunction,SMDPad,CuDef*%
%TO.P,U1,25*%
%TO.N,COL04*%
G36*
X374318781Y-324323576D02*
G01*
X374707689Y-323934668D01*
X375768349Y-324995328D01*
X375379441Y-325384236D01*
X374318781Y-324323576D01*
G37*
%TD.AperFunction*%
%TA.AperFunction,SMDPad,CuDef*%
%TO.P,U1,24*%
%TO.N,+5V*%
G36*
X374884466Y-323757891D02*
G01*
X375273374Y-323368983D01*
X376334034Y-324429643D01*
X375945126Y-324818551D01*
X374884466Y-323757891D01*
G37*
%TD.AperFunction*%
%TA.AperFunction,SMDPad,CuDef*%
%TO.P,U1,23*%
%TO.N,GND*%
G36*
X375450152Y-323192206D02*
G01*
X375839060Y-322803298D01*
X376899720Y-323863958D01*
X376510812Y-324252866D01*
X375450152Y-323192206D01*
G37*
%TD.AperFunction*%
%TA.AperFunction,SMDPad,CuDef*%
%TO.P,U1,22*%
%TO.N,COL03*%
G36*
X376510812Y-320399134D02*
G01*
X376899720Y-320788042D01*
X375839060Y-321848702D01*
X375450152Y-321459794D01*
X376510812Y-320399134D01*
G37*
%TD.AperFunction*%
%TA.AperFunction,SMDPad,CuDef*%
%TO.P,U1,21*%
%TO.N,COL02*%
G36*
X375945126Y-319833449D02*
G01*
X376334034Y-320222357D01*
X375273374Y-321283017D01*
X374884466Y-320894109D01*
X375945126Y-319833449D01*
G37*
%TD.AperFunction*%
%TA.AperFunction,SMDPad,CuDef*%
%TO.P,U1,20*%
%TO.N,Net-(U1-Pad20)*%
G36*
X375379441Y-319267764D02*
G01*
X375768349Y-319656672D01*
X374707689Y-320717332D01*
X374318781Y-320328424D01*
X375379441Y-319267764D01*
G37*
%TD.AperFunction*%
%TA.AperFunction,SMDPad,CuDef*%
%TO.P,U1,19*%
%TO.N,COL01*%
G36*
X374813756Y-318702078D02*
G01*
X375202664Y-319090986D01*
X374142004Y-320151646D01*
X373753096Y-319762738D01*
X374813756Y-318702078D01*
G37*
%TD.AperFunction*%
%TA.AperFunction,SMDPad,CuDef*%
%TO.P,U1,18*%
%TO.N,COL00*%
G36*
X374248070Y-318136393D02*
G01*
X374636978Y-318525301D01*
X373576318Y-319585961D01*
X373187410Y-319197053D01*
X374248070Y-318136393D01*
G37*
%TD.AperFunction*%
%TA.AperFunction,SMDPad,CuDef*%
%TO.P,U1,17*%
%TO.N,Net-(C2-Pad1)*%
G36*
X373682385Y-317570707D02*
G01*
X374071293Y-317959615D01*
X373010633Y-319020275D01*
X372621725Y-318631367D01*
X373682385Y-317570707D01*
G37*
%TD.AperFunction*%
%TA.AperFunction,SMDPad,CuDef*%
%TO.P,U1,16*%
%TO.N,Net-(C3-Pad1)*%
G36*
X373116699Y-317005022D02*
G01*
X373505607Y-317393930D01*
X372444947Y-318454590D01*
X372056039Y-318065682D01*
X373116699Y-317005022D01*
G37*
%TD.AperFunction*%
%TA.AperFunction,SMDPad,CuDef*%
%TO.P,U1,15*%
%TO.N,GND*%
G36*
X372551014Y-316439336D02*
G01*
X372939922Y-316828244D01*
X371879262Y-317888904D01*
X371490354Y-317499996D01*
X372551014Y-316439336D01*
G37*
%TD.AperFunction*%
%TA.AperFunction,SMDPad,CuDef*%
%TO.P,U1,14*%
%TO.N,+5V*%
G36*
X371985328Y-315873651D02*
G01*
X372374236Y-316262559D01*
X371313576Y-317323219D01*
X370924668Y-316934311D01*
X371985328Y-315873651D01*
G37*
%TD.AperFunction*%
%TA.AperFunction,SMDPad,CuDef*%
%TO.P,U1,13*%
%TO.N,Net-(R3-Pad2)*%
G36*
X371419643Y-315307966D02*
G01*
X371808551Y-315696874D01*
X370747891Y-316757534D01*
X370358983Y-316368626D01*
X371419643Y-315307966D01*
G37*
%TD.AperFunction*%
%TA.AperFunction,SMDPad,CuDef*%
%TO.P,U1,12*%
%TO.N,ROW03*%
G36*
X370853958Y-314742280D02*
G01*
X371242866Y-315131188D01*
X370182206Y-316191848D01*
X369793298Y-315802940D01*
X370853958Y-314742280D01*
G37*
%TD.AperFunction*%
%TA.AperFunction,SMDPad,CuDef*%
%TO.P,U1,11*%
%TO.N,COL14*%
G36*
X367389134Y-315131188D02*
G01*
X367778042Y-314742280D01*
X368838702Y-315802940D01*
X368449794Y-316191848D01*
X367389134Y-315131188D01*
G37*
%TD.AperFunction*%
%TA.AperFunction,SMDPad,CuDef*%
%TO.P,U1,10*%
%TO.N,ROW02*%
G36*
X366823449Y-315696874D02*
G01*
X367212357Y-315307966D01*
X368273017Y-316368626D01*
X367884109Y-316757534D01*
X366823449Y-315696874D01*
G37*
%TD.AperFunction*%
%TA.AperFunction,SMDPad,CuDef*%
%TO.P,U1,9*%
%TO.N,ROW01*%
G36*
X366257764Y-316262559D02*
G01*
X366646672Y-315873651D01*
X367707332Y-316934311D01*
X367318424Y-317323219D01*
X366257764Y-316262559D01*
G37*
%TD.AperFunction*%
%TA.AperFunction,SMDPad,CuDef*%
%TO.P,U1,8*%
%TO.N,ROW00*%
G36*
X365692078Y-316828244D02*
G01*
X366080986Y-316439336D01*
X367141646Y-317499996D01*
X366752738Y-317888904D01*
X365692078Y-316828244D01*
G37*
%TD.AperFunction*%
%TA.AperFunction,SMDPad,CuDef*%
%TO.P,U1,7*%
%TO.N,+5V*%
G36*
X365126393Y-317393930D02*
G01*
X365515301Y-317005022D01*
X366575961Y-318065682D01*
X366187053Y-318454590D01*
X365126393Y-317393930D01*
G37*
%TD.AperFunction*%
%TA.AperFunction,SMDPad,CuDef*%
%TO.P,U1,6*%
%TO.N,Net-(C6-Pad1)*%
G36*
X364560707Y-317959615D02*
G01*
X364949615Y-317570707D01*
X366010275Y-318631367D01*
X365621367Y-319020275D01*
X364560707Y-317959615D01*
G37*
%TD.AperFunction*%
%TA.AperFunction,SMDPad,CuDef*%
%TO.P,U1,5*%
%TO.N,GND*%
G36*
X363995022Y-318525301D02*
G01*
X364383930Y-318136393D01*
X365444590Y-319197053D01*
X365055682Y-319585961D01*
X363995022Y-318525301D01*
G37*
%TD.AperFunction*%
%TA.AperFunction,SMDPad,CuDef*%
%TO.P,U1,4*%
%TO.N,Net-(R2-Pad1)*%
G36*
X363429336Y-319090986D02*
G01*
X363818244Y-318702078D01*
X364878904Y-319762738D01*
X364489996Y-320151646D01*
X363429336Y-319090986D01*
G37*
%TD.AperFunction*%
%TA.AperFunction,SMDPad,CuDef*%
%TO.P,U1,3*%
%TO.N,Net-(R1-Pad1)*%
G36*
X362863651Y-319656672D02*
G01*
X363252559Y-319267764D01*
X364313219Y-320328424D01*
X363924311Y-320717332D01*
X362863651Y-319656672D01*
G37*
%TD.AperFunction*%
%TA.AperFunction,SMDPad,CuDef*%
%TO.P,U1,2*%
%TO.N,+5V*%
G36*
X362297966Y-320222357D02*
G01*
X362686874Y-319833449D01*
X363747534Y-320894109D01*
X363358626Y-321283017D01*
X362297966Y-320222357D01*
G37*
%TD.AperFunction*%
%TA.AperFunction,SMDPad,CuDef*%
%TO.P,U1,1*%
%TO.N,COL08*%
G36*
X361732280Y-320788042D02*
G01*
X362121188Y-320399134D01*
X363181848Y-321459794D01*
X362792940Y-321848702D01*
X361732280Y-320788042D01*
G37*
%TD.AperFunction*%
%TD*%
D11*
%TO.P,USB1,6*%
%TO.N,GND*%
X356395000Y-232791000D03*
X363695000Y-232791000D03*
X363695000Y-237291000D03*
X356395000Y-237291000D03*
D12*
%TO.P,USB1,5*%
%TO.N,VCC*%
X358445000Y-237291000D03*
%TO.P,USB1,4*%
%TO.N,D-*%
X359245000Y-237291000D03*
%TO.P,USB1,3*%
%TO.N,D+*%
X360045000Y-237291000D03*
%TO.P,USB1,2*%
%TO.N,Net-(USB1-Pad2)*%
X360845000Y-237291000D03*
%TO.P,USB1,1*%
%TO.N,GND*%
X361645000Y-237291000D03*
%TD*%
D13*
%TO.P,MX-RAL1,2*%
%TO.N,Net-(D58-Pad2)*%
X289877500Y-330676250D03*
%TO.P,MX-RAL1,1*%
%TO.N,COL11*%
X283527500Y-333216250D03*
%TD*%
%TO.P,MX-RCT1,2*%
%TO.N,Net-(D76-Pad2)*%
X344646250Y-330676250D03*
%TO.P,MX-RCT1,1*%
%TO.N,COL13*%
X338296250Y-333216250D03*
%TD*%
%TO.P,MX-F13,2*%
%TO.N,Net-(D30-Pad2)*%
X177958750Y-292576250D03*
%TO.P,MX-F13,1*%
%TO.N,COL05*%
X171608750Y-295116250D03*
%TD*%
%TA.AperFunction,SMDPad,CuDef*%
D10*
%TO.P,Y1,4*%
%TO.N,GND*%
G36*
X383615597Y-314096238D02*
G01*
X382767069Y-314944766D01*
X381777119Y-313954816D01*
X382625647Y-313106288D01*
X383615597Y-314096238D01*
G37*
%TD.AperFunction*%
%TA.AperFunction,SMDPad,CuDef*%
%TO.P,Y1,3*%
%TO.N,Net-(C3-Pad1)*%
G36*
X382059962Y-312540603D02*
G01*
X381211434Y-313389131D01*
X380221484Y-312399181D01*
X381070012Y-311550653D01*
X382059962Y-312540603D01*
G37*
%TD.AperFunction*%
%TA.AperFunction,SMDPad,CuDef*%
%TO.P,Y1,2*%
%TO.N,GND*%
G36*
X380857881Y-313742684D02*
G01*
X380009353Y-314591212D01*
X379019403Y-313601262D01*
X379867931Y-312752734D01*
X380857881Y-313742684D01*
G37*
%TD.AperFunction*%
%TA.AperFunction,SMDPad,CuDef*%
%TO.P,Y1,1*%
%TO.N,Net-(C2-Pad1)*%
G36*
X382413516Y-315298319D02*
G01*
X381564988Y-316146847D01*
X380575038Y-315156897D01*
X381423566Y-314308369D01*
X382413516Y-315298319D01*
G37*
%TD.AperFunction*%
%TD*%
%TA.AperFunction,SMDPad,CuDef*%
%TO.P,SW1,4*%
%TO.N,N/C*%
G36*
X396304666Y-314193812D02*
G01*
X397082484Y-314971630D01*
X395809692Y-316244422D01*
X395031874Y-315466604D01*
X396304666Y-314193812D01*
G37*
%TD.AperFunction*%
%TA.AperFunction,SMDPad,CuDef*%
%TO.P,SW1,3*%
G36*
X389304308Y-315961578D02*
G01*
X390082126Y-316739396D01*
X388809334Y-318012188D01*
X388031516Y-317234370D01*
X389304308Y-315961578D01*
G37*
%TD.AperFunction*%
%TA.AperFunction,SMDPad,CuDef*%
%TO.P,SW1,2*%
%TO.N,Net-(R3-Pad2)*%
G36*
X393688370Y-311577516D02*
G01*
X394466188Y-312355334D01*
X393193396Y-313628126D01*
X392415578Y-312850308D01*
X393688370Y-311577516D01*
G37*
%TD.AperFunction*%
%TA.AperFunction,SMDPad,CuDef*%
%TO.P,SW1,1*%
%TO.N,GND*%
G36*
X391920604Y-318577874D02*
G01*
X392698422Y-319355692D01*
X391425630Y-320628484D01*
X390647812Y-319850666D01*
X391920604Y-318577874D01*
G37*
%TD.AperFunction*%
%TD*%
%TO.P,R4,2*%
%TO.N,Net-(R4-Pad2)*%
%TA.AperFunction,SMDPad,CuDef*%
G36*
G01*
X371060043Y-333664356D02*
X370423644Y-333027957D01*
G75*
G02*
X370423644Y-332674407I176775J176775D01*
G01*
X370794877Y-332303174D01*
G75*
G02*
X371148427Y-332303174I176775J-176775D01*
G01*
X371784826Y-332939573D01*
G75*
G02*
X371784826Y-333293123I-176775J-176775D01*
G01*
X371413593Y-333664356D01*
G75*
G02*
X371060043Y-333664356I-176775J176775D01*
G01*
G37*
%TD.AperFunction*%
%TO.P,R4,1*%
%TO.N,GND*%
%TA.AperFunction,SMDPad,CuDef*%
G36*
G01*
X369769573Y-334954826D02*
X369133174Y-334318427D01*
G75*
G02*
X369133174Y-333964877I176775J176775D01*
G01*
X369504407Y-333593644D01*
G75*
G02*
X369857957Y-333593644I176775J-176775D01*
G01*
X370494356Y-334230043D01*
G75*
G02*
X370494356Y-334583593I-176775J-176775D01*
G01*
X370123123Y-334954826D01*
G75*
G02*
X369769573Y-334954826I-176775J176775D01*
G01*
G37*
%TD.AperFunction*%
%TD*%
%TO.P,R3,2*%
%TO.N,Net-(R3-Pad2)*%
%TA.AperFunction,SMDPad,CuDef*%
G36*
G01*
X370619957Y-310987644D02*
X371256356Y-311624043D01*
G75*
G02*
X371256356Y-311977593I-176775J-176775D01*
G01*
X370885123Y-312348826D01*
G75*
G02*
X370531573Y-312348826I-176775J176775D01*
G01*
X369895174Y-311712427D01*
G75*
G02*
X369895174Y-311358877I176775J176775D01*
G01*
X370266407Y-310987644D01*
G75*
G02*
X370619957Y-310987644I176775J-176775D01*
G01*
G37*
%TD.AperFunction*%
%TO.P,R3,1*%
%TO.N,+5V*%
%TA.AperFunction,SMDPad,CuDef*%
G36*
G01*
X371910427Y-309697174D02*
X372546826Y-310333573D01*
G75*
G02*
X372546826Y-310687123I-176775J-176775D01*
G01*
X372175593Y-311058356D01*
G75*
G02*
X371822043Y-311058356I-176775J176775D01*
G01*
X371185644Y-310421957D01*
G75*
G02*
X371185644Y-310068407I176775J176775D01*
G01*
X371556877Y-309697174D01*
G75*
G02*
X371910427Y-309697174I176775J-176775D01*
G01*
G37*
%TD.AperFunction*%
%TD*%
%TO.P,R2,2*%
%TO.N,D+*%
%TA.AperFunction,SMDPad,CuDef*%
G36*
G01*
X361606252Y-245662500D02*
X360706248Y-245662500D01*
G75*
G02*
X360456250Y-245412502I0J249998D01*
G01*
X360456250Y-244887498D01*
G75*
G02*
X360706248Y-244637500I249998J0D01*
G01*
X361606252Y-244637500D01*
G75*
G02*
X361856250Y-244887498I0J-249998D01*
G01*
X361856250Y-245412502D01*
G75*
G02*
X361606252Y-245662500I-249998J0D01*
G01*
G37*
%TD.AperFunction*%
%TO.P,R2,1*%
%TO.N,Net-(R2-Pad1)*%
%TA.AperFunction,SMDPad,CuDef*%
G36*
G01*
X361606252Y-247487500D02*
X360706248Y-247487500D01*
G75*
G02*
X360456250Y-247237502I0J249998D01*
G01*
X360456250Y-246712498D01*
G75*
G02*
X360706248Y-246462500I249998J0D01*
G01*
X361606252Y-246462500D01*
G75*
G02*
X361856250Y-246712498I0J-249998D01*
G01*
X361856250Y-247237502D01*
G75*
G02*
X361606252Y-247487500I-249998J0D01*
G01*
G37*
%TD.AperFunction*%
%TD*%
%TO.P,R1,2*%
%TO.N,D-*%
%TA.AperFunction,SMDPad,CuDef*%
G36*
G01*
X359225002Y-245662500D02*
X358324998Y-245662500D01*
G75*
G02*
X358075000Y-245412502I0J249998D01*
G01*
X358075000Y-244887498D01*
G75*
G02*
X358324998Y-244637500I249998J0D01*
G01*
X359225002Y-244637500D01*
G75*
G02*
X359475000Y-244887498I0J-249998D01*
G01*
X359475000Y-245412502D01*
G75*
G02*
X359225002Y-245662500I-249998J0D01*
G01*
G37*
%TD.AperFunction*%
%TO.P,R1,1*%
%TO.N,Net-(R1-Pad1)*%
%TA.AperFunction,SMDPad,CuDef*%
G36*
G01*
X359225002Y-247487500D02*
X358324998Y-247487500D01*
G75*
G02*
X358075000Y-247237502I0J249998D01*
G01*
X358075000Y-246712498D01*
G75*
G02*
X358324998Y-246462500I249998J0D01*
G01*
X359225002Y-246462500D01*
G75*
G02*
X359475000Y-246712498I0J-249998D01*
G01*
X359475000Y-247237502D01*
G75*
G02*
X359225002Y-247487500I-249998J0D01*
G01*
G37*
%TD.AperFunction*%
%TD*%
D13*
%TO.P,MX-Z1,2*%
%TO.N,Net-(D20-Pad2)*%
X120808750Y-311626250D03*
%TO.P,MX-Z1,1*%
%TO.N,COL02*%
X114458750Y-314166250D03*
%TD*%
%TO.P,MX-Y1,2*%
%TO.N,Net-(D34-Pad2)*%
X216058750Y-273526250D03*
%TO.P,MX-Y1,1*%
%TO.N,COL06*%
X209708750Y-276066250D03*
%TD*%
%TO.P,MX-X1,2*%
%TO.N,Net-(D26-Pad2)*%
X139858750Y-311626250D03*
%TO.P,MX-X1,1*%
%TO.N,COL03*%
X133508750Y-314166250D03*
%TD*%
%TO.P,MX-WIN1,2*%
%TO.N,Net-(D15-Pad2)*%
X130333750Y-330676250D03*
%TO.P,MX-WIN1,1*%
%TO.N,COL02*%
X123983750Y-333216250D03*
%TD*%
%TO.P,MX-W1,2*%
%TO.N,Net-(D13-Pad2)*%
X139858750Y-273526250D03*
%TO.P,MX-W1,1*%
%TO.N,COL02*%
X133508750Y-276066250D03*
%TD*%
%TO.P,MX-V1,2*%
%TO.N,Net-(D36-Pad2)*%
X177958750Y-311626250D03*
%TO.P,MX-V1,1*%
%TO.N,COL05*%
X171608750Y-314166250D03*
%TD*%
%TO.P,MX-UAR1,2*%
%TO.N,Net-(D90-Pad2)*%
X413702500Y-311626250D03*
%TO.P,MX-UAR1,1*%
%TO.N,COL16*%
X407352500Y-314166250D03*
%TD*%
%TO.P,MX-U1,2*%
%TO.N,Net-(D39-Pad2)*%
X235108750Y-273526250D03*
%TO.P,MX-U1,1*%
%TO.N,COL07*%
X228758750Y-276066250D03*
%TD*%
%TO.P,MX-TIL1,2*%
%TO.N,Net-(D2-Pad2)*%
X92233750Y-254476250D03*
%TO.P,MX-TIL1,1*%
%TO.N,COL00*%
X85883750Y-257016250D03*
%TD*%
%TO.P,MX-TAB1,2*%
%TO.N,Net-(D3-Pad2)*%
X96996250Y-273526250D03*
%TO.P,MX-TAB1,1*%
%TO.N,COL00*%
X90646250Y-276066250D03*
%TD*%
%TO.P,MX-T1,2*%
%TO.N,Net-(D29-Pad2)*%
X197008750Y-273526250D03*
%TO.P,MX-T1,1*%
%TO.N,COL05*%
X190658750Y-276066250D03*
%TD*%
%TO.P,MX-SPA1,2*%
%TO.N,Net-(D42-Pad2)*%
X218440000Y-330676250D03*
%TO.P,MX-SPA1,1*%
%TO.N,COL07*%
X212090000Y-333216250D03*
%TD*%
%TO.P,MX-S1,2*%
%TO.N,Net-(D19-Pad2)*%
X139858750Y-292576250D03*
%TO.P,MX-S1,1*%
%TO.N,COL03*%
X133508750Y-295116250D03*
%TD*%
%TO.P,MX-RSH1,2*%
%TO.N,Net-(D75-Pad2)*%
X339883750Y-311626250D03*
%TO.P,MX-RSH1,1*%
%TO.N,COL13*%
X333533750Y-314166250D03*
%TD*%
%TO.P,MX-RBR1,2*%
%TO.N,Net-(D67-Pad2)*%
X330358750Y-273526250D03*
%TO.P,MX-RBR1,1*%
%TO.N,COL12*%
X324008750Y-276066250D03*
%TD*%
%TO.P,MX-RAR1,2*%
%TO.N,Net-(D96-Pad2)*%
X432752500Y-330676250D03*
%TO.P,MX-RAR1,1*%
%TO.N,COL17*%
X426402500Y-333216250D03*
%TD*%
%TO.P,MX-R1,2*%
%TO.N,Net-(D24-Pad2)*%
X177958750Y-273526250D03*
%TO.P,MX-R1,1*%
%TO.N,COL04*%
X171608750Y-276066250D03*
%TD*%
%TO.P,MX-QUO1,2*%
%TO.N,Net-(D68-Pad2)*%
X311308750Y-292576250D03*
%TO.P,MX-QUO1,1*%
%TO.N,COL12*%
X304958750Y-295116250D03*
%TD*%
%TO.P,MX-QUE1,2*%
%TO.N,Net-(D69-Pad2)*%
X292258750Y-311626250D03*
%TO.P,MX-QUE1,1*%
%TO.N,COL11*%
X285908750Y-314166250D03*
%TD*%
%TO.P,MX-Q1,2*%
%TO.N,Net-(D9-Pad2)*%
X120808750Y-273526250D03*
%TO.P,MX-Q1,1*%
%TO.N,COL01*%
X114458750Y-276066250D03*
%TD*%
%TO.P,MX-PRT1,2*%
%TO.N,Net-(D64-Pad2)*%
X316071250Y-330676250D03*
%TO.P,MX-PRT1,1*%
%TO.N,COL12*%
X309721250Y-333216250D03*
%TD*%
%TO.P,MX-PLU1,2*%
%TO.N,Net-(D66-Pad2)*%
X320833750Y-254476250D03*
%TO.P,MX-PLU1,1*%
%TO.N,COL12*%
X314483750Y-257016250D03*
%TD*%
%TO.P,MX-P1,2*%
%TO.N,Net-(D55-Pad2)*%
X292258750Y-273526250D03*
%TO.P,MX-P1,1*%
%TO.N,COL10*%
X285908750Y-276066250D03*
%TD*%
%TO.P,MX-O1,2*%
%TO.N,Net-(D50-Pad2)*%
X273208750Y-273526250D03*
%TO.P,MX-O1,1*%
%TO.N,COL09*%
X266858750Y-276066250D03*
%TD*%
%TO.P,MX-NUM1,2*%
%TO.N,Net-(D80-Pad2)*%
X375602500Y-292576250D03*
%TO.P,MX-NUM1,1*%
%TO.N,COL14*%
X369252500Y-295116250D03*
%TD*%
%TO.P,MX-NSL1,2*%
%TO.N,Net-(D92-Pad2)*%
X432752500Y-235426250D03*
%TO.P,MX-NSL1,1*%
%TO.N,COL17*%
X426402500Y-237966250D03*
%TD*%
%TO.P,MX-NPL1,2*%
%TO.N,Net-(D95-Pad2)*%
X432752500Y-292576250D03*
%TO.P,MX-NPL1,1*%
%TO.N,COL17*%
X426402500Y-295116250D03*
%TD*%
%TO.P,MX-NDE1,2*%
%TO.N,Net-(D89-Pad2)*%
X413702500Y-292576250D03*
%TO.P,MX-NDE1,1*%
%TO.N,COL16*%
X407352500Y-295116250D03*
%TD*%
%TO.P,MX-NDA1,2*%
%TO.N,Net-(D94-Pad2)*%
X432752500Y-273526250D03*
%TO.P,MX-NDA1,1*%
%TO.N,COL17*%
X426402500Y-276066250D03*
%TD*%
%TO.P,MX-NAS1,2*%
%TO.N,Net-(D93-Pad2)*%
X432752500Y-254476250D03*
%TO.P,MX-NAS1,1*%
%TO.N,COL17*%
X426402500Y-257016250D03*
%TD*%
%TO.P,MX-N10,2*%
%TO.N,Net-(D47-Pad2)*%
X216058750Y-311626250D03*
%TO.P,MX-N10,1*%
%TO.N,COL07*%
X209708750Y-314166250D03*
%TD*%
%TO.P,MX-N9,2*%
%TO.N,Net-(D86-Pad2)*%
X413702500Y-235426250D03*
%TO.P,MX-N9,1*%
%TO.N,COL16*%
X407352500Y-237966250D03*
%TD*%
%TO.P,MX-N8,2*%
%TO.N,Net-(D81-Pad2)*%
X394652500Y-235426250D03*
%TO.P,MX-N8,1*%
%TO.N,COL15*%
X388302500Y-237966250D03*
%TD*%
%TO.P,MX-N7,2*%
%TO.N,Net-(D77-Pad2)*%
X375602500Y-235426250D03*
%TO.P,MX-N7,1*%
%TO.N,COL14*%
X369252500Y-237966250D03*
%TD*%
%TO.P,MX-N6,2*%
%TO.N,Net-(D87-Pad2)*%
X413702500Y-254476250D03*
%TO.P,MX-N6,1*%
%TO.N,COL16*%
X407352500Y-257016250D03*
%TD*%
%TO.P,MX-N5,2*%
%TO.N,Net-(D82-Pad2)*%
X394652500Y-254476250D03*
%TO.P,MX-N5,1*%
%TO.N,COL15*%
X388302500Y-257016250D03*
%TD*%
%TO.P,MX-N4,2*%
%TO.N,Net-(D78-Pad2)*%
X375602500Y-254476250D03*
%TO.P,MX-N4,1*%
%TO.N,COL14*%
X369252500Y-257016250D03*
%TD*%
%TO.P,MX-N3,2*%
%TO.N,Net-(D88-Pad2)*%
X413702500Y-273526250D03*
%TO.P,MX-N3,1*%
%TO.N,COL16*%
X407352500Y-276066250D03*
%TD*%
%TO.P,MX-N2,2*%
%TO.N,Net-(D83-Pad2)*%
X394652500Y-273526250D03*
%TO.P,MX-N2,1*%
%TO.N,COL15*%
X388302500Y-276066250D03*
%TD*%
%TO.P,MX-N1,2*%
%TO.N,Net-(D79-Pad2)*%
X375602500Y-273526250D03*
%TO.P,MX-N1,1*%
%TO.N,COL14*%
X369252500Y-276066250D03*
%TD*%
%TO.P,MX-N0,2*%
%TO.N,Net-(D84-Pad2)*%
X394652500Y-292576250D03*
%TO.P,MX-N0,1*%
%TO.N,COL15*%
X388302500Y-295116250D03*
%TD*%
%TO.P,MX-M1,2*%
%TO.N,Net-(D52-Pad2)*%
X235108750Y-311626250D03*
%TO.P,MX-M1,1*%
%TO.N,COL08*%
X228758750Y-314166250D03*
%TD*%
%TO.P,MX-LSH1,2*%
%TO.N,Net-(D5-Pad2)*%
X96996250Y-311626250D03*
%TO.P,MX-LSH1,1*%
%TO.N,COL00*%
X90646250Y-314166250D03*
%TD*%
%TO.P,MX-LFN1,2*%
%TO.N,Net-(D10-Pad2)*%
X111283750Y-330676250D03*
%TO.P,MX-LFN1,1*%
%TO.N,COL01*%
X104933750Y-333216250D03*
%TD*%
%TO.P,MX-LES1,2*%
%TO.N,Net-(D57-Pad2)*%
X254158750Y-311626250D03*
%TO.P,MX-LES1,1*%
%TO.N,COL09*%
X247808750Y-314166250D03*
%TD*%
%TO.P,MX-LCT1,2*%
%TO.N,Net-(D6-Pad2)*%
X92233750Y-330676250D03*
%TO.P,MX-LCT1,1*%
%TO.N,COL00*%
X85883750Y-333216250D03*
%TD*%
%TO.P,MX-LBR1,2*%
%TO.N,Net-(D61-Pad2)*%
X311308750Y-273526250D03*
%TO.P,MX-LBR1,1*%
%TO.N,COL11*%
X304958750Y-276066250D03*
%TD*%
%TO.P,MX-LAR1,2*%
%TO.N,Net-(D85-Pad2)*%
X394652500Y-330676250D03*
%TO.P,MX-LAR1,1*%
%TO.N,COL15*%
X388302500Y-333216250D03*
%TD*%
%TO.P,MX-LAL1,2*%
%TO.N,Net-(D21-Pad2)*%
X149383750Y-330676250D03*
%TO.P,MX-LAL1,1*%
%TO.N,COL03*%
X143033750Y-333216250D03*
%TD*%
%TO.P,MX-L1,2*%
%TO.N,Net-(D56-Pad2)*%
X273208750Y-292576250D03*
%TO.P,MX-L1,1*%
%TO.N,COL10*%
X266858750Y-295116250D03*
%TD*%
%TO.P,MX-K1,2*%
%TO.N,Net-(D51-Pad2)*%
X254158750Y-292576250D03*
%TO.P,MX-K1,1*%
%TO.N,COL09*%
X247808750Y-295116250D03*
%TD*%
%TO.P,MX-J1,2*%
%TO.N,Net-(D46-Pad2)*%
X235108750Y-292576250D03*
%TO.P,MX-J1,1*%
%TO.N,COL08*%
X228758750Y-295116250D03*
%TD*%
%TO.P,MX-I1,2*%
%TO.N,Net-(D45-Pad2)*%
X254158750Y-273526250D03*
%TO.P,MX-I1,1*%
%TO.N,COL08*%
X247808750Y-276066250D03*
%TD*%
%TO.P,MX-H1,2*%
%TO.N,Net-(D40-Pad2)*%
X216058750Y-292576250D03*
%TO.P,MX-H1,1*%
%TO.N,COL07*%
X209708750Y-295116250D03*
%TD*%
%TO.P,MX-GRE1,2*%
%TO.N,Net-(D63-Pad2)*%
X273208750Y-311626250D03*
%TO.P,MX-GRE1,1*%
%TO.N,COL10*%
X266858750Y-314166250D03*
%TD*%
%TO.P,MX-G1,2*%
%TO.N,Net-(D35-Pad2)*%
X197008750Y-292576250D03*
%TO.P,MX-G1,1*%
%TO.N,COL06*%
X190658750Y-295116250D03*
%TD*%
%TO.P,MX-FSL1,2*%
%TO.N,Net-(D73-Pad2)*%
X349408750Y-273526250D03*
%TO.P,MX-FSL1,1*%
%TO.N,COL13*%
X343058750Y-276066250D03*
%TD*%
%TO.P,MX-F12,2*%
%TO.N,Net-(D65-Pad2)*%
X320833750Y-235426250D03*
%TO.P,MX-F12,1*%
%TO.N,COL12*%
X314483750Y-237966250D03*
%TD*%
%TO.P,MX-F11,2*%
%TO.N,Net-(D59-Pad2)*%
X301783750Y-235426250D03*
%TO.P,MX-F11,1*%
%TO.N,COL11*%
X295433750Y-237966250D03*
%TD*%
%TO.P,MX-F10,2*%
%TO.N,Net-(D53-Pad2)*%
X282733750Y-235426250D03*
%TO.P,MX-F10,1*%
%TO.N,COL10*%
X276383750Y-237966250D03*
%TD*%
%TO.P,MX-F9,2*%
%TO.N,Net-(D48-Pad2)*%
X263683750Y-235426250D03*
%TO.P,MX-F9,1*%
%TO.N,COL09*%
X257333750Y-237966250D03*
%TD*%
%TO.P,MX-F8,2*%
%TO.N,Net-(D43-Pad2)*%
X244633750Y-235426250D03*
%TO.P,MX-F8,1*%
%TO.N,COL08*%
X238283750Y-237966250D03*
%TD*%
%TO.P,MX-F7,2*%
%TO.N,Net-(D37-Pad2)*%
X225583750Y-235426250D03*
%TO.P,MX-F7,1*%
%TO.N,COL07*%
X219233750Y-237966250D03*
%TD*%
%TO.P,MX-F6,2*%
%TO.N,Net-(D32-Pad2)*%
X206533750Y-235426250D03*
%TO.P,MX-F6,1*%
%TO.N,COL06*%
X200183750Y-237966250D03*
%TD*%
%TO.P,MX-F5,2*%
%TO.N,Net-(D27-Pad2)*%
X187483750Y-235426250D03*
%TO.P,MX-F5,1*%
%TO.N,COL05*%
X181133750Y-237966250D03*
%TD*%
%TO.P,MX-F4,2*%
%TO.N,Net-(D22-Pad2)*%
X168433750Y-235426250D03*
%TO.P,MX-F4,1*%
%TO.N,COL04*%
X162083750Y-237966250D03*
%TD*%
%TO.P,MX-F3,2*%
%TO.N,Net-(D16-Pad2)*%
X149383750Y-235426250D03*
%TO.P,MX-F3,1*%
%TO.N,COL03*%
X143033750Y-237966250D03*
%TD*%
%TO.P,MX-F2,2*%
%TO.N,Net-(D11-Pad2)*%
X130333750Y-235426250D03*
%TO.P,MX-F2,1*%
%TO.N,COL02*%
X123983750Y-237966250D03*
%TD*%
%TO.P,MX-F1,2*%
%TO.N,Net-(D7-Pad2)*%
X111283750Y-235426250D03*
%TO.P,MX-F1,1*%
%TO.N,COL01*%
X104933750Y-237966250D03*
%TD*%
%TO.P,MX-ESC1,2*%
%TO.N,Net-(D1-Pad2)*%
X92233750Y-235426250D03*
%TO.P,MX-ESC1,1*%
%TO.N,COL00*%
X85883750Y-237966250D03*
%TD*%
%TO.P,MX-ENT1,2*%
%TO.N,Net-(D74-Pad2)*%
X339883750Y-292576250D03*
%TO.P,MX-ENT1,1*%
%TO.N,COL13*%
X333533750Y-295116250D03*
%TD*%
%TO.P,MX-E1,2*%
%TO.N,Net-(D18-Pad2)*%
X158908750Y-273526250D03*
%TO.P,MX-E1,1*%
%TO.N,COL03*%
X152558750Y-276066250D03*
%TD*%
%TO.P,MX-DEL1,2*%
%TO.N,Net-(D71-Pad2)*%
X344646250Y-235426250D03*
%TO.P,MX-DEL1,1*%
%TO.N,COL13*%
X338296250Y-237966250D03*
%TD*%
%TO.P,MX-DAS1,2*%
%TO.N,Net-(D60-Pad2)*%
X301783750Y-254476250D03*
%TO.P,MX-DAS1,1*%
%TO.N,COL11*%
X295433750Y-257016250D03*
%TD*%
%TO.P,MX-DAR1,2*%
%TO.N,Net-(D91-Pad2)*%
X413702500Y-330676250D03*
%TO.P,MX-DAR1,1*%
%TO.N,COL16*%
X407352500Y-333216250D03*
%TD*%
%TO.P,MX-D1,2*%
%TO.N,Net-(D25-Pad2)*%
X158908750Y-292576250D03*
%TO.P,MX-D1,1*%
%TO.N,COL04*%
X152558750Y-295116250D03*
%TD*%
%TO.P,MX-CUR1,2*%
%TO.N,Net-(D70-Pad2)*%
X311308750Y-311626250D03*
%TO.P,MX-CUR1,1*%
%TO.N,COL12*%
X304958750Y-314166250D03*
%TD*%
%TO.P,MX-COL1,2*%
%TO.N,Net-(D62-Pad2)*%
X292258750Y-292576250D03*
%TO.P,MX-COL1,1*%
%TO.N,COL11*%
X285908750Y-295116250D03*
%TD*%
%TO.P,MX-CAP1,2*%
%TO.N,Net-(D4-Pad2)*%
X96996250Y-292576250D03*
%TO.P,MX-CAP1,1*%
%TO.N,COL00*%
X90646250Y-295116250D03*
%TD*%
%TO.P,MX-C1,2*%
%TO.N,Net-(D31-Pad2)*%
X158908750Y-311626250D03*
%TO.P,MX-C1,1*%
%TO.N,COL04*%
X152558750Y-314166250D03*
%TD*%
%TO.P,MX-BAC1,2*%
%TO.N,Net-(D72-Pad2)*%
X344646250Y-254476250D03*
%TO.P,MX-BAC1,1*%
%TO.N,COL13*%
X338296250Y-257016250D03*
%TD*%
%TO.P,MX-B1,2*%
%TO.N,Net-(D41-Pad2)*%
X197008750Y-311626250D03*
%TO.P,MX-B1,1*%
%TO.N,COL06*%
X190658750Y-314166250D03*
%TD*%
%TO.P,MX-A1,2*%
%TO.N,Net-(D14-Pad2)*%
X120808750Y-292576250D03*
%TO.P,MX-A1,1*%
%TO.N,COL02*%
X114458750Y-295116250D03*
%TD*%
%TO.P,MX-9,2*%
%TO.N,Net-(D49-Pad2)*%
X263683750Y-254476250D03*
%TO.P,MX-9,1*%
%TO.N,COL09*%
X257333750Y-257016250D03*
%TD*%
%TO.P,MX-8,2*%
%TO.N,Net-(D44-Pad2)*%
X244633750Y-254476250D03*
%TO.P,MX-8,1*%
%TO.N,COL08*%
X238283750Y-257016250D03*
%TD*%
%TO.P,MX-7,2*%
%TO.N,Net-(D38-Pad2)*%
X225583750Y-254476250D03*
%TO.P,MX-7,1*%
%TO.N,COL07*%
X219233750Y-257016250D03*
%TD*%
%TO.P,MX-6,2*%
%TO.N,Net-(D33-Pad2)*%
X206533750Y-254476250D03*
%TO.P,MX-6,1*%
%TO.N,COL06*%
X200183750Y-257016250D03*
%TD*%
%TO.P,MX-5,2*%
%TO.N,Net-(D28-Pad2)*%
X187483750Y-254476250D03*
%TO.P,MX-5,1*%
%TO.N,COL05*%
X181133750Y-257016250D03*
%TD*%
%TO.P,MX-4,2*%
%TO.N,Net-(D23-Pad2)*%
X168433750Y-254476250D03*
%TO.P,MX-4,1*%
%TO.N,COL04*%
X162083750Y-257016250D03*
%TD*%
%TO.P,MX-3,2*%
%TO.N,Net-(D17-Pad2)*%
X149383750Y-254476250D03*
%TO.P,MX-3,1*%
%TO.N,COL03*%
X143033750Y-257016250D03*
%TD*%
%TO.P,MX-2,2*%
%TO.N,Net-(D12-Pad2)*%
X130333750Y-254476250D03*
%TO.P,MX-2,1*%
%TO.N,COL02*%
X123983750Y-257016250D03*
%TD*%
%TO.P,MX-1,2*%
%TO.N,Net-(D8-Pad2)*%
X111283750Y-254476250D03*
%TO.P,MX-1,1*%
%TO.N,COL01*%
X104933750Y-257016250D03*
%TD*%
%TO.P,MX-0,2*%
%TO.N,Net-(D54-Pad2)*%
X282733750Y-254476250D03*
%TO.P,MX-0,1*%
%TO.N,COL10*%
X276383750Y-257016250D03*
%TD*%
%TO.P,F1,2*%
%TO.N,VCC*%
%TA.AperFunction,SMDPad,CuDef*%
G36*
G01*
X358130000Y-250843750D02*
X356880000Y-250843750D01*
G75*
G02*
X356630000Y-250593750I0J250000D01*
G01*
X356630000Y-249843750D01*
G75*
G02*
X356880000Y-249593750I250000J0D01*
G01*
X358130000Y-249593750D01*
G75*
G02*
X358380000Y-249843750I0J-250000D01*
G01*
X358380000Y-250593750D01*
G75*
G02*
X358130000Y-250843750I-250000J0D01*
G01*
G37*
%TD.AperFunction*%
%TO.P,F1,1*%
%TO.N,+5V*%
%TA.AperFunction,SMDPad,CuDef*%
G36*
G01*
X358130000Y-253643750D02*
X356880000Y-253643750D01*
G75*
G02*
X356630000Y-253393750I0J250000D01*
G01*
X356630000Y-252643750D01*
G75*
G02*
X356880000Y-252393750I250000J0D01*
G01*
X358130000Y-252393750D01*
G75*
G02*
X358380000Y-252643750I0J-250000D01*
G01*
X358380000Y-253393750D01*
G75*
G02*
X358130000Y-253643750I-250000J0D01*
G01*
G37*
%TD.AperFunction*%
%TD*%
D14*
%TO.P,D96,2*%
%TO.N,Net-(D96-Pad2)*%
X438150000Y-334106250D03*
%TO.P,D96,1*%
%TO.N,ROW05*%
X438150000Y-337406250D03*
%TD*%
%TO.P,D95,2*%
%TO.N,Net-(D95-Pad2)*%
X438150000Y-296006250D03*
%TO.P,D95,1*%
%TO.N,ROW03*%
X438150000Y-299306250D03*
%TD*%
%TO.P,D94,2*%
%TO.N,Net-(D94-Pad2)*%
X438150000Y-276956250D03*
%TO.P,D94,1*%
%TO.N,ROW02*%
X438150000Y-280256250D03*
%TD*%
%TO.P,D93,2*%
%TO.N,Net-(D93-Pad2)*%
X438150000Y-257906250D03*
%TO.P,D93,1*%
%TO.N,ROW01*%
X438150000Y-261206250D03*
%TD*%
%TO.P,D92,2*%
%TO.N,Net-(D92-Pad2)*%
X438150000Y-238856250D03*
%TO.P,D92,1*%
%TO.N,ROW00*%
X438150000Y-242156250D03*
%TD*%
%TO.P,D91,2*%
%TO.N,Net-(D91-Pad2)*%
X419100000Y-334106250D03*
%TO.P,D91,1*%
%TO.N,ROW05*%
X419100000Y-337406250D03*
%TD*%
%TO.P,D90,2*%
%TO.N,Net-(D90-Pad2)*%
X419100000Y-315056250D03*
%TO.P,D90,1*%
%TO.N,ROW04*%
X419100000Y-318356250D03*
%TD*%
%TO.P,D89,2*%
%TO.N,Net-(D89-Pad2)*%
X419100000Y-296006250D03*
%TO.P,D89,1*%
%TO.N,ROW03*%
X419100000Y-299306250D03*
%TD*%
%TO.P,D88,2*%
%TO.N,Net-(D88-Pad2)*%
X419100000Y-276956250D03*
%TO.P,D88,1*%
%TO.N,ROW02*%
X419100000Y-280256250D03*
%TD*%
%TO.P,D87,2*%
%TO.N,Net-(D87-Pad2)*%
X419100000Y-257906250D03*
%TO.P,D87,1*%
%TO.N,ROW01*%
X419100000Y-261206250D03*
%TD*%
%TO.P,D86,2*%
%TO.N,Net-(D86-Pad2)*%
X419100000Y-238856250D03*
%TO.P,D86,1*%
%TO.N,ROW00*%
X419100000Y-242156250D03*
%TD*%
%TO.P,D85,2*%
%TO.N,Net-(D85-Pad2)*%
X400050000Y-334106250D03*
%TO.P,D85,1*%
%TO.N,ROW05*%
X400050000Y-337406250D03*
%TD*%
%TO.P,D84,2*%
%TO.N,Net-(D84-Pad2)*%
X400050000Y-296006250D03*
%TO.P,D84,1*%
%TO.N,ROW03*%
X400050000Y-299306250D03*
%TD*%
%TO.P,D83,2*%
%TO.N,Net-(D83-Pad2)*%
X400050000Y-276956250D03*
%TO.P,D83,1*%
%TO.N,ROW02*%
X400050000Y-280256250D03*
%TD*%
%TO.P,D82,2*%
%TO.N,Net-(D82-Pad2)*%
X400050000Y-257906250D03*
%TO.P,D82,1*%
%TO.N,ROW01*%
X400050000Y-261206250D03*
%TD*%
%TO.P,D81,2*%
%TO.N,Net-(D81-Pad2)*%
X400050000Y-238856250D03*
%TO.P,D81,1*%
%TO.N,ROW00*%
X400050000Y-242156250D03*
%TD*%
%TO.P,D80,2*%
%TO.N,Net-(D80-Pad2)*%
X381000000Y-296006250D03*
%TO.P,D80,1*%
%TO.N,ROW03*%
X381000000Y-299306250D03*
%TD*%
%TO.P,D79,2*%
%TO.N,Net-(D79-Pad2)*%
X381000000Y-276956250D03*
%TO.P,D79,1*%
%TO.N,ROW02*%
X381000000Y-280256250D03*
%TD*%
%TO.P,D78,2*%
%TO.N,Net-(D78-Pad2)*%
X381000000Y-257906250D03*
%TO.P,D78,1*%
%TO.N,ROW01*%
X381000000Y-261206250D03*
%TD*%
%TO.P,D77,2*%
%TO.N,Net-(D77-Pad2)*%
X381000000Y-238856250D03*
%TO.P,D77,1*%
%TO.N,ROW00*%
X381000000Y-242156250D03*
%TD*%
%TO.P,D76,2*%
%TO.N,Net-(D76-Pad2)*%
X350043750Y-334106250D03*
%TO.P,D76,1*%
%TO.N,ROW05*%
X350043750Y-337406250D03*
%TD*%
%TO.P,D75,2*%
%TO.N,Net-(D75-Pad2)*%
X345281250Y-315056250D03*
%TO.P,D75,1*%
%TO.N,ROW04*%
X345281250Y-318356250D03*
%TD*%
%TO.P,D74,2*%
%TO.N,Net-(D74-Pad2)*%
X345281250Y-296006250D03*
%TO.P,D74,1*%
%TO.N,ROW03*%
X345281250Y-299306250D03*
%TD*%
%TO.P,D73,2*%
%TO.N,Net-(D73-Pad2)*%
X354806250Y-276956250D03*
%TO.P,D73,1*%
%TO.N,ROW02*%
X354806250Y-280256250D03*
%TD*%
%TO.P,D72,2*%
%TO.N,Net-(D72-Pad2)*%
X350043750Y-257906250D03*
%TO.P,D72,1*%
%TO.N,ROW01*%
X350043750Y-261206250D03*
%TD*%
%TO.P,D71,2*%
%TO.N,Net-(D71-Pad2)*%
X350043750Y-238856250D03*
%TO.P,D71,1*%
%TO.N,ROW00*%
X350043750Y-242156250D03*
%TD*%
%TO.P,D70,2*%
%TO.N,Net-(D70-Pad2)*%
X316706250Y-315056250D03*
%TO.P,D70,1*%
%TO.N,ROW04*%
X316706250Y-318356250D03*
%TD*%
%TO.P,D69,2*%
%TO.N,Net-(D69-Pad2)*%
X297656250Y-315056250D03*
%TO.P,D69,1*%
%TO.N,ROW04*%
X297656250Y-318356250D03*
%TD*%
%TO.P,D68,2*%
%TO.N,Net-(D68-Pad2)*%
X316706250Y-296006250D03*
%TO.P,D68,1*%
%TO.N,ROW03*%
X316706250Y-299306250D03*
%TD*%
%TO.P,D67,2*%
%TO.N,Net-(D67-Pad2)*%
X335756250Y-276956250D03*
%TO.P,D67,1*%
%TO.N,ROW02*%
X335756250Y-280256250D03*
%TD*%
%TO.P,D66,2*%
%TO.N,Net-(D66-Pad2)*%
X326231250Y-257906250D03*
%TO.P,D66,1*%
%TO.N,ROW01*%
X326231250Y-261206250D03*
%TD*%
%TO.P,D65,2*%
%TO.N,Net-(D65-Pad2)*%
X326231250Y-238856250D03*
%TO.P,D65,1*%
%TO.N,ROW00*%
X326231250Y-242156250D03*
%TD*%
%TO.P,D64,2*%
%TO.N,Net-(D64-Pad2)*%
X321468750Y-334106250D03*
%TO.P,D64,1*%
%TO.N,ROW05*%
X321468750Y-337406250D03*
%TD*%
%TO.P,D63,2*%
%TO.N,Net-(D63-Pad2)*%
X278606250Y-315056250D03*
%TO.P,D63,1*%
%TO.N,ROW04*%
X278606250Y-318356250D03*
%TD*%
%TO.P,D62,2*%
%TO.N,Net-(D62-Pad2)*%
X297656250Y-296006250D03*
%TO.P,D62,1*%
%TO.N,ROW03*%
X297656250Y-299306250D03*
%TD*%
%TO.P,D61,2*%
%TO.N,Net-(D61-Pad2)*%
X316706250Y-276956250D03*
%TO.P,D61,1*%
%TO.N,ROW02*%
X316706250Y-280256250D03*
%TD*%
%TO.P,D60,2*%
%TO.N,Net-(D60-Pad2)*%
X307181250Y-257906250D03*
%TO.P,D60,1*%
%TO.N,ROW01*%
X307181250Y-261206250D03*
%TD*%
%TO.P,D59,2*%
%TO.N,Net-(D59-Pad2)*%
X307181250Y-238856250D03*
%TO.P,D59,1*%
%TO.N,ROW00*%
X307181250Y-242156250D03*
%TD*%
%TO.P,D58,2*%
%TO.N,Net-(D58-Pad2)*%
X295275000Y-334106250D03*
%TO.P,D58,1*%
%TO.N,ROW05*%
X295275000Y-337406250D03*
%TD*%
%TO.P,D57,2*%
%TO.N,Net-(D57-Pad2)*%
X259556250Y-315056250D03*
%TO.P,D57,1*%
%TO.N,ROW04*%
X259556250Y-318356250D03*
%TD*%
%TO.P,D56,2*%
%TO.N,Net-(D56-Pad2)*%
X278606250Y-296006250D03*
%TO.P,D56,1*%
%TO.N,ROW03*%
X278606250Y-299306250D03*
%TD*%
%TO.P,D55,2*%
%TO.N,Net-(D55-Pad2)*%
X297656250Y-276956250D03*
%TO.P,D55,1*%
%TO.N,ROW02*%
X297656250Y-280256250D03*
%TD*%
%TO.P,D54,2*%
%TO.N,Net-(D54-Pad2)*%
X288131250Y-257906250D03*
%TO.P,D54,1*%
%TO.N,ROW01*%
X288131250Y-261206250D03*
%TD*%
%TO.P,D53,2*%
%TO.N,Net-(D53-Pad2)*%
X288131250Y-238856250D03*
%TO.P,D53,1*%
%TO.N,ROW00*%
X288131250Y-242156250D03*
%TD*%
%TO.P,D52,2*%
%TO.N,Net-(D52-Pad2)*%
X240506250Y-315056250D03*
%TO.P,D52,1*%
%TO.N,ROW04*%
X240506250Y-318356250D03*
%TD*%
%TO.P,D51,2*%
%TO.N,Net-(D51-Pad2)*%
X259556250Y-296006250D03*
%TO.P,D51,1*%
%TO.N,ROW03*%
X259556250Y-299306250D03*
%TD*%
%TO.P,D50,2*%
%TO.N,Net-(D50-Pad2)*%
X278606250Y-276956250D03*
%TO.P,D50,1*%
%TO.N,ROW02*%
X278606250Y-280256250D03*
%TD*%
%TO.P,D49,2*%
%TO.N,Net-(D49-Pad2)*%
X269081250Y-257906250D03*
%TO.P,D49,1*%
%TO.N,ROW01*%
X269081250Y-261206250D03*
%TD*%
%TO.P,D48,2*%
%TO.N,Net-(D48-Pad2)*%
X269081250Y-238856250D03*
%TO.P,D48,1*%
%TO.N,ROW00*%
X269081250Y-242156250D03*
%TD*%
%TO.P,D47,2*%
%TO.N,Net-(D47-Pad2)*%
X221456250Y-315056250D03*
%TO.P,D47,1*%
%TO.N,ROW04*%
X221456250Y-318356250D03*
%TD*%
%TO.P,D46,2*%
%TO.N,Net-(D46-Pad2)*%
X240506250Y-296006250D03*
%TO.P,D46,1*%
%TO.N,ROW03*%
X240506250Y-299306250D03*
%TD*%
%TO.P,D45,2*%
%TO.N,Net-(D45-Pad2)*%
X259556250Y-276956250D03*
%TO.P,D45,1*%
%TO.N,ROW02*%
X259556250Y-280256250D03*
%TD*%
%TO.P,D44,2*%
%TO.N,Net-(D44-Pad2)*%
X250031250Y-257906250D03*
%TO.P,D44,1*%
%TO.N,ROW01*%
X250031250Y-261206250D03*
%TD*%
%TO.P,D43,2*%
%TO.N,Net-(D43-Pad2)*%
X250031250Y-238856250D03*
%TO.P,D43,1*%
%TO.N,ROW00*%
X250031250Y-242156250D03*
%TD*%
%TO.P,D42,2*%
%TO.N,Net-(D42-Pad2)*%
X223837500Y-334106250D03*
%TO.P,D42,1*%
%TO.N,ROW05*%
X223837500Y-337406250D03*
%TD*%
%TO.P,D41,2*%
%TO.N,Net-(D41-Pad2)*%
X202406250Y-315056250D03*
%TO.P,D41,1*%
%TO.N,ROW04*%
X202406250Y-318356250D03*
%TD*%
%TO.P,D40,2*%
%TO.N,Net-(D40-Pad2)*%
X221456250Y-296006250D03*
%TO.P,D40,1*%
%TO.N,ROW03*%
X221456250Y-299306250D03*
%TD*%
%TO.P,D39,2*%
%TO.N,Net-(D39-Pad2)*%
X240506250Y-276956250D03*
%TO.P,D39,1*%
%TO.N,ROW02*%
X240506250Y-280256250D03*
%TD*%
%TO.P,D38,2*%
%TO.N,Net-(D38-Pad2)*%
X230981250Y-257906250D03*
%TO.P,D38,1*%
%TO.N,ROW01*%
X230981250Y-261206250D03*
%TD*%
%TO.P,D37,2*%
%TO.N,Net-(D37-Pad2)*%
X230981250Y-238856250D03*
%TO.P,D37,1*%
%TO.N,ROW00*%
X230981250Y-242156250D03*
%TD*%
%TO.P,D36,2*%
%TO.N,Net-(D36-Pad2)*%
X183356250Y-315056250D03*
%TO.P,D36,1*%
%TO.N,ROW04*%
X183356250Y-318356250D03*
%TD*%
%TO.P,D35,2*%
%TO.N,Net-(D35-Pad2)*%
X202406250Y-296006250D03*
%TO.P,D35,1*%
%TO.N,ROW03*%
X202406250Y-299306250D03*
%TD*%
%TO.P,D34,2*%
%TO.N,Net-(D34-Pad2)*%
X221456250Y-276956250D03*
%TO.P,D34,1*%
%TO.N,ROW02*%
X221456250Y-280256250D03*
%TD*%
%TO.P,D33,2*%
%TO.N,Net-(D33-Pad2)*%
X211931250Y-257906250D03*
%TO.P,D33,1*%
%TO.N,ROW01*%
X211931250Y-261206250D03*
%TD*%
%TO.P,D32,2*%
%TO.N,Net-(D32-Pad2)*%
X211931250Y-238856250D03*
%TO.P,D32,1*%
%TO.N,ROW00*%
X211931250Y-242156250D03*
%TD*%
%TO.P,D31,2*%
%TO.N,Net-(D31-Pad2)*%
X164306250Y-315056250D03*
%TO.P,D31,1*%
%TO.N,ROW04*%
X164306250Y-318356250D03*
%TD*%
%TO.P,D30,2*%
%TO.N,Net-(D30-Pad2)*%
X183356250Y-296006250D03*
%TO.P,D30,1*%
%TO.N,ROW03*%
X183356250Y-299306250D03*
%TD*%
%TO.P,D29,2*%
%TO.N,Net-(D29-Pad2)*%
X202406250Y-276956250D03*
%TO.P,D29,1*%
%TO.N,ROW02*%
X202406250Y-280256250D03*
%TD*%
%TO.P,D28,2*%
%TO.N,Net-(D28-Pad2)*%
X192881250Y-257906250D03*
%TO.P,D28,1*%
%TO.N,ROW01*%
X192881250Y-261206250D03*
%TD*%
%TO.P,D27,2*%
%TO.N,Net-(D27-Pad2)*%
X192881250Y-238856250D03*
%TO.P,D27,1*%
%TO.N,ROW00*%
X192881250Y-242156250D03*
%TD*%
%TO.P,D26,2*%
%TO.N,Net-(D26-Pad2)*%
X145256250Y-315056250D03*
%TO.P,D26,1*%
%TO.N,ROW04*%
X145256250Y-318356250D03*
%TD*%
%TO.P,D25,2*%
%TO.N,Net-(D25-Pad2)*%
X164306250Y-296006250D03*
%TO.P,D25,1*%
%TO.N,ROW03*%
X164306250Y-299306250D03*
%TD*%
%TO.P,D24,2*%
%TO.N,Net-(D24-Pad2)*%
X183356250Y-276956250D03*
%TO.P,D24,1*%
%TO.N,ROW02*%
X183356250Y-280256250D03*
%TD*%
%TO.P,D23,2*%
%TO.N,Net-(D23-Pad2)*%
X173831250Y-257906250D03*
%TO.P,D23,1*%
%TO.N,ROW01*%
X173831250Y-261206250D03*
%TD*%
%TO.P,D22,2*%
%TO.N,Net-(D22-Pad2)*%
X173831250Y-238856250D03*
%TO.P,D22,1*%
%TO.N,ROW00*%
X173831250Y-242156250D03*
%TD*%
%TO.P,D21,2*%
%TO.N,Net-(D21-Pad2)*%
X154781250Y-334106250D03*
%TO.P,D21,1*%
%TO.N,ROW05*%
X154781250Y-337406250D03*
%TD*%
%TO.P,D20,2*%
%TO.N,Net-(D20-Pad2)*%
X126206250Y-315056250D03*
%TO.P,D20,1*%
%TO.N,ROW04*%
X126206250Y-318356250D03*
%TD*%
%TO.P,D19,2*%
%TO.N,Net-(D19-Pad2)*%
X145256250Y-296006250D03*
%TO.P,D19,1*%
%TO.N,ROW03*%
X145256250Y-299306250D03*
%TD*%
%TO.P,D18,2*%
%TO.N,Net-(D18-Pad2)*%
X164306250Y-276956250D03*
%TO.P,D18,1*%
%TO.N,ROW02*%
X164306250Y-280256250D03*
%TD*%
%TO.P,D17,2*%
%TO.N,Net-(D17-Pad2)*%
X154781250Y-257906250D03*
%TO.P,D17,1*%
%TO.N,ROW01*%
X154781250Y-261206250D03*
%TD*%
%TO.P,D16,2*%
%TO.N,Net-(D16-Pad2)*%
X154781250Y-238856250D03*
%TO.P,D16,1*%
%TO.N,ROW00*%
X154781250Y-242156250D03*
%TD*%
%TO.P,D15,2*%
%TO.N,Net-(D15-Pad2)*%
X135731250Y-334106250D03*
%TO.P,D15,1*%
%TO.N,ROW05*%
X135731250Y-337406250D03*
%TD*%
%TO.P,D14,2*%
%TO.N,Net-(D14-Pad2)*%
X126206250Y-296006250D03*
%TO.P,D14,1*%
%TO.N,ROW03*%
X126206250Y-299306250D03*
%TD*%
%TO.P,D13,2*%
%TO.N,Net-(D13-Pad2)*%
X145256250Y-276956250D03*
%TO.P,D13,1*%
%TO.N,ROW02*%
X145256250Y-280256250D03*
%TD*%
%TO.P,D12,2*%
%TO.N,Net-(D12-Pad2)*%
X135731250Y-257906250D03*
%TO.P,D12,1*%
%TO.N,ROW01*%
X135731250Y-261206250D03*
%TD*%
%TO.P,D11,2*%
%TO.N,Net-(D11-Pad2)*%
X135731250Y-238856250D03*
%TO.P,D11,1*%
%TO.N,ROW00*%
X135731250Y-242156250D03*
%TD*%
%TO.P,D10,2*%
%TO.N,Net-(D10-Pad2)*%
X116681250Y-334106250D03*
%TO.P,D10,1*%
%TO.N,ROW05*%
X116681250Y-337406250D03*
%TD*%
%TO.P,D9,2*%
%TO.N,Net-(D9-Pad2)*%
X126206250Y-276956250D03*
%TO.P,D9,1*%
%TO.N,ROW02*%
X126206250Y-280256250D03*
%TD*%
%TO.P,D8,2*%
%TO.N,Net-(D8-Pad2)*%
X116681250Y-257906250D03*
%TO.P,D8,1*%
%TO.N,ROW01*%
X116681250Y-261206250D03*
%TD*%
%TO.P,D7,2*%
%TO.N,Net-(D7-Pad2)*%
X116681250Y-238856250D03*
%TO.P,D7,1*%
%TO.N,ROW00*%
X116681250Y-242156250D03*
%TD*%
%TO.P,D6,2*%
%TO.N,Net-(D6-Pad2)*%
X97631250Y-334106250D03*
%TO.P,D6,1*%
%TO.N,ROW05*%
X97631250Y-337406250D03*
%TD*%
%TO.P,D5,2*%
%TO.N,Net-(D5-Pad2)*%
X102393750Y-315056250D03*
%TO.P,D5,1*%
%TO.N,ROW04*%
X102393750Y-318356250D03*
%TD*%
%TO.P,D4,2*%
%TO.N,Net-(D4-Pad2)*%
X102393750Y-296006250D03*
%TO.P,D4,1*%
%TO.N,ROW03*%
X102393750Y-299306250D03*
%TD*%
%TO.P,D3,2*%
%TO.N,Net-(D3-Pad2)*%
X102393750Y-276956250D03*
%TO.P,D3,1*%
%TO.N,ROW02*%
X102393750Y-280256250D03*
%TD*%
%TO.P,D2,2*%
%TO.N,Net-(D2-Pad2)*%
X97631250Y-257906250D03*
%TO.P,D2,1*%
%TO.N,ROW01*%
X97631250Y-261206250D03*
%TD*%
%TO.P,D1,2*%
%TO.N,Net-(D1-Pad2)*%
X97631250Y-238856250D03*
%TO.P,D1,1*%
%TO.N,ROW00*%
X97631250Y-242156250D03*
%TD*%
%TO.P,C7,2*%
%TO.N,GND*%
%TA.AperFunction,SMDPad,CuDef*%
G36*
G01*
X360281322Y-325520073D02*
X360953073Y-324848322D01*
G75*
G02*
X361306627Y-324848322I176777J-176777D01*
G01*
X361660180Y-325201875D01*
G75*
G02*
X361660180Y-325555429I-176777J-176777D01*
G01*
X360988429Y-326227180D01*
G75*
G02*
X360634875Y-326227180I-176777J176777D01*
G01*
X360281322Y-325873627D01*
G75*
G02*
X360281322Y-325520073I176777J176777D01*
G01*
G37*
%TD.AperFunction*%
%TO.P,C7,1*%
%TO.N,+5V*%
%TA.AperFunction,SMDPad,CuDef*%
G36*
G01*
X358937820Y-324176571D02*
X359609571Y-323504820D01*
G75*
G02*
X359963125Y-323504820I176777J-176777D01*
G01*
X360316678Y-323858373D01*
G75*
G02*
X360316678Y-324211927I-176777J-176777D01*
G01*
X359644927Y-324883678D01*
G75*
G02*
X359291373Y-324883678I-176777J176777D01*
G01*
X358937820Y-324530125D01*
G75*
G02*
X358937820Y-324176571I176777J176777D01*
G01*
G37*
%TD.AperFunction*%
%TD*%
%TO.P,C6,2*%
%TO.N,GND*%
%TA.AperFunction,SMDPad,CuDef*%
G36*
G01*
X361930927Y-314815322D02*
X362602678Y-315487073D01*
G75*
G02*
X362602678Y-315840627I-176777J-176777D01*
G01*
X362249125Y-316194180D01*
G75*
G02*
X361895571Y-316194180I-176777J176777D01*
G01*
X361223820Y-315522429D01*
G75*
G02*
X361223820Y-315168875I176777J176777D01*
G01*
X361577373Y-314815322D01*
G75*
G02*
X361930927Y-314815322I176777J-176777D01*
G01*
G37*
%TD.AperFunction*%
%TO.P,C6,1*%
%TO.N,Net-(C6-Pad1)*%
%TA.AperFunction,SMDPad,CuDef*%
G36*
G01*
X363274429Y-313471820D02*
X363946180Y-314143571D01*
G75*
G02*
X363946180Y-314497125I-176777J-176777D01*
G01*
X363592627Y-314850678D01*
G75*
G02*
X363239073Y-314850678I-176777J176777D01*
G01*
X362567322Y-314178927D01*
G75*
G02*
X362567322Y-313825373I176777J176777D01*
G01*
X362920875Y-313471820D01*
G75*
G02*
X363274429Y-313471820I176777J-176777D01*
G01*
G37*
%TD.AperFunction*%
%TD*%
%TO.P,C5,2*%
%TO.N,GND*%
%TA.AperFunction,SMDPad,CuDef*%
G36*
G01*
X366920678Y-330688927D02*
X366248927Y-331360678D01*
G75*
G02*
X365895373Y-331360678I-176777J176777D01*
G01*
X365541820Y-331007125D01*
G75*
G02*
X365541820Y-330653571I176777J176777D01*
G01*
X366213571Y-329981820D01*
G75*
G02*
X366567125Y-329981820I176777J-176777D01*
G01*
X366920678Y-330335373D01*
G75*
G02*
X366920678Y-330688927I-176777J-176777D01*
G01*
G37*
%TD.AperFunction*%
%TO.P,C5,1*%
%TO.N,+5V*%
%TA.AperFunction,SMDPad,CuDef*%
G36*
G01*
X368264180Y-332032429D02*
X367592429Y-332704180D01*
G75*
G02*
X367238875Y-332704180I-176777J176777D01*
G01*
X366885322Y-332350627D01*
G75*
G02*
X366885322Y-331997073I176777J176777D01*
G01*
X367557073Y-331325322D01*
G75*
G02*
X367910627Y-331325322I176777J-176777D01*
G01*
X368264180Y-331678875D01*
G75*
G02*
X368264180Y-332032429I-176777J-176777D01*
G01*
G37*
%TD.AperFunction*%
%TD*%
%TO.P,C4,2*%
%TO.N,GND*%
%TA.AperFunction,SMDPad,CuDef*%
G36*
G01*
X379023824Y-324719927D02*
X378352073Y-324048176D01*
G75*
G02*
X378352073Y-323694622I176777J176777D01*
G01*
X378705626Y-323341069D01*
G75*
G02*
X379059180Y-323341069I176777J-176777D01*
G01*
X379730931Y-324012820D01*
G75*
G02*
X379730931Y-324366374I-176777J-176777D01*
G01*
X379377378Y-324719927D01*
G75*
G02*
X379023824Y-324719927I-176777J176777D01*
G01*
G37*
%TD.AperFunction*%
%TO.P,C4,1*%
%TO.N,+5V*%
%TA.AperFunction,SMDPad,CuDef*%
G36*
G01*
X377680322Y-326063429D02*
X377008571Y-325391678D01*
G75*
G02*
X377008571Y-325038124I176777J176777D01*
G01*
X377362124Y-324684571D01*
G75*
G02*
X377715678Y-324684571I176777J-176777D01*
G01*
X378387429Y-325356322D01*
G75*
G02*
X378387429Y-325709876I-176777J-176777D01*
G01*
X378033876Y-326063429D01*
G75*
G02*
X377680322Y-326063429I-176777J176777D01*
G01*
G37*
%TD.AperFunction*%
%TD*%
%TO.P,C3,2*%
%TO.N,GND*%
%TA.AperFunction,SMDPad,CuDef*%
G36*
G01*
X377932927Y-311005322D02*
X378604678Y-311677073D01*
G75*
G02*
X378604678Y-312030627I-176777J-176777D01*
G01*
X378251125Y-312384180D01*
G75*
G02*
X377897571Y-312384180I-176777J176777D01*
G01*
X377225820Y-311712429D01*
G75*
G02*
X377225820Y-311358875I176777J176777D01*
G01*
X377579373Y-311005322D01*
G75*
G02*
X377932927Y-311005322I176777J-176777D01*
G01*
G37*
%TD.AperFunction*%
%TO.P,C3,1*%
%TO.N,Net-(C3-Pad1)*%
%TA.AperFunction,SMDPad,CuDef*%
G36*
G01*
X379276429Y-309661820D02*
X379948180Y-310333571D01*
G75*
G02*
X379948180Y-310687125I-176777J-176777D01*
G01*
X379594627Y-311040678D01*
G75*
G02*
X379241073Y-311040678I-176777J176777D01*
G01*
X378569322Y-310368927D01*
G75*
G02*
X378569322Y-310015373I176777J176777D01*
G01*
X378922875Y-309661820D01*
G75*
G02*
X379276429Y-309661820I176777J-176777D01*
G01*
G37*
%TD.AperFunction*%
%TD*%
%TO.P,C2,2*%
%TO.N,GND*%
%TA.AperFunction,SMDPad,CuDef*%
G36*
G01*
X384829073Y-316628678D02*
X384157322Y-315956927D01*
G75*
G02*
X384157322Y-315603373I176777J176777D01*
G01*
X384510875Y-315249820D01*
G75*
G02*
X384864429Y-315249820I176777J-176777D01*
G01*
X385536180Y-315921571D01*
G75*
G02*
X385536180Y-316275125I-176777J-176777D01*
G01*
X385182627Y-316628678D01*
G75*
G02*
X384829073Y-316628678I-176777J176777D01*
G01*
G37*
%TD.AperFunction*%
%TO.P,C2,1*%
%TO.N,Net-(C2-Pad1)*%
%TA.AperFunction,SMDPad,CuDef*%
G36*
G01*
X383485571Y-317972180D02*
X382813820Y-317300429D01*
G75*
G02*
X382813820Y-316946875I176777J176777D01*
G01*
X383167373Y-316593322D01*
G75*
G02*
X383520927Y-316593322I176777J-176777D01*
G01*
X384192678Y-317265073D01*
G75*
G02*
X384192678Y-317618627I-176777J-176777D01*
G01*
X383839125Y-317972180D01*
G75*
G02*
X383485571Y-317972180I-176777J176777D01*
G01*
G37*
%TD.AperFunction*%
%TD*%
%TO.P,C1,2*%
%TO.N,GND*%
%TA.AperFunction,SMDPad,CuDef*%
G36*
G01*
X373743322Y-313201073D02*
X374415073Y-312529322D01*
G75*
G02*
X374768627Y-312529322I176777J-176777D01*
G01*
X375122180Y-312882875D01*
G75*
G02*
X375122180Y-313236429I-176777J-176777D01*
G01*
X374450429Y-313908180D01*
G75*
G02*
X374096875Y-313908180I-176777J176777D01*
G01*
X373743322Y-313554627D01*
G75*
G02*
X373743322Y-313201073I176777J176777D01*
G01*
G37*
%TD.AperFunction*%
%TO.P,C1,1*%
%TO.N,+5V*%
%TA.AperFunction,SMDPad,CuDef*%
G36*
G01*
X372399820Y-311857571D02*
X373071571Y-311185820D01*
G75*
G02*
X373425125Y-311185820I176777J-176777D01*
G01*
X373778678Y-311539373D01*
G75*
G02*
X373778678Y-311892927I-176777J-176777D01*
G01*
X373106927Y-312564678D01*
G75*
G02*
X372753373Y-312564678I-176777J176777D01*
G01*
X372399820Y-312211125D01*
G75*
G02*
X372399820Y-311857571I176777J176777D01*
G01*
G37*
%TD.AperFunction*%
%TD*%
D15*
%TO.N,GND*%
X366649000Y-319659000D03*
X367792000Y-318516000D03*
X364871000Y-323215000D03*
X366395000Y-321622288D03*
%TO.N,ROW00*%
X354330000Y-249936000D03*
X364871000Y-249936000D03*
%TO.N,ROW01*%
X354457000Y-268986000D03*
X365379000Y-268986000D03*
%TO.N,ROW02*%
X354330000Y-288036000D03*
X365379000Y-287909000D03*
%TO.N,ROW03*%
X354584000Y-304800000D03*
X365760000Y-307213000D03*
%TO.N,ROW04*%
X362204000Y-327152000D03*
X356362000Y-325374000D03*
X378841000Y-327152000D03*
%TO.N,ROW05*%
X354203000Y-342900000D03*
X383159000Y-342900000D03*
%TO.N,COL10*%
X354330000Y-339725000D03*
%TO.N,COL01*%
X376555000Y-317500000D03*
%TO.N,COL02*%
X197993000Y-332232000D03*
X356362000Y-332359000D03*
X377698000Y-318770000D03*
%TO.N,COL03*%
X197993000Y-331089000D03*
X356362000Y-331343000D03*
X377698000Y-319786000D03*
%TO.N,COL04*%
X356362000Y-330200000D03*
X378841000Y-330200000D03*
X197993000Y-330073000D03*
%TO.N,COL05*%
X197993000Y-329057000D03*
X378841000Y-331216000D03*
X356362000Y-329057000D03*
%TO.N,COL06*%
X197993000Y-328041000D03*
X378841000Y-332232000D03*
X356362000Y-327914000D03*
%TO.N,COL07*%
X212090000Y-327025000D03*
X378841000Y-333248000D03*
X356362000Y-326644000D03*
%TO.N,COL08*%
X359664000Y-318516000D03*
%TO.N,COL09*%
X354330000Y-340995000D03*
%TO.N,COL13*%
X354330000Y-335915000D03*
%TO.N,COL00*%
X376555000Y-316357000D03*
%TO.N,COL11*%
X354330000Y-338455000D03*
%TO.N,COL12*%
X354330000Y-337185000D03*
%TO.N,COL16*%
X383159000Y-335534000D03*
%TO.N,COL14*%
X365760000Y-308229000D03*
%TO.N,COL17*%
X383159000Y-336804000D03*
%TD*%
D16*
%TO.N,GND*%
X380046310Y-313779641D02*
X379938642Y-313671973D01*
D17*
X382450472Y-313779641D02*
X380046310Y-313779641D01*
D16*
X382696358Y-314025527D02*
X382450472Y-313779641D01*
X382696358Y-311830358D02*
X382696358Y-314025527D01*
X384610080Y-315939249D02*
X382696358Y-314025527D01*
X384846751Y-315939249D02*
X384610080Y-315939249D01*
X377915249Y-311694751D02*
X377915249Y-309662751D01*
X377915249Y-309662751D02*
X378587000Y-308991000D01*
X379857000Y-308991000D02*
X382696358Y-311830358D01*
X378587000Y-308991000D02*
X379857000Y-308991000D01*
X377915249Y-311694751D02*
X377684507Y-311694751D01*
X375829751Y-313549507D02*
X374852129Y-314527129D01*
X377684507Y-311694751D02*
X374852129Y-314527129D01*
X361578766Y-325537751D02*
X363022750Y-324093767D01*
X360970751Y-325537751D02*
X361578766Y-325537751D01*
X366231249Y-329936234D02*
X367548233Y-328619250D01*
X366231249Y-330671249D02*
X366231249Y-329936234D01*
X376677352Y-324030498D02*
X376174936Y-323528082D01*
X379041502Y-324030498D02*
X376677352Y-324030498D01*
X374432751Y-314946507D02*
X374344129Y-315035129D01*
X374344129Y-315035129D02*
X372215138Y-317164120D01*
X374432751Y-313218751D02*
X374432751Y-314946507D01*
X374852129Y-314527129D02*
X374344129Y-315035129D01*
X361913249Y-316054620D02*
X364719806Y-318861177D01*
X361913249Y-315504751D02*
X361913249Y-316054620D01*
X383468821Y-319603179D02*
X379041502Y-324030498D01*
X391673117Y-319603179D02*
X383468821Y-319603179D01*
X369813765Y-334274235D02*
X367167235Y-334274235D01*
X367167235Y-334274235D02*
X365506000Y-332613000D01*
X365506000Y-331396498D02*
X366231249Y-330671249D01*
X365506000Y-332613000D02*
X365506000Y-331396498D01*
X361061000Y-314652502D02*
X361913249Y-315504751D01*
X361061000Y-250444000D02*
X361061000Y-314652502D01*
X362585000Y-248920000D02*
X361061000Y-250444000D01*
X362585000Y-244221000D02*
X362585000Y-248920000D01*
X361645000Y-243281000D02*
X362585000Y-244221000D01*
X361645000Y-237291000D02*
X361645000Y-243281000D01*
X363901517Y-323215000D02*
X364871000Y-323215000D01*
X363022750Y-324093767D02*
X363901517Y-323215000D01*
X371221000Y-318158258D02*
X371221000Y-321622288D01*
X372215138Y-317164120D02*
X371221000Y-318158258D01*
X376174936Y-323528082D02*
X376174936Y-323342936D01*
X374454288Y-321622288D02*
X371221000Y-321622288D01*
X376174936Y-323342936D02*
X374454288Y-321622288D01*
X366395000Y-319913000D02*
X366649000Y-319659000D01*
X366152629Y-320294000D02*
X366395000Y-320294000D01*
X364719806Y-318861177D02*
X366152629Y-320294000D01*
X366395000Y-320294000D02*
X366395000Y-319913000D01*
X366395000Y-321622288D02*
X366395000Y-320294000D01*
X368097842Y-326441842D02*
X364871000Y-323215000D01*
X368097842Y-328259838D02*
X368097842Y-326441842D01*
X367738430Y-328619250D02*
X368097842Y-328259838D01*
X367548233Y-328619250D02*
X367738430Y-328619250D01*
%TO.N,+5V*%
X357505000Y-322072000D02*
X359627249Y-324194249D01*
X361790897Y-324194249D02*
X362457064Y-323528082D01*
X359627249Y-324194249D02*
X361790897Y-324194249D01*
X367574751Y-329724103D02*
X368113918Y-329184936D01*
X367574751Y-332014751D02*
X367574751Y-329724103D01*
X376889483Y-325374000D02*
X375609250Y-324093767D01*
X377698000Y-325374000D02*
X376889483Y-325374000D01*
X373089249Y-315158638D02*
X371649452Y-316598435D01*
X373089249Y-311875249D02*
X373089249Y-315158638D01*
X371866235Y-310652235D02*
X373089249Y-311875249D01*
X371866235Y-310377765D02*
X371866235Y-310652235D01*
X357505000Y-315040483D02*
X357505000Y-314706000D01*
X357505000Y-314706000D02*
X357505000Y-322072000D01*
X365851177Y-317729806D02*
X365851177Y-317539609D01*
X357505000Y-308991000D02*
X357505000Y-308483000D01*
X357505000Y-308483000D02*
X357505000Y-314706000D01*
X357505000Y-304800000D02*
X357505000Y-304546000D01*
X357505000Y-304546000D02*
X357505000Y-308483000D01*
X357505000Y-253018750D02*
X357505000Y-304546000D01*
X363572358Y-321107841D02*
X363022750Y-320558233D01*
X363572358Y-322412788D02*
X363572358Y-321107841D01*
X362457064Y-323528082D02*
X363572358Y-322412788D01*
X373928271Y-322412788D02*
X375609250Y-324093767D01*
X371649452Y-316598435D02*
X369093750Y-319154137D01*
X369093750Y-322262500D02*
X369244038Y-322412788D01*
X369244038Y-322412788D02*
X373928271Y-322412788D01*
X363572358Y-322412788D02*
X369244038Y-322412788D01*
X369244038Y-328054816D02*
X368113918Y-329184936D01*
X369244038Y-322412788D02*
X369244038Y-328054816D01*
X369093750Y-320972379D02*
X369093750Y-321468750D01*
X365851177Y-317729806D02*
X369093750Y-320972379D01*
X369093750Y-321468750D02*
X369093750Y-322262500D01*
X369093750Y-319154137D02*
X369093750Y-321468750D01*
D17*
%TO.N,Net-(C2-Pad1)*%
X381494277Y-315369029D02*
X381494277Y-315227608D01*
X381494277Y-315273779D02*
X381494277Y-315227608D01*
X383503249Y-317282751D02*
X381494277Y-315273779D01*
X376414392Y-315227608D02*
X373346509Y-318295491D01*
X381494277Y-315227608D02*
X376414392Y-315227608D01*
%TO.N,Net-(C3-Pad1)*%
X381140723Y-312233221D02*
X381140723Y-312469892D01*
X379258751Y-310351249D02*
X381140723Y-312233221D01*
X380645748Y-311974917D02*
X379540083Y-311974917D01*
X381140723Y-312469892D02*
X380645748Y-311974917D01*
X379540083Y-311974917D02*
X377825000Y-313690000D01*
X376820629Y-313690000D02*
X372780823Y-317729806D01*
X377825000Y-313690000D02*
X376820629Y-313690000D01*
%TO.N,Net-(C6-Pad1)*%
X363256751Y-316266751D02*
X365285491Y-318295491D01*
X363256751Y-314161249D02*
X363256751Y-316266751D01*
%TO.N,Net-(D1-Pad2)*%
X94201250Y-235426250D02*
X97631250Y-238856250D01*
X92233750Y-235426250D02*
X94201250Y-235426250D01*
%TO.N,ROW00*%
X97631250Y-242156250D02*
X97631250Y-243681250D01*
X97631250Y-243681250D02*
X103886000Y-249936000D01*
X430370250Y-249936000D02*
X438150000Y-242156250D01*
X419100000Y-242189000D02*
X411353000Y-249936000D01*
X419100000Y-242156250D02*
X419100000Y-242189000D01*
X411353000Y-249936000D02*
X430370250Y-249936000D01*
X400050000Y-242189000D02*
X392303000Y-249936000D01*
X400050000Y-242156250D02*
X400050000Y-242189000D01*
X392303000Y-249936000D02*
X411353000Y-249936000D01*
X381000000Y-242189000D02*
X373253000Y-249936000D01*
X381000000Y-242156250D02*
X381000000Y-242189000D01*
X373253000Y-249936000D02*
X392303000Y-249936000D01*
X364871000Y-249936000D02*
X373253000Y-249936000D01*
X350043750Y-242157250D02*
X342265000Y-249936000D01*
X350043750Y-242156250D02*
X350043750Y-242157250D01*
X342265000Y-249936000D02*
X354330000Y-249936000D01*
X326168750Y-242156250D02*
X318389000Y-249936000D01*
X326231250Y-242156250D02*
X326168750Y-242156250D01*
X318389000Y-249936000D02*
X342265000Y-249936000D01*
X307181250Y-242220750D02*
X299466000Y-249936000D01*
X307181250Y-242156250D02*
X307181250Y-242220750D01*
X299466000Y-249936000D02*
X318389000Y-249936000D01*
X288068750Y-242156250D02*
X280289000Y-249936000D01*
X288131250Y-242156250D02*
X288068750Y-242156250D01*
X280289000Y-249936000D02*
X299466000Y-249936000D01*
X269018750Y-242156250D02*
X261239000Y-249936000D01*
X269081250Y-242156250D02*
X269018750Y-242156250D01*
X261239000Y-249936000D02*
X280289000Y-249936000D01*
X250031250Y-242156250D02*
X250031250Y-242220750D01*
X242316000Y-249936000D02*
X261239000Y-249936000D01*
X250031250Y-242220750D02*
X242316000Y-249936000D01*
X230918750Y-242156250D02*
X223139000Y-249936000D01*
X230981250Y-242156250D02*
X230918750Y-242156250D01*
X223139000Y-249936000D02*
X242316000Y-249936000D01*
X211931250Y-242220750D02*
X204216000Y-249936000D01*
X211931250Y-242156250D02*
X211931250Y-242220750D01*
X204216000Y-249936000D02*
X223139000Y-249936000D01*
X192818750Y-242156250D02*
X185039000Y-249936000D01*
X192881250Y-242156250D02*
X192818750Y-242156250D01*
X185039000Y-249936000D02*
X204216000Y-249936000D01*
X173831250Y-242156250D02*
X173831250Y-242220750D01*
X166116000Y-249936000D02*
X185039000Y-249936000D01*
X173831250Y-242220750D02*
X166116000Y-249936000D01*
X154781250Y-242156250D02*
X154718750Y-242156250D01*
X146939000Y-249936000D02*
X166116000Y-249936000D01*
X154718750Y-242156250D02*
X146939000Y-249936000D01*
X135668750Y-242156250D02*
X127889000Y-249936000D01*
X135731250Y-242156250D02*
X135668750Y-242156250D01*
X127889000Y-249936000D02*
X146939000Y-249936000D01*
X116681250Y-242220750D02*
X108966000Y-249936000D01*
X116681250Y-242156250D02*
X116681250Y-242220750D01*
X108966000Y-249936000D02*
X127889000Y-249936000D01*
X103886000Y-249936000D02*
X108966000Y-249936000D01*
X363962980Y-310770089D02*
X365740980Y-312548089D01*
X365740980Y-316488238D02*
X366416862Y-317164120D01*
X363962980Y-250844020D02*
X363962980Y-310770089D01*
X365740980Y-312548089D02*
X365740980Y-316488238D01*
X364871000Y-249936000D02*
X363962980Y-250844020D01*
%TO.N,Net-(D2-Pad2)*%
X94201250Y-254476250D02*
X97631250Y-257906250D01*
X92233750Y-254476250D02*
X94201250Y-254476250D01*
%TO.N,ROW01*%
X97631250Y-261206250D02*
X97631250Y-262731250D01*
X97631250Y-262731250D02*
X103886000Y-268986000D01*
X430370250Y-268986000D02*
X438150000Y-261206250D01*
X419005750Y-261206250D02*
X411226000Y-268986000D01*
X419100000Y-261206250D02*
X419005750Y-261206250D01*
X411226000Y-268986000D02*
X430370250Y-268986000D01*
X400050000Y-261239000D02*
X392303000Y-268986000D01*
X392303000Y-268986000D02*
X411226000Y-268986000D01*
X400050000Y-261206250D02*
X400050000Y-261239000D01*
X380651750Y-261206250D02*
X372872000Y-268986000D01*
X381000000Y-261206250D02*
X380651750Y-261206250D01*
X372872000Y-268986000D02*
X392303000Y-268986000D01*
X365379000Y-268986000D02*
X372872000Y-268986000D01*
X350043750Y-261206250D02*
X350043750Y-261207250D01*
X350043750Y-261207250D02*
X342265000Y-268986000D01*
X342265000Y-268986000D02*
X354457000Y-268986000D01*
X326168750Y-261206250D02*
X318389000Y-268986000D01*
X326231250Y-261206250D02*
X326168750Y-261206250D01*
X318389000Y-268986000D02*
X342265000Y-268986000D01*
X307118750Y-261206250D02*
X299339000Y-268986000D01*
X307181250Y-261206250D02*
X307118750Y-261206250D01*
X299339000Y-268986000D02*
X318389000Y-268986000D01*
X288131250Y-261270750D02*
X280416000Y-268986000D01*
X288131250Y-261206250D02*
X288131250Y-261270750D01*
X280416000Y-268986000D02*
X299339000Y-268986000D01*
X269018750Y-261206250D02*
X261239000Y-268986000D01*
X269081250Y-261206250D02*
X269018750Y-261206250D01*
X261239000Y-268986000D02*
X280416000Y-268986000D01*
X249968750Y-261206250D02*
X242189000Y-268986000D01*
X250031250Y-261206250D02*
X249968750Y-261206250D01*
X242189000Y-268986000D02*
X261239000Y-268986000D01*
X230981250Y-261270750D02*
X223266000Y-268986000D01*
X230981250Y-261206250D02*
X230981250Y-261270750D01*
X223266000Y-268986000D02*
X242189000Y-268986000D01*
X211931250Y-261270750D02*
X204216000Y-268986000D01*
X211931250Y-261206250D02*
X211931250Y-261270750D01*
X204216000Y-268986000D02*
X223266000Y-268986000D01*
X192818750Y-261206250D02*
X185039000Y-268986000D01*
X192881250Y-261206250D02*
X192818750Y-261206250D01*
X185039000Y-268986000D02*
X204216000Y-268986000D01*
X173641750Y-261206250D02*
X165862000Y-268986000D01*
X173831250Y-261206250D02*
X173641750Y-261206250D01*
X165862000Y-268986000D02*
X185039000Y-268986000D01*
X154718750Y-261206250D02*
X146939000Y-268986000D01*
X154781250Y-261206250D02*
X154718750Y-261206250D01*
X146939000Y-268986000D02*
X165862000Y-268986000D01*
X135731250Y-261206250D02*
X135668750Y-261206250D01*
X127889000Y-268986000D02*
X146939000Y-268986000D01*
X135668750Y-261206250D02*
X127889000Y-268986000D01*
X116681250Y-261270750D02*
X108966000Y-268986000D01*
X116681250Y-261206250D02*
X116681250Y-261270750D01*
X108966000Y-268986000D02*
X127889000Y-268986000D01*
X103886000Y-268986000D02*
X108966000Y-268986000D01*
X364416990Y-269948010D02*
X364416990Y-310582033D01*
X365379000Y-268986000D02*
X364416990Y-269948010D01*
X366194990Y-312360033D02*
X366194990Y-315810877D01*
X366194990Y-315810877D02*
X366982548Y-316598435D01*
X364416990Y-310582033D02*
X366194990Y-312360033D01*
%TO.N,Net-(D3-Pad2)*%
X98963750Y-273526250D02*
X102393750Y-276956250D01*
X96996250Y-273526250D02*
X98963750Y-273526250D01*
%TO.N,ROW02*%
X102393750Y-280256250D02*
X102393750Y-281336750D01*
X102393750Y-281336750D02*
X109093000Y-288036000D01*
X430497250Y-287909000D02*
X438150000Y-280256250D01*
X418878750Y-280256250D02*
X411226000Y-287909000D01*
X419100000Y-280256250D02*
X418878750Y-280256250D01*
X411226000Y-287909000D02*
X430497250Y-287909000D01*
X400050000Y-280289000D02*
X392430000Y-287909000D01*
X400050000Y-280256250D02*
X400050000Y-280289000D01*
X392430000Y-287909000D02*
X411226000Y-287909000D01*
X381000000Y-280289000D02*
X373380000Y-287909000D01*
X381000000Y-280256250D02*
X381000000Y-280289000D01*
X373380000Y-287909000D02*
X392430000Y-287909000D01*
X365379000Y-287909000D02*
X373380000Y-287909000D01*
X354616750Y-280256250D02*
X346837000Y-288036000D01*
X354806250Y-280256250D02*
X354616750Y-280256250D01*
X346837000Y-288036000D02*
X354330000Y-288036000D01*
X335756250Y-280256250D02*
X335756250Y-280320750D01*
X328041000Y-288036000D02*
X346837000Y-288036000D01*
X335756250Y-280320750D02*
X328041000Y-288036000D01*
X316706250Y-280320750D02*
X308991000Y-288036000D01*
X308991000Y-288036000D02*
X328041000Y-288036000D01*
X316706250Y-280256250D02*
X316706250Y-280320750D01*
X297656250Y-280256250D02*
X297656250Y-280320750D01*
X297656250Y-280320750D02*
X289941000Y-288036000D01*
X289941000Y-288036000D02*
X308991000Y-288036000D01*
X278606250Y-280320750D02*
X270891000Y-288036000D01*
X270891000Y-288036000D02*
X289941000Y-288036000D01*
X278606250Y-280256250D02*
X278606250Y-280320750D01*
X259556250Y-280320750D02*
X251841000Y-288036000D01*
X259556250Y-280256250D02*
X259556250Y-280320750D01*
X251841000Y-288036000D02*
X270891000Y-288036000D01*
X240506250Y-280320750D02*
X232791000Y-288036000D01*
X240506250Y-280256250D02*
X240506250Y-280320750D01*
X232791000Y-288036000D02*
X251841000Y-288036000D01*
X221456250Y-280320750D02*
X213741000Y-288036000D01*
X221456250Y-280256250D02*
X221456250Y-280320750D01*
X213741000Y-288036000D02*
X232791000Y-288036000D01*
X202406250Y-280447750D02*
X194818000Y-288036000D01*
X202406250Y-280256250D02*
X202406250Y-280447750D01*
X194818000Y-288036000D02*
X213741000Y-288036000D01*
X183356250Y-280320750D02*
X175641000Y-288036000D01*
X183356250Y-280256250D02*
X183356250Y-280320750D01*
X175641000Y-288036000D02*
X194818000Y-288036000D01*
X164243750Y-280256250D02*
X156464000Y-288036000D01*
X164306250Y-280256250D02*
X164243750Y-280256250D01*
X156464000Y-288036000D02*
X175641000Y-288036000D01*
X145066750Y-280256250D02*
X137287000Y-288036000D01*
X145256250Y-280256250D02*
X145066750Y-280256250D01*
X137287000Y-288036000D02*
X156464000Y-288036000D01*
X126016750Y-280256250D02*
X118237000Y-288036000D01*
X126206250Y-280256250D02*
X126016750Y-280256250D01*
X118237000Y-288036000D02*
X137287000Y-288036000D01*
X109093000Y-288036000D02*
X118237000Y-288036000D01*
X365379000Y-287909000D02*
X364871000Y-288417000D01*
X364871000Y-288417000D02*
X364871000Y-310388000D01*
X364871000Y-310388000D02*
X366649000Y-312166000D01*
X366649000Y-315133517D02*
X367548233Y-316032750D01*
X366649000Y-312166000D02*
X366649000Y-315133517D01*
%TO.N,Net-(D4-Pad2)*%
X98963750Y-292576250D02*
X102393750Y-296006250D01*
X96996250Y-292576250D02*
X98963750Y-292576250D01*
%TO.N,ROW03*%
X102393750Y-299306250D02*
X102393750Y-300259750D01*
X102393750Y-300259750D02*
X109347000Y-307213000D01*
X318389000Y-307213000D02*
X323342000Y-302260000D01*
X352044000Y-302260000D02*
X354584000Y-304800000D01*
X438150000Y-299306250D02*
X438055750Y-299306250D01*
X438055750Y-299306250D02*
X430149000Y-307213000D01*
X419100000Y-299339000D02*
X411226000Y-307213000D01*
X419100000Y-299306250D02*
X419100000Y-299339000D01*
X430149000Y-307213000D02*
X411226000Y-307213000D01*
X400050000Y-299339000D02*
X392176000Y-307213000D01*
X400050000Y-299306250D02*
X400050000Y-299339000D01*
X411226000Y-307213000D02*
X392176000Y-307213000D01*
X381000000Y-299306250D02*
X381000000Y-299339000D01*
X381000000Y-299339000D02*
X373126000Y-307213000D01*
X392176000Y-307213000D02*
X373126000Y-307213000D01*
X345281250Y-299306250D02*
X345218750Y-299306250D01*
X345218750Y-299306250D02*
X342265000Y-302260000D01*
X342265000Y-302260000D02*
X352044000Y-302260000D01*
X323342000Y-302260000D02*
X342265000Y-302260000D01*
X316643750Y-299306250D02*
X308737000Y-307213000D01*
X316706250Y-299306250D02*
X316643750Y-299306250D01*
X308737000Y-307213000D02*
X318389000Y-307213000D01*
X289814000Y-307148500D02*
X289814000Y-307213000D01*
X297656250Y-299306250D02*
X289814000Y-307148500D01*
X289814000Y-307213000D02*
X308737000Y-307213000D01*
X278606250Y-299370750D02*
X270764000Y-307213000D01*
X278606250Y-299306250D02*
X278606250Y-299370750D01*
X270764000Y-307213000D02*
X289814000Y-307213000D01*
X259556250Y-299370750D02*
X251714000Y-307213000D01*
X259556250Y-299306250D02*
X259556250Y-299370750D01*
X251714000Y-307213000D02*
X270764000Y-307213000D01*
X240506250Y-299306250D02*
X240443750Y-299306250D01*
X232537000Y-307213000D02*
X251714000Y-307213000D01*
X240443750Y-299306250D02*
X232537000Y-307213000D01*
X221393750Y-299306250D02*
X213487000Y-307213000D01*
X221456250Y-299306250D02*
X221393750Y-299306250D01*
X213487000Y-307213000D02*
X232537000Y-307213000D01*
X202343750Y-299306250D02*
X194437000Y-307213000D01*
X202406250Y-299306250D02*
X202343750Y-299306250D01*
X194437000Y-307213000D02*
X213487000Y-307213000D01*
X183293750Y-299306250D02*
X175387000Y-307213000D01*
X183356250Y-299306250D02*
X183293750Y-299306250D01*
X175387000Y-307213000D02*
X194437000Y-307213000D01*
X164306250Y-299370750D02*
X156464000Y-307213000D01*
X164306250Y-299306250D02*
X164306250Y-299370750D01*
X156464000Y-307213000D02*
X175387000Y-307213000D01*
X145193750Y-299306250D02*
X137287000Y-307213000D01*
X145256250Y-299306250D02*
X145193750Y-299306250D01*
X137287000Y-307213000D02*
X156464000Y-307213000D01*
X126206250Y-299370750D02*
X118364000Y-307213000D01*
X126206250Y-299306250D02*
X126206250Y-299370750D01*
X118364000Y-307213000D02*
X137287000Y-307213000D01*
X109347000Y-307213000D02*
X118364000Y-307213000D01*
X370518082Y-315467064D02*
X370518082Y-314750949D01*
X370518082Y-314750949D02*
X366214010Y-310446877D01*
X366214010Y-309425990D02*
X368427000Y-307213000D01*
X366214010Y-310446877D02*
X366214010Y-309425990D01*
X368427000Y-307213000D02*
X365760000Y-307213000D01*
X373126000Y-307213000D02*
X368427000Y-307213000D01*
%TO.N,Net-(D5-Pad2)*%
X98963750Y-311626250D02*
X102393750Y-315056250D01*
X96996250Y-311626250D02*
X98963750Y-311626250D01*
%TO.N,ROW04*%
X102393750Y-318356250D02*
X102393750Y-319563750D01*
X102393750Y-319563750D02*
X109093000Y-326263000D01*
X161036000Y-326263000D02*
X163449000Y-323850000D01*
X163449000Y-323850000D02*
X168275000Y-323850000D01*
X168275000Y-323850000D02*
X170561000Y-326136000D01*
X261112000Y-326136000D02*
X263652000Y-323596000D01*
X263652000Y-323596000D02*
X267970000Y-323596000D01*
X267970000Y-323596000D02*
X270637000Y-326263000D01*
X321437000Y-326263000D02*
X323596000Y-328422000D01*
X323596000Y-328422000D02*
X327025000Y-328422000D01*
X327025000Y-328422000D02*
X327533000Y-328422000D01*
X327533000Y-328422000D02*
X328041000Y-328422000D01*
X328041000Y-328422000D02*
X330327000Y-326136000D01*
X126143750Y-318356250D02*
X118237000Y-326263000D01*
X126206250Y-318356250D02*
X126143750Y-318356250D01*
X109093000Y-326263000D02*
X118237000Y-326263000D01*
X145193750Y-318356250D02*
X137287000Y-326263000D01*
X145256250Y-318356250D02*
X145193750Y-318356250D01*
X118237000Y-326263000D02*
X137287000Y-326263000D01*
X164243750Y-318356250D02*
X156337000Y-326263000D01*
X164306250Y-318356250D02*
X164243750Y-318356250D01*
X156337000Y-326263000D02*
X161036000Y-326263000D01*
X137287000Y-326263000D02*
X156337000Y-326263000D01*
X183356250Y-318420750D02*
X175641000Y-326136000D01*
X183356250Y-318356250D02*
X183356250Y-318420750D01*
X170561000Y-326136000D02*
X175641000Y-326136000D01*
X202216750Y-318356250D02*
X194437000Y-326136000D01*
X202406250Y-318356250D02*
X202216750Y-318356250D01*
X175641000Y-326136000D02*
X194437000Y-326136000D01*
X221456250Y-318356250D02*
X221456250Y-318420750D01*
X221456250Y-318420750D02*
X213741000Y-326136000D01*
X194437000Y-326136000D02*
X213741000Y-326136000D01*
X240506250Y-318420750D02*
X232791000Y-326136000D01*
X240506250Y-318356250D02*
X240506250Y-318420750D01*
X213741000Y-326136000D02*
X232791000Y-326136000D01*
X259493750Y-318356250D02*
X251714000Y-326136000D01*
X259556250Y-318356250D02*
X259493750Y-318356250D01*
X251714000Y-326136000D02*
X261112000Y-326136000D01*
X232791000Y-326136000D02*
X251714000Y-326136000D01*
X278606250Y-318420750D02*
X270764000Y-326263000D01*
X278606250Y-318356250D02*
X278606250Y-318420750D01*
X270637000Y-326263000D02*
X270764000Y-326263000D01*
X297656250Y-318420750D02*
X289814000Y-326263000D01*
X297656250Y-318356250D02*
X297656250Y-318420750D01*
X270764000Y-326263000D02*
X289814000Y-326263000D01*
X316643750Y-318356250D02*
X308737000Y-326263000D01*
X316706250Y-318356250D02*
X316643750Y-318356250D01*
X308737000Y-326263000D02*
X321437000Y-326263000D01*
X289814000Y-326263000D02*
X308737000Y-326263000D01*
X345218750Y-318356250D02*
X337439000Y-326136000D01*
X345281250Y-318356250D02*
X345218750Y-318356250D01*
X330327000Y-326136000D02*
X337439000Y-326136000D01*
X364130862Y-325225138D02*
X364154120Y-325225138D01*
X362204000Y-327152000D02*
X364130862Y-325225138D01*
X337439000Y-326136000D02*
X341630000Y-326136000D01*
X341630000Y-326136000D02*
X346075000Y-321691000D01*
X352679000Y-321691000D02*
X356362000Y-325374000D01*
X346075000Y-321691000D02*
X352679000Y-321691000D01*
X386969000Y-326263000D02*
X411193250Y-326263000D01*
X411193250Y-326263000D02*
X419100000Y-318356250D01*
X379730000Y-327152000D02*
X380619000Y-326263000D01*
X378841000Y-327152000D02*
X379730000Y-327152000D01*
X386969000Y-326263000D02*
X380619000Y-326263000D01*
%TO.N,Net-(D6-Pad2)*%
X94201250Y-330676250D02*
X97631250Y-334106250D01*
X92233750Y-330676250D02*
X94201250Y-330676250D01*
%TO.N,ROW05*%
X97631250Y-337406250D02*
X97631250Y-338677250D01*
X97631250Y-338677250D02*
X101854000Y-342900000D01*
X160020000Y-342900000D02*
X163957000Y-338963000D01*
X163957000Y-338963000D02*
X167640000Y-338963000D01*
X167640000Y-338963000D02*
X171577000Y-342900000D01*
X171577000Y-342900000D02*
X182626000Y-342900000D01*
X260223000Y-342900000D02*
X263906000Y-339217000D01*
X263906000Y-339217000D02*
X267843000Y-339217000D01*
X267843000Y-339217000D02*
X271526000Y-342900000D01*
X432656250Y-342900000D02*
X438150000Y-337406250D01*
X419100000Y-337439000D02*
X413639000Y-342900000D01*
X419100000Y-337406250D02*
X419100000Y-337439000D01*
X413639000Y-342900000D02*
X432656250Y-342900000D01*
X400050000Y-337439000D02*
X394589000Y-342900000D01*
X400050000Y-337406250D02*
X400050000Y-337439000D01*
X394589000Y-342900000D02*
X413639000Y-342900000D01*
X387223000Y-342900000D02*
X394589000Y-342900000D01*
X349917750Y-337406250D02*
X344424000Y-342900000D01*
X344424000Y-342900000D02*
X354203000Y-342900000D01*
X350043750Y-337406250D02*
X349917750Y-337406250D01*
X321468750Y-337407250D02*
X315976000Y-342900000D01*
X321468750Y-337406250D02*
X321468750Y-337407250D01*
X315976000Y-342900000D02*
X344424000Y-342900000D01*
X295180750Y-337406250D02*
X289687000Y-342900000D01*
X289687000Y-342900000D02*
X315976000Y-342900000D01*
X295275000Y-337406250D02*
X295180750Y-337406250D01*
X271526000Y-342900000D02*
X289687000Y-342900000D01*
X223837500Y-337502500D02*
X218440000Y-342900000D01*
X223837500Y-337406250D02*
X223837500Y-337502500D01*
X218440000Y-342900000D02*
X260223000Y-342900000D01*
X182626000Y-342900000D02*
X218440000Y-342900000D01*
X154781250Y-337470750D02*
X149352000Y-342900000D01*
X154781250Y-337406250D02*
X154781250Y-337470750D01*
X149352000Y-342900000D02*
X160020000Y-342900000D01*
X135731250Y-337470750D02*
X130302000Y-342900000D01*
X130302000Y-342900000D02*
X149352000Y-342900000D01*
X135731250Y-337406250D02*
X135731250Y-337470750D01*
X116681250Y-337470750D02*
X111252000Y-342900000D01*
X116681250Y-337406250D02*
X116681250Y-337470750D01*
X111252000Y-342900000D02*
X130302000Y-342900000D01*
X101854000Y-342900000D02*
X111252000Y-342900000D01*
X383159000Y-342900000D02*
X387223000Y-342900000D01*
X383159000Y-340694483D02*
X371083767Y-328619250D01*
X383159000Y-342900000D02*
X383159000Y-340694483D01*
%TO.N,Net-(D7-Pad2)*%
X113251250Y-235426250D02*
X116681250Y-238856250D01*
X111283750Y-235426250D02*
X113251250Y-235426250D01*
%TO.N,Net-(D8-Pad2)*%
X113251250Y-254476250D02*
X116681250Y-257906250D01*
X111283750Y-254476250D02*
X113251250Y-254476250D01*
%TO.N,Net-(D9-Pad2)*%
X122776250Y-273526250D02*
X126206250Y-276956250D01*
X120808750Y-273526250D02*
X122776250Y-273526250D01*
%TO.N,Net-(D10-Pad2)*%
X113251250Y-330676250D02*
X116681250Y-334106250D01*
X111283750Y-330676250D02*
X113251250Y-330676250D01*
%TO.N,Net-(D11-Pad2)*%
X132301250Y-235426250D02*
X135731250Y-238856250D01*
X130333750Y-235426250D02*
X132301250Y-235426250D01*
%TO.N,Net-(D12-Pad2)*%
X132301250Y-254476250D02*
X135731250Y-257906250D01*
X130333750Y-254476250D02*
X132301250Y-254476250D01*
%TO.N,Net-(D13-Pad2)*%
X141826250Y-273526250D02*
X145256250Y-276956250D01*
X139858750Y-273526250D02*
X141826250Y-273526250D01*
%TO.N,Net-(D14-Pad2)*%
X122776250Y-292576250D02*
X126206250Y-296006250D01*
X120808750Y-292576250D02*
X122776250Y-292576250D01*
%TO.N,Net-(D15-Pad2)*%
X132301250Y-330676250D02*
X135731250Y-334106250D01*
X130333750Y-330676250D02*
X132301250Y-330676250D01*
%TO.N,Net-(D16-Pad2)*%
X151351250Y-235426250D02*
X154781250Y-238856250D01*
X149383750Y-235426250D02*
X151351250Y-235426250D01*
%TO.N,Net-(D17-Pad2)*%
X151351250Y-254476250D02*
X154781250Y-257906250D01*
X149383750Y-254476250D02*
X151351250Y-254476250D01*
%TO.N,Net-(D18-Pad2)*%
X160876250Y-273526250D02*
X164306250Y-276956250D01*
X158908750Y-273526250D02*
X160876250Y-273526250D01*
%TO.N,Net-(D19-Pad2)*%
X141826250Y-292576250D02*
X145256250Y-296006250D01*
X139858750Y-292576250D02*
X141826250Y-292576250D01*
%TO.N,Net-(D20-Pad2)*%
X122776250Y-311626250D02*
X126206250Y-315056250D01*
X120808750Y-311626250D02*
X122776250Y-311626250D01*
%TO.N,Net-(D21-Pad2)*%
X151351250Y-330676250D02*
X154781250Y-334106250D01*
X149383750Y-330676250D02*
X151351250Y-330676250D01*
%TO.N,Net-(D22-Pad2)*%
X170401250Y-235426250D02*
X173831250Y-238856250D01*
X168433750Y-235426250D02*
X170401250Y-235426250D01*
%TO.N,Net-(D23-Pad2)*%
X170401250Y-254476250D02*
X173831250Y-257906250D01*
X168433750Y-254476250D02*
X170401250Y-254476250D01*
%TO.N,Net-(D24-Pad2)*%
X179926250Y-273526250D02*
X183356250Y-276956250D01*
X177958750Y-273526250D02*
X179926250Y-273526250D01*
%TO.N,Net-(D25-Pad2)*%
X160876250Y-292576250D02*
X164306250Y-296006250D01*
X158908750Y-292576250D02*
X160876250Y-292576250D01*
%TO.N,Net-(D26-Pad2)*%
X141826250Y-311626250D02*
X145256250Y-315056250D01*
X139858750Y-311626250D02*
X141826250Y-311626250D01*
%TO.N,Net-(D27-Pad2)*%
X189451250Y-235426250D02*
X192881250Y-238856250D01*
X187483750Y-235426250D02*
X189451250Y-235426250D01*
%TO.N,Net-(D28-Pad2)*%
X189451250Y-254476250D02*
X192881250Y-257906250D01*
X187483750Y-254476250D02*
X189451250Y-254476250D01*
%TO.N,Net-(D29-Pad2)*%
X198976250Y-273526250D02*
X202406250Y-276956250D01*
X197008750Y-273526250D02*
X198976250Y-273526250D01*
%TO.N,Net-(D30-Pad2)*%
X179926250Y-292576250D02*
X183356250Y-296006250D01*
X177958750Y-292576250D02*
X179926250Y-292576250D01*
%TO.N,Net-(D31-Pad2)*%
X160876250Y-311626250D02*
X164306250Y-315056250D01*
X158908750Y-311626250D02*
X160876250Y-311626250D01*
%TO.N,Net-(D32-Pad2)*%
X208501250Y-235426250D02*
X211931250Y-238856250D01*
X206533750Y-235426250D02*
X208501250Y-235426250D01*
%TO.N,Net-(D33-Pad2)*%
X208501250Y-254476250D02*
X211931250Y-257906250D01*
X206533750Y-254476250D02*
X208501250Y-254476250D01*
%TO.N,Net-(D34-Pad2)*%
X218026250Y-273526250D02*
X221456250Y-276956250D01*
X216058750Y-273526250D02*
X218026250Y-273526250D01*
%TO.N,Net-(D35-Pad2)*%
X198976250Y-292576250D02*
X202406250Y-296006250D01*
X197008750Y-292576250D02*
X198976250Y-292576250D01*
%TO.N,Net-(D36-Pad2)*%
X179926250Y-311626250D02*
X183356250Y-315056250D01*
X177958750Y-311626250D02*
X179926250Y-311626250D01*
%TO.N,Net-(D37-Pad2)*%
X227551250Y-235426250D02*
X230981250Y-238856250D01*
X225583750Y-235426250D02*
X227551250Y-235426250D01*
%TO.N,Net-(D38-Pad2)*%
X227551250Y-254476250D02*
X230981250Y-257906250D01*
X225583750Y-254476250D02*
X227551250Y-254476250D01*
%TO.N,Net-(D39-Pad2)*%
X237076250Y-273526250D02*
X240506250Y-276956250D01*
X235108750Y-273526250D02*
X237076250Y-273526250D01*
%TO.N,Net-(D40-Pad2)*%
X218026250Y-292576250D02*
X221456250Y-296006250D01*
X216058750Y-292576250D02*
X218026250Y-292576250D01*
%TO.N,Net-(D41-Pad2)*%
X198976250Y-311626250D02*
X202406250Y-315056250D01*
X197008750Y-311626250D02*
X198976250Y-311626250D01*
%TO.N,Net-(D42-Pad2)*%
X220407500Y-330676250D02*
X223837500Y-334106250D01*
X218440000Y-330676250D02*
X220407500Y-330676250D01*
%TO.N,Net-(D43-Pad2)*%
X246601250Y-235426250D02*
X250031250Y-238856250D01*
X244633750Y-235426250D02*
X246601250Y-235426250D01*
%TO.N,Net-(D44-Pad2)*%
X246601250Y-254476250D02*
X250031250Y-257906250D01*
X244633750Y-254476250D02*
X246601250Y-254476250D01*
%TO.N,Net-(D45-Pad2)*%
X256126250Y-273526250D02*
X259556250Y-276956250D01*
X254158750Y-273526250D02*
X256126250Y-273526250D01*
%TO.N,Net-(D46-Pad2)*%
X237076250Y-292576250D02*
X240506250Y-296006250D01*
X235108750Y-292576250D02*
X237076250Y-292576250D01*
%TO.N,Net-(D47-Pad2)*%
X218026250Y-311626250D02*
X221456250Y-315056250D01*
X216058750Y-311626250D02*
X218026250Y-311626250D01*
%TO.N,Net-(D48-Pad2)*%
X265651250Y-235426250D02*
X269081250Y-238856250D01*
X263683750Y-235426250D02*
X265651250Y-235426250D01*
%TO.N,Net-(D49-Pad2)*%
X265651250Y-254476250D02*
X269081250Y-257906250D01*
X263683750Y-254476250D02*
X265651250Y-254476250D01*
%TO.N,Net-(D50-Pad2)*%
X275176250Y-273526250D02*
X278606250Y-276956250D01*
X273208750Y-273526250D02*
X275176250Y-273526250D01*
%TO.N,Net-(D51-Pad2)*%
X256126250Y-292576250D02*
X259556250Y-296006250D01*
X254158750Y-292576250D02*
X256126250Y-292576250D01*
%TO.N,Net-(D52-Pad2)*%
X237076250Y-311626250D02*
X240506250Y-315056250D01*
X235108750Y-311626250D02*
X237076250Y-311626250D01*
%TO.N,Net-(D53-Pad2)*%
X284701250Y-235426250D02*
X288131250Y-238856250D01*
X282733750Y-235426250D02*
X284701250Y-235426250D01*
%TO.N,Net-(D54-Pad2)*%
X284701250Y-254476250D02*
X288131250Y-257906250D01*
X282733750Y-254476250D02*
X284701250Y-254476250D01*
%TO.N,Net-(D55-Pad2)*%
X294226250Y-273526250D02*
X297656250Y-276956250D01*
X292258750Y-273526250D02*
X294226250Y-273526250D01*
%TO.N,Net-(D56-Pad2)*%
X275176250Y-292576250D02*
X278606250Y-296006250D01*
X273208750Y-292576250D02*
X275176250Y-292576250D01*
%TO.N,Net-(D57-Pad2)*%
X256126250Y-311626250D02*
X259556250Y-315056250D01*
X254158750Y-311626250D02*
X256126250Y-311626250D01*
%TO.N,Net-(D58-Pad2)*%
X291845000Y-330676250D02*
X295275000Y-334106250D01*
X289877500Y-330676250D02*
X291845000Y-330676250D01*
%TO.N,Net-(D59-Pad2)*%
X303751250Y-235426250D02*
X307181250Y-238856250D01*
X301783750Y-235426250D02*
X303751250Y-235426250D01*
%TO.N,Net-(D60-Pad2)*%
X303751250Y-254476250D02*
X307181250Y-257906250D01*
X301783750Y-254476250D02*
X303751250Y-254476250D01*
%TO.N,Net-(D61-Pad2)*%
X313276250Y-273526250D02*
X316706250Y-276956250D01*
X311308750Y-273526250D02*
X313276250Y-273526250D01*
%TO.N,Net-(D62-Pad2)*%
X294226250Y-292576250D02*
X297656250Y-296006250D01*
X292258750Y-292576250D02*
X294226250Y-292576250D01*
%TO.N,Net-(D63-Pad2)*%
X275176250Y-311626250D02*
X278606250Y-315056250D01*
X273208750Y-311626250D02*
X275176250Y-311626250D01*
%TO.N,Net-(D64-Pad2)*%
X318038750Y-330676250D02*
X321468750Y-334106250D01*
X316071250Y-330676250D02*
X318038750Y-330676250D01*
%TO.N,Net-(D65-Pad2)*%
X322801250Y-235426250D02*
X326231250Y-238856250D01*
X320833750Y-235426250D02*
X322801250Y-235426250D01*
%TO.N,Net-(D66-Pad2)*%
X322801250Y-254476250D02*
X326231250Y-257906250D01*
X320833750Y-254476250D02*
X322801250Y-254476250D01*
%TO.N,Net-(D67-Pad2)*%
X332326250Y-273526250D02*
X335756250Y-276956250D01*
X330358750Y-273526250D02*
X332326250Y-273526250D01*
%TO.N,Net-(D68-Pad2)*%
X313276250Y-292576250D02*
X316706250Y-296006250D01*
X311308750Y-292576250D02*
X313276250Y-292576250D01*
%TO.N,Net-(D69-Pad2)*%
X294226250Y-311626250D02*
X297656250Y-315056250D01*
X292258750Y-311626250D02*
X294226250Y-311626250D01*
%TO.N,Net-(D70-Pad2)*%
X313276250Y-311626250D02*
X316706250Y-315056250D01*
X311308750Y-311626250D02*
X313276250Y-311626250D01*
%TO.N,Net-(D71-Pad2)*%
X346613750Y-235426250D02*
X350043750Y-238856250D01*
X344646250Y-235426250D02*
X346613750Y-235426250D01*
%TO.N,Net-(D72-Pad2)*%
X346613750Y-254476250D02*
X350043750Y-257906250D01*
X344646250Y-254476250D02*
X346613750Y-254476250D01*
%TO.N,Net-(D73-Pad2)*%
X351376250Y-273526250D02*
X354806250Y-276956250D01*
X349408750Y-273526250D02*
X351376250Y-273526250D01*
%TO.N,Net-(D74-Pad2)*%
X341851250Y-292576250D02*
X345281250Y-296006250D01*
X339883750Y-292576250D02*
X341851250Y-292576250D01*
%TO.N,Net-(D75-Pad2)*%
X341851250Y-311626250D02*
X345281250Y-315056250D01*
X339883750Y-311626250D02*
X341851250Y-311626250D01*
%TO.N,Net-(D76-Pad2)*%
X346613750Y-330676250D02*
X350043750Y-334106250D01*
X344646250Y-330676250D02*
X346613750Y-330676250D01*
%TO.N,Net-(D77-Pad2)*%
X377570000Y-235426250D02*
X381000000Y-238856250D01*
X375602500Y-235426250D02*
X377570000Y-235426250D01*
%TO.N,Net-(D78-Pad2)*%
X377570000Y-254476250D02*
X381000000Y-257906250D01*
X375602500Y-254476250D02*
X377570000Y-254476250D01*
%TO.N,Net-(D79-Pad2)*%
X377570000Y-273526250D02*
X381000000Y-276956250D01*
X375602500Y-273526250D02*
X377570000Y-273526250D01*
%TO.N,Net-(D80-Pad2)*%
X377570000Y-292576250D02*
X381000000Y-296006250D01*
X375602500Y-292576250D02*
X377570000Y-292576250D01*
%TO.N,Net-(D81-Pad2)*%
X396620000Y-235426250D02*
X400050000Y-238856250D01*
X394652500Y-235426250D02*
X396620000Y-235426250D01*
%TO.N,Net-(D82-Pad2)*%
X396620000Y-254476250D02*
X400050000Y-257906250D01*
X394652500Y-254476250D02*
X396620000Y-254476250D01*
%TO.N,Net-(D83-Pad2)*%
X396620000Y-273526250D02*
X400050000Y-276956250D01*
X394652500Y-273526250D02*
X396620000Y-273526250D01*
%TO.N,Net-(D84-Pad2)*%
X396620000Y-292576250D02*
X400050000Y-296006250D01*
X394652500Y-292576250D02*
X396620000Y-292576250D01*
%TO.N,Net-(D85-Pad2)*%
X396620000Y-330676250D02*
X400050000Y-334106250D01*
X394652500Y-330676250D02*
X396620000Y-330676250D01*
%TO.N,Net-(D86-Pad2)*%
X415670000Y-235426250D02*
X419100000Y-238856250D01*
X413702500Y-235426250D02*
X415670000Y-235426250D01*
%TO.N,Net-(D87-Pad2)*%
X415670000Y-254476250D02*
X419100000Y-257906250D01*
X413702500Y-254476250D02*
X415670000Y-254476250D01*
%TO.N,Net-(D88-Pad2)*%
X415670000Y-273526250D02*
X419100000Y-276956250D01*
X413702500Y-273526250D02*
X415670000Y-273526250D01*
%TO.N,Net-(D89-Pad2)*%
X415670000Y-292576250D02*
X419100000Y-296006250D01*
X413702500Y-292576250D02*
X415670000Y-292576250D01*
%TO.N,Net-(D90-Pad2)*%
X415670000Y-311626250D02*
X419100000Y-315056250D01*
X413702500Y-311626250D02*
X415670000Y-311626250D01*
%TO.N,Net-(D91-Pad2)*%
X415670000Y-330676250D02*
X419100000Y-334106250D01*
X413702500Y-330676250D02*
X415670000Y-330676250D01*
%TO.N,Net-(D92-Pad2)*%
X434720000Y-235426250D02*
X438150000Y-238856250D01*
X432752500Y-235426250D02*
X434720000Y-235426250D01*
%TO.N,Net-(D93-Pad2)*%
X434720000Y-254476250D02*
X438150000Y-257906250D01*
X432752500Y-254476250D02*
X434720000Y-254476250D01*
%TO.N,Net-(D94-Pad2)*%
X434720000Y-273526250D02*
X438150000Y-276956250D01*
X432752500Y-273526250D02*
X434720000Y-273526250D01*
%TO.N,Net-(D95-Pad2)*%
X434720000Y-292576250D02*
X438150000Y-296006250D01*
X432752500Y-292576250D02*
X434720000Y-292576250D01*
%TO.N,Net-(D96-Pad2)*%
X434720000Y-330676250D02*
X438150000Y-334106250D01*
X432752500Y-330676250D02*
X434720000Y-330676250D01*
D16*
%TO.N,VCC*%
X357124000Y-244348000D02*
X357124000Y-248285000D01*
X357505000Y-248666000D02*
X357505000Y-250218750D01*
X357124000Y-248285000D02*
X357505000Y-248666000D01*
X358445000Y-237291000D02*
X358445000Y-243027000D01*
X358140000Y-243332000D02*
X357124000Y-244348000D01*
X358445000Y-243027000D02*
X358140000Y-243332000D01*
D17*
%TO.N,COL10*%
X366416862Y-327638138D02*
X366416862Y-327487880D01*
X354330000Y-339725000D02*
X356233848Y-337821152D01*
X356233848Y-337821152D02*
X356233848Y-336202979D01*
X365844722Y-328060020D02*
X366416862Y-327487880D01*
X364376807Y-328060020D02*
X365844722Y-328060020D01*
X356233848Y-336202979D02*
X364376807Y-328060020D01*
%TO.N,COL01*%
X374628138Y-319426862D02*
X374477880Y-319426862D01*
X376555000Y-317500000D02*
X374628138Y-319426862D01*
%TO.N,COL02*%
X197993000Y-332232000D02*
X198126916Y-332232000D01*
X198126916Y-332232000D02*
X200501876Y-329857040D01*
X200501876Y-329857040D02*
X213148664Y-329857040D01*
X213148664Y-329857040D02*
X214145644Y-328860060D01*
X264037886Y-331616019D02*
X267711114Y-331616018D01*
X261281928Y-328860060D02*
X264037886Y-331616019D01*
X214145644Y-328860060D02*
X261281928Y-328860060D01*
X267711114Y-331616018D02*
X270340074Y-328987058D01*
X322467663Y-331146054D02*
X329169342Y-331146055D01*
X320308666Y-328987058D02*
X322467663Y-331146054D01*
X270340074Y-328987058D02*
X320308666Y-328987058D01*
X329169342Y-331146055D02*
X331455337Y-328860060D01*
X346973775Y-329730040D02*
X347191913Y-329730040D01*
X346103796Y-328860060D02*
X346973775Y-329730040D01*
X331455337Y-328860060D02*
X346103796Y-328860060D01*
X356302038Y-332359000D02*
X356362000Y-332359000D01*
X353167355Y-329730040D02*
X353098040Y-329730040D01*
X355796315Y-332359000D02*
X353167355Y-329730040D01*
X356362000Y-332359000D02*
X355796315Y-332359000D01*
X347191913Y-329730040D02*
X353098040Y-329730040D01*
X377397483Y-318770000D02*
X375609250Y-320558233D01*
X377698000Y-318770000D02*
X377397483Y-318770000D01*
%TO.N,COL03*%
X354295030Y-329276030D02*
X356362000Y-331343000D01*
X347161832Y-329276030D02*
X347379970Y-329276030D01*
X346291852Y-328406050D02*
X347161832Y-329276030D01*
X328981285Y-330692046D02*
X331267281Y-328406050D01*
X347379970Y-329276030D02*
X354295030Y-329276030D01*
X264225943Y-331162010D02*
X267523057Y-331162009D01*
X320496721Y-328533048D02*
X322655719Y-330692045D01*
X197993000Y-331089000D02*
X198558685Y-331089000D01*
X213924170Y-328406050D02*
X261469984Y-328406050D01*
X198558685Y-331089000D02*
X200244655Y-329403030D01*
X200244655Y-329403030D02*
X212927191Y-329403030D01*
X212927191Y-329403030D02*
X213924170Y-328406050D01*
X261469984Y-328406050D02*
X264225943Y-331162010D01*
X331267281Y-328406050D02*
X346291852Y-328406050D01*
X270152018Y-328533048D02*
X320496721Y-328533048D01*
X267523057Y-331162009D02*
X270152018Y-328533048D01*
X322655719Y-330692045D02*
X328981285Y-330692046D01*
X377512854Y-319786000D02*
X376174936Y-321123918D01*
X377698000Y-319786000D02*
X377512854Y-319786000D01*
%TO.N,COL04*%
X375529674Y-328558325D02*
X375529674Y-325145561D01*
X375529674Y-325145561D02*
X375043565Y-324659452D01*
X375523489Y-328564510D02*
X375529674Y-328558325D01*
X377158979Y-330200000D02*
X375523489Y-328564510D01*
X378841000Y-330200000D02*
X377158979Y-330200000D01*
X354984018Y-328822018D02*
X355092000Y-328930000D01*
X347349886Y-328822018D02*
X354984018Y-328822018D01*
X346479908Y-327952040D02*
X347349886Y-328822018D01*
X331079225Y-327952040D02*
X346479908Y-327952040D01*
X328793228Y-330238037D02*
X331079225Y-327952040D01*
X354984020Y-328822020D02*
X355092000Y-328930000D01*
X355092000Y-328930000D02*
X356362000Y-330200000D01*
X320684776Y-328079038D02*
X322843775Y-330238036D01*
X197993000Y-330073000D02*
X198247000Y-330073000D01*
X264414000Y-330708000D02*
X267335000Y-330708000D01*
X322843775Y-330238036D02*
X328793228Y-330238037D01*
X199370980Y-328949020D02*
X212739134Y-328949020D01*
X198247000Y-330073000D02*
X199370980Y-328949020D01*
X269963962Y-328079038D02*
X320684776Y-328079038D01*
X212739134Y-328949020D02*
X213736114Y-327952040D01*
X213736114Y-327952040D02*
X261658040Y-327952040D01*
X267335000Y-330708000D02*
X269963962Y-328079038D01*
X261658040Y-327952040D02*
X264414000Y-330708000D01*
%TO.N,COL05*%
X378841000Y-331216000D02*
X377532913Y-331216000D01*
X377532913Y-331216000D02*
X374948456Y-328631543D01*
X374948456Y-328631543D02*
X374948456Y-326345544D01*
X374963988Y-325711246D02*
X374477880Y-325225138D01*
X374963988Y-326330012D02*
X374963988Y-325711246D01*
X374948456Y-326345544D02*
X374963988Y-326330012D01*
X330891169Y-327498030D02*
X346667964Y-327498030D01*
X355673009Y-328368009D02*
X355790500Y-328485500D01*
X328605171Y-329784028D02*
X330891169Y-327498030D01*
X355673010Y-328368010D02*
X355790500Y-328485500D01*
X355790500Y-328485500D02*
X356362000Y-329057000D01*
X212551077Y-328495010D02*
X213548057Y-327498030D01*
X346667964Y-327498030D02*
X347537943Y-328368009D01*
X197993000Y-329057000D02*
X198558685Y-329057000D01*
X198558685Y-329057000D02*
X199120675Y-328495010D01*
X199120675Y-328495010D02*
X212551077Y-328495010D01*
X264241571Y-324958030D02*
X267405833Y-324958030D01*
X213548057Y-327498030D02*
X261701571Y-327498030D01*
X261701571Y-327498030D02*
X264241571Y-324958030D01*
X267405833Y-324958030D02*
X270072830Y-327625028D01*
X347537943Y-328368009D02*
X355673009Y-328368009D01*
X320872831Y-327625028D02*
X323031831Y-329784027D01*
X270072830Y-327625028D02*
X320872831Y-327625028D01*
X323031831Y-329784027D02*
X328605171Y-329784028D01*
%TO.N,COL06*%
X374050823Y-325790823D02*
X373912194Y-325790823D01*
X190658750Y-314166250D02*
X190658750Y-314864750D01*
X374436923Y-326315552D02*
X373912194Y-325790823D01*
X374436923Y-328762076D02*
X374436923Y-326315552D01*
X377906847Y-332232000D02*
X374436923Y-328762076D01*
X378841000Y-332232000D02*
X377906847Y-332232000D01*
X212363020Y-328041000D02*
X213360000Y-327044020D01*
X197993000Y-328041000D02*
X212363020Y-328041000D01*
X213360000Y-327044020D02*
X261503055Y-327044020D01*
X270260887Y-327171018D02*
X321060886Y-327171018D01*
X261503055Y-327044020D02*
X264043055Y-324504020D01*
X347726000Y-327914000D02*
X356362000Y-327914000D01*
X264043055Y-324504020D02*
X267593888Y-324504020D01*
X267593888Y-324504020D02*
X270260887Y-327171018D01*
X346856020Y-327044020D02*
X347726000Y-327914000D01*
X321060886Y-327171018D02*
X323219887Y-329330018D01*
X323219887Y-329330018D02*
X328417114Y-329330019D01*
X328417114Y-329330019D02*
X330703113Y-327044020D01*
X330703113Y-327044020D02*
X346856020Y-327044020D01*
%TO.N,COL07*%
X373473509Y-326356509D02*
X373346509Y-326356509D01*
X378153781Y-333121000D02*
X373888000Y-328855219D01*
X373888000Y-326898000D02*
X373346509Y-326356509D01*
X373888000Y-328855219D02*
X373888000Y-326898000D01*
X378714000Y-333121000D02*
X378153781Y-333121000D01*
X378841000Y-333248000D02*
X378714000Y-333121000D01*
X328229057Y-328876010D02*
X330515057Y-326590010D01*
X323407943Y-328876009D02*
X328229057Y-328876010D01*
X270448943Y-326717009D02*
X321248944Y-326717010D01*
X321248944Y-326717010D02*
X323407943Y-328876009D01*
X267781944Y-324050010D02*
X270448943Y-326717009D01*
X263846033Y-324050010D02*
X267781944Y-324050010D01*
X261306033Y-326590010D02*
X263846033Y-324050010D01*
X212524990Y-326590010D02*
X261306033Y-326590010D01*
X212090000Y-327025000D02*
X212524990Y-326590010D01*
X341937990Y-326590010D02*
X346382990Y-322145010D01*
X330515057Y-326590010D02*
X341937990Y-326590010D01*
X346382990Y-322145010D02*
X352490944Y-322145010D01*
X352490944Y-322145010D02*
X355346000Y-325000066D01*
X355346000Y-325628000D02*
X356362000Y-326644000D01*
X355346000Y-325000066D02*
X355346000Y-325628000D01*
%TO.N,COL08*%
X362271918Y-321123918D02*
X362457064Y-321123918D01*
X359664000Y-318516000D02*
X362271918Y-321123918D01*
%TO.N,COL09*%
X354330000Y-340995000D02*
X356687858Y-338637142D01*
X356687858Y-338637142D02*
X356687858Y-336391035D01*
X356687858Y-336391035D02*
X364529893Y-328549000D01*
X366487113Y-328549000D02*
X366982548Y-328053565D01*
X364529893Y-328549000D02*
X366487113Y-328549000D01*
%TO.N,COL13*%
X354595629Y-335915000D02*
X364719806Y-325790823D01*
X354330000Y-335915000D02*
X354595629Y-335915000D01*
%TO.N,COL00*%
X374050823Y-318861177D02*
X373912194Y-318861177D01*
X376555000Y-316357000D02*
X374050823Y-318861177D01*
%TO.N,COL11*%
X283527500Y-333216250D02*
X283527500Y-333819500D01*
X283527500Y-333819500D02*
X283972000Y-334264000D01*
X365735806Y-326922194D02*
X365851177Y-326922194D01*
X365851177Y-326933823D02*
X365851177Y-326922194D01*
X354330000Y-338455000D02*
X355745858Y-337039142D01*
X355745858Y-337039142D02*
X355745858Y-336048903D01*
X365167361Y-327606010D02*
X365851177Y-326922194D01*
X364188751Y-327606010D02*
X365167361Y-327606010D01*
X355745858Y-336048903D02*
X364188751Y-327606010D01*
%TO.N,COL12*%
X365158491Y-326356509D02*
X365285491Y-326356509D01*
X354330000Y-337185000D02*
X355291848Y-336223152D01*
X355291848Y-336223152D02*
X355291848Y-335860847D01*
X355291848Y-335860847D02*
X364000695Y-327152000D01*
X364490000Y-327152000D02*
X365285491Y-326356509D01*
X364000695Y-327152000D02*
X364490000Y-327152000D01*
%TO.N,COL16*%
X407352500Y-333216250D02*
X407352500Y-333819500D01*
X383159000Y-335534000D02*
X382343010Y-336349990D01*
X382343010Y-336349990D02*
X380098639Y-336349990D01*
X372818010Y-328090752D02*
X372215138Y-327487880D01*
X372818010Y-329069361D02*
X372818010Y-328090752D01*
X380098639Y-336349990D02*
X372818010Y-329069361D01*
%TO.N,COL15*%
X388302500Y-333216250D02*
X384187730Y-333216250D01*
X384187730Y-333216250D02*
X381508000Y-335895980D01*
X381508000Y-335895980D02*
X380286695Y-335895980D01*
X380286695Y-335895980D02*
X373272020Y-328881305D01*
X373272020Y-327413391D02*
X372780823Y-326922194D01*
X373272020Y-328881305D02*
X373272020Y-327413391D01*
%TO.N,COL14*%
X365760000Y-308229000D02*
X365760000Y-310634934D01*
X365760000Y-310634934D02*
X367103010Y-311977943D01*
X367103010Y-314456156D02*
X368113918Y-315467064D01*
X367103010Y-311977943D02*
X367103010Y-314456156D01*
%TO.N,COL17*%
X383159000Y-336804000D02*
X379910583Y-336804000D01*
X379910583Y-336804000D02*
X372364000Y-329257417D01*
X372364000Y-328768113D02*
X371649452Y-328053565D01*
X372364000Y-329257417D02*
X372364000Y-328768113D01*
%TO.N,D-*%
X359562500Y-244362500D02*
X358775000Y-245150000D01*
X359245000Y-237291000D02*
X359245000Y-243294000D01*
X359562500Y-243611500D02*
X359562500Y-244362500D01*
X359245000Y-243294000D02*
X359562500Y-243611500D01*
%TO.N,Net-(R1-Pad1)*%
X359664000Y-316068114D02*
X359681443Y-316085557D01*
X359664000Y-248539000D02*
X359664000Y-316068114D01*
X358775000Y-247650000D02*
X359664000Y-248539000D01*
X358775000Y-246975000D02*
X358775000Y-247650000D01*
X359681443Y-316085557D02*
X363588435Y-319992548D01*
%TO.N,D+*%
X360362500Y-244356250D02*
X361156250Y-245150000D01*
X360045000Y-244038750D02*
X360362500Y-244356250D01*
X360045000Y-237291000D02*
X360045000Y-244038750D01*
%TO.N,Net-(R2-Pad1)*%
X363624258Y-318897000D02*
X364154120Y-319426862D01*
X363134953Y-318897000D02*
X363624258Y-318897000D01*
X360172000Y-248539000D02*
X360172000Y-315934046D01*
X361156250Y-247554750D02*
X360172000Y-248539000D01*
X361156250Y-246975000D02*
X361156250Y-247554750D01*
X360172000Y-315934046D02*
X360192977Y-315955023D01*
X360192977Y-315955023D02*
X363134953Y-318897000D01*
%TO.N,Net-(R3-Pad2)*%
X370575765Y-311668235D02*
X372491000Y-313583470D01*
X372491000Y-314625517D02*
X371083767Y-316032750D01*
X372491000Y-313583470D02*
X372491000Y-314625517D01*
X370575765Y-309763235D02*
X370575765Y-311668235D01*
X372671990Y-307667010D02*
X370575765Y-309763235D01*
X388505072Y-307667010D02*
X372671990Y-307667010D01*
X393440883Y-312602821D02*
X388505072Y-307667010D01*
%TO.N,Net-(R4-Pad2)*%
X370518082Y-332397612D02*
X371104235Y-332983765D01*
X370518082Y-329184936D02*
X370518082Y-332397612D01*
%TD*%
%TO.N,GND*%
X354963310Y-231876731D02*
X354910000Y-232164000D01*
X354910000Y-232664000D01*
X356268000Y-232664000D01*
X356268000Y-232644000D01*
X356522000Y-232644000D01*
X356522000Y-232664000D01*
X357880000Y-232664000D01*
X357880000Y-232164000D01*
X357826690Y-231876731D01*
X357732680Y-231641250D01*
X362357320Y-231641250D01*
X362263310Y-231876731D01*
X362210000Y-232164000D01*
X362210000Y-232664000D01*
X363568000Y-232664000D01*
X363568000Y-232644000D01*
X363822000Y-232644000D01*
X363822000Y-232664000D01*
X365180000Y-232664000D01*
X365180000Y-232164000D01*
X365126690Y-231876731D01*
X365032680Y-231641250D01*
X365252000Y-231641250D01*
X365252000Y-240030000D01*
X360807000Y-240030000D01*
X360807000Y-239054072D01*
X361095000Y-239054072D01*
X361219482Y-239041812D01*
X361244266Y-239034294D01*
X361263639Y-239040404D01*
X361363250Y-239051000D01*
X361522000Y-238892250D01*
X361522000Y-238887033D01*
X361546185Y-238867185D01*
X361625537Y-238770494D01*
X361684502Y-238660180D01*
X361720812Y-238540482D01*
X361733072Y-238416000D01*
X361733072Y-237418000D01*
X361768000Y-237418000D01*
X361768000Y-238892250D01*
X361926750Y-239051000D01*
X362026361Y-239040404D01*
X362145652Y-239002779D01*
X362255311Y-238942604D01*
X362351123Y-238862193D01*
X362429406Y-238764634D01*
X362486943Y-238654082D01*
X362530824Y-238721619D01*
X362734748Y-238930857D01*
X362975574Y-239096291D01*
X363244047Y-239211563D01*
X363338110Y-239232476D01*
X363568000Y-239111155D01*
X363568000Y-237418000D01*
X363822000Y-237418000D01*
X363822000Y-239111155D01*
X364051890Y-239232476D01*
X364145953Y-239211563D01*
X364414426Y-239096291D01*
X364655252Y-238930857D01*
X364859176Y-238721619D01*
X365018361Y-238476618D01*
X365126690Y-238205269D01*
X365180000Y-237918000D01*
X365180000Y-237418000D01*
X363822000Y-237418000D01*
X363568000Y-237418000D01*
X361768000Y-237418000D01*
X361733072Y-237418000D01*
X361733072Y-236166000D01*
X361720812Y-236041518D01*
X361684502Y-235921820D01*
X361625537Y-235811506D01*
X361546185Y-235714815D01*
X361522000Y-235694967D01*
X361522000Y-235689750D01*
X361768000Y-235689750D01*
X361768000Y-237164000D01*
X363568000Y-237164000D01*
X363568000Y-235470845D01*
X363822000Y-235470845D01*
X363822000Y-237164000D01*
X365180000Y-237164000D01*
X365180000Y-236664000D01*
X365126690Y-236376731D01*
X365018361Y-236105382D01*
X364859176Y-235860381D01*
X364655252Y-235651143D01*
X364414426Y-235485709D01*
X364145953Y-235370437D01*
X364051890Y-235349524D01*
X363822000Y-235470845D01*
X363568000Y-235470845D01*
X363338110Y-235349524D01*
X363244047Y-235370437D01*
X362975574Y-235485709D01*
X362734748Y-235651143D01*
X362530824Y-235860381D01*
X362486943Y-235927918D01*
X362429406Y-235817366D01*
X362351123Y-235719807D01*
X362255311Y-235639396D01*
X362145652Y-235579221D01*
X362026361Y-235541596D01*
X361926750Y-235531000D01*
X361768000Y-235689750D01*
X361522000Y-235689750D01*
X361363250Y-235531000D01*
X361263639Y-235541596D01*
X361244266Y-235547706D01*
X361219482Y-235540188D01*
X361095000Y-235527928D01*
X360595000Y-235527928D01*
X360470518Y-235540188D01*
X360445000Y-235547929D01*
X360419482Y-235540188D01*
X360295000Y-235527928D01*
X359795000Y-235527928D01*
X359670518Y-235540188D01*
X359645000Y-235547929D01*
X359619482Y-235540188D01*
X359495000Y-235527928D01*
X358995000Y-235527928D01*
X358870518Y-235540188D01*
X358845000Y-235547929D01*
X358819482Y-235540188D01*
X358695000Y-235527928D01*
X358195000Y-235527928D01*
X358070518Y-235540188D01*
X357950820Y-235576498D01*
X357840506Y-235635463D01*
X357743815Y-235714815D01*
X357664463Y-235811506D01*
X357605498Y-235921820D01*
X357603460Y-235928538D01*
X357559176Y-235860381D01*
X357355252Y-235651143D01*
X357114426Y-235485709D01*
X356845953Y-235370437D01*
X356751890Y-235349524D01*
X356522000Y-235470845D01*
X356522000Y-237164000D01*
X356542000Y-237164000D01*
X356542000Y-237418000D01*
X356522000Y-237418000D01*
X356522000Y-239111155D01*
X356751890Y-239232476D01*
X356845953Y-239211563D01*
X357114426Y-239096291D01*
X357355252Y-238930857D01*
X357559176Y-238721619D01*
X357603460Y-238653462D01*
X357605498Y-238660180D01*
X357619500Y-238686376D01*
X357619500Y-240030000D01*
X354457000Y-240030000D01*
X354457000Y-237418000D01*
X354910000Y-237418000D01*
X354910000Y-237918000D01*
X354963310Y-238205269D01*
X355071639Y-238476618D01*
X355230824Y-238721619D01*
X355434748Y-238930857D01*
X355675574Y-239096291D01*
X355944047Y-239211563D01*
X356038110Y-239232476D01*
X356268000Y-239111155D01*
X356268000Y-237418000D01*
X354910000Y-237418000D01*
X354457000Y-237418000D01*
X354457000Y-236664000D01*
X354910000Y-236664000D01*
X354910000Y-237164000D01*
X356268000Y-237164000D01*
X356268000Y-235470845D01*
X356038110Y-235349524D01*
X355944047Y-235370437D01*
X355675574Y-235485709D01*
X355434748Y-235651143D01*
X355230824Y-235860381D01*
X355071639Y-236105382D01*
X354963310Y-236376731D01*
X354910000Y-236664000D01*
X354457000Y-236664000D01*
X354457000Y-232918000D01*
X354910000Y-232918000D01*
X354910000Y-233418000D01*
X354963310Y-233705269D01*
X355071639Y-233976618D01*
X355230824Y-234221619D01*
X355434748Y-234430857D01*
X355675574Y-234596291D01*
X355944047Y-234711563D01*
X356038110Y-234732476D01*
X356268000Y-234611155D01*
X356268000Y-232918000D01*
X356522000Y-232918000D01*
X356522000Y-234611155D01*
X356751890Y-234732476D01*
X356845953Y-234711563D01*
X357114426Y-234596291D01*
X357355252Y-234430857D01*
X357559176Y-234221619D01*
X357718361Y-233976618D01*
X357826690Y-233705269D01*
X357880000Y-233418000D01*
X357880000Y-232918000D01*
X362210000Y-232918000D01*
X362210000Y-233418000D01*
X362263310Y-233705269D01*
X362371639Y-233976618D01*
X362530824Y-234221619D01*
X362734748Y-234430857D01*
X362975574Y-234596291D01*
X363244047Y-234711563D01*
X363338110Y-234732476D01*
X363568000Y-234611155D01*
X363568000Y-232918000D01*
X363822000Y-232918000D01*
X363822000Y-234611155D01*
X364051890Y-234732476D01*
X364145953Y-234711563D01*
X364414426Y-234596291D01*
X364655252Y-234430857D01*
X364859176Y-234221619D01*
X365018361Y-233976618D01*
X365126690Y-233705269D01*
X365180000Y-233418000D01*
X365180000Y-232918000D01*
X363822000Y-232918000D01*
X363568000Y-232918000D01*
X362210000Y-232918000D01*
X357880000Y-232918000D01*
X356522000Y-232918000D01*
X356268000Y-232918000D01*
X354910000Y-232918000D01*
X354457000Y-232918000D01*
X354457000Y-231641250D01*
X355057320Y-231641250D01*
X354963310Y-231876731D01*
%TA.AperFunction,Conductor*%
D18*
G36*
X354963310Y-231876731D02*
G01*
X354910000Y-232164000D01*
X354910000Y-232664000D01*
X356268000Y-232664000D01*
X356268000Y-232644000D01*
X356522000Y-232644000D01*
X356522000Y-232664000D01*
X357880000Y-232664000D01*
X357880000Y-232164000D01*
X357826690Y-231876731D01*
X357732680Y-231641250D01*
X362357320Y-231641250D01*
X362263310Y-231876731D01*
X362210000Y-232164000D01*
X362210000Y-232664000D01*
X363568000Y-232664000D01*
X363568000Y-232644000D01*
X363822000Y-232644000D01*
X363822000Y-232664000D01*
X365180000Y-232664000D01*
X365180000Y-232164000D01*
X365126690Y-231876731D01*
X365032680Y-231641250D01*
X365252000Y-231641250D01*
X365252000Y-240030000D01*
X360807000Y-240030000D01*
X360807000Y-239054072D01*
X361095000Y-239054072D01*
X361219482Y-239041812D01*
X361244266Y-239034294D01*
X361263639Y-239040404D01*
X361363250Y-239051000D01*
X361522000Y-238892250D01*
X361522000Y-238887033D01*
X361546185Y-238867185D01*
X361625537Y-238770494D01*
X361684502Y-238660180D01*
X361720812Y-238540482D01*
X361733072Y-238416000D01*
X361733072Y-237418000D01*
X361768000Y-237418000D01*
X361768000Y-238892250D01*
X361926750Y-239051000D01*
X362026361Y-239040404D01*
X362145652Y-239002779D01*
X362255311Y-238942604D01*
X362351123Y-238862193D01*
X362429406Y-238764634D01*
X362486943Y-238654082D01*
X362530824Y-238721619D01*
X362734748Y-238930857D01*
X362975574Y-239096291D01*
X363244047Y-239211563D01*
X363338110Y-239232476D01*
X363568000Y-239111155D01*
X363568000Y-237418000D01*
X363822000Y-237418000D01*
X363822000Y-239111155D01*
X364051890Y-239232476D01*
X364145953Y-239211563D01*
X364414426Y-239096291D01*
X364655252Y-238930857D01*
X364859176Y-238721619D01*
X365018361Y-238476618D01*
X365126690Y-238205269D01*
X365180000Y-237918000D01*
X365180000Y-237418000D01*
X363822000Y-237418000D01*
X363568000Y-237418000D01*
X361768000Y-237418000D01*
X361733072Y-237418000D01*
X361733072Y-236166000D01*
X361720812Y-236041518D01*
X361684502Y-235921820D01*
X361625537Y-235811506D01*
X361546185Y-235714815D01*
X361522000Y-235694967D01*
X361522000Y-235689750D01*
X361768000Y-235689750D01*
X361768000Y-237164000D01*
X363568000Y-237164000D01*
X363568000Y-235470845D01*
X363822000Y-235470845D01*
X363822000Y-237164000D01*
X365180000Y-237164000D01*
X365180000Y-236664000D01*
X365126690Y-236376731D01*
X365018361Y-236105382D01*
X364859176Y-235860381D01*
X364655252Y-235651143D01*
X364414426Y-235485709D01*
X364145953Y-235370437D01*
X364051890Y-235349524D01*
X363822000Y-235470845D01*
X363568000Y-235470845D01*
X363338110Y-235349524D01*
X363244047Y-235370437D01*
X362975574Y-235485709D01*
X362734748Y-235651143D01*
X362530824Y-235860381D01*
X362486943Y-235927918D01*
X362429406Y-235817366D01*
X362351123Y-235719807D01*
X362255311Y-235639396D01*
X362145652Y-235579221D01*
X362026361Y-235541596D01*
X361926750Y-235531000D01*
X361768000Y-235689750D01*
X361522000Y-235689750D01*
X361363250Y-235531000D01*
X361263639Y-235541596D01*
X361244266Y-235547706D01*
X361219482Y-235540188D01*
X361095000Y-235527928D01*
X360595000Y-235527928D01*
X360470518Y-235540188D01*
X360445000Y-235547929D01*
X360419482Y-235540188D01*
X360295000Y-235527928D01*
X359795000Y-235527928D01*
X359670518Y-235540188D01*
X359645000Y-235547929D01*
X359619482Y-235540188D01*
X359495000Y-235527928D01*
X358995000Y-235527928D01*
X358870518Y-235540188D01*
X358845000Y-235547929D01*
X358819482Y-235540188D01*
X358695000Y-235527928D01*
X358195000Y-235527928D01*
X358070518Y-235540188D01*
X357950820Y-235576498D01*
X357840506Y-235635463D01*
X357743815Y-235714815D01*
X357664463Y-235811506D01*
X357605498Y-235921820D01*
X357603460Y-235928538D01*
X357559176Y-235860381D01*
X357355252Y-235651143D01*
X357114426Y-235485709D01*
X356845953Y-235370437D01*
X356751890Y-235349524D01*
X356522000Y-235470845D01*
X356522000Y-237164000D01*
X356542000Y-237164000D01*
X356542000Y-237418000D01*
X356522000Y-237418000D01*
X356522000Y-239111155D01*
X356751890Y-239232476D01*
X356845953Y-239211563D01*
X357114426Y-239096291D01*
X357355252Y-238930857D01*
X357559176Y-238721619D01*
X357603460Y-238653462D01*
X357605498Y-238660180D01*
X357619500Y-238686376D01*
X357619500Y-240030000D01*
X354457000Y-240030000D01*
X354457000Y-237418000D01*
X354910000Y-237418000D01*
X354910000Y-237918000D01*
X354963310Y-238205269D01*
X355071639Y-238476618D01*
X355230824Y-238721619D01*
X355434748Y-238930857D01*
X355675574Y-239096291D01*
X355944047Y-239211563D01*
X356038110Y-239232476D01*
X356268000Y-239111155D01*
X356268000Y-237418000D01*
X354910000Y-237418000D01*
X354457000Y-237418000D01*
X354457000Y-236664000D01*
X354910000Y-236664000D01*
X354910000Y-237164000D01*
X356268000Y-237164000D01*
X356268000Y-235470845D01*
X356038110Y-235349524D01*
X355944047Y-235370437D01*
X355675574Y-235485709D01*
X355434748Y-235651143D01*
X355230824Y-235860381D01*
X355071639Y-236105382D01*
X354963310Y-236376731D01*
X354910000Y-236664000D01*
X354457000Y-236664000D01*
X354457000Y-232918000D01*
X354910000Y-232918000D01*
X354910000Y-233418000D01*
X354963310Y-233705269D01*
X355071639Y-233976618D01*
X355230824Y-234221619D01*
X355434748Y-234430857D01*
X355675574Y-234596291D01*
X355944047Y-234711563D01*
X356038110Y-234732476D01*
X356268000Y-234611155D01*
X356268000Y-232918000D01*
X356522000Y-232918000D01*
X356522000Y-234611155D01*
X356751890Y-234732476D01*
X356845953Y-234711563D01*
X357114426Y-234596291D01*
X357355252Y-234430857D01*
X357559176Y-234221619D01*
X357718361Y-233976618D01*
X357826690Y-233705269D01*
X357880000Y-233418000D01*
X357880000Y-232918000D01*
X362210000Y-232918000D01*
X362210000Y-233418000D01*
X362263310Y-233705269D01*
X362371639Y-233976618D01*
X362530824Y-234221619D01*
X362734748Y-234430857D01*
X362975574Y-234596291D01*
X363244047Y-234711563D01*
X363338110Y-234732476D01*
X363568000Y-234611155D01*
X363568000Y-232918000D01*
X363822000Y-232918000D01*
X363822000Y-234611155D01*
X364051890Y-234732476D01*
X364145953Y-234711563D01*
X364414426Y-234596291D01*
X364655252Y-234430857D01*
X364859176Y-234221619D01*
X365018361Y-233976618D01*
X365126690Y-233705269D01*
X365180000Y-233418000D01*
X365180000Y-232918000D01*
X363822000Y-232918000D01*
X363568000Y-232918000D01*
X362210000Y-232918000D01*
X357880000Y-232918000D01*
X356522000Y-232918000D01*
X356268000Y-232918000D01*
X354910000Y-232918000D01*
X354457000Y-232918000D01*
X354457000Y-231641250D01*
X355057320Y-231641250D01*
X354963310Y-231876731D01*
G37*
%TD.AperFunction*%
%TD*%
D17*
%TO.N,GND*%
X369342113Y-329300245D02*
X369756082Y-329714214D01*
X369756083Y-332360179D01*
X369752396Y-332397612D01*
X369767109Y-332546990D01*
X369768121Y-332550325D01*
X369729413Y-332677928D01*
X369719110Y-332782532D01*
X369681182Y-332778796D01*
X369556701Y-332791057D01*
X369437003Y-332827366D01*
X369326689Y-332886330D01*
X369229997Y-332965683D01*
X369071833Y-333128192D01*
X369071833Y-333352698D01*
X369813765Y-334094630D01*
X369827908Y-334080488D01*
X370007513Y-334260093D01*
X369993370Y-334274235D01*
X370735302Y-335016167D01*
X370959808Y-335016167D01*
X371122317Y-334858003D01*
X371201670Y-334761311D01*
X371260634Y-334650997D01*
X371296943Y-334531299D01*
X371309204Y-334406818D01*
X371305468Y-334368890D01*
X371410072Y-334358587D01*
X371576668Y-334308051D01*
X371730203Y-334225984D01*
X371864778Y-334115541D01*
X372236011Y-333744308D01*
X372346454Y-333609733D01*
X372428521Y-333456198D01*
X372479057Y-333289602D01*
X372496121Y-333116348D01*
X372479057Y-332943094D01*
X372428521Y-332776498D01*
X372346454Y-332622963D01*
X372236011Y-332488388D01*
X371599612Y-331851989D01*
X371465037Y-331741546D01*
X371311502Y-331659479D01*
X371280082Y-331649948D01*
X371280082Y-330381472D01*
X371305143Y-330360905D01*
X371526467Y-330139581D01*
X382397001Y-341010115D01*
X382397000Y-342198289D01*
X382355063Y-342240226D01*
X382241795Y-342409744D01*
X382163774Y-342598102D01*
X382124000Y-342798061D01*
X382124000Y-343001939D01*
X382163774Y-343201898D01*
X382241795Y-343390256D01*
X382355063Y-343559774D01*
X382499226Y-343703937D01*
X382668744Y-343817205D01*
X382857102Y-343895226D01*
X383057061Y-343935000D01*
X383260939Y-343935000D01*
X383460898Y-343895226D01*
X383649256Y-343817205D01*
X383818774Y-343703937D01*
X383860711Y-343662000D01*
X394551577Y-343662000D01*
X394589000Y-343665686D01*
X394626423Y-343662000D01*
X401447000Y-343662000D01*
X401447000Y-344043000D01*
X356616000Y-344043000D01*
X356616000Y-339786631D01*
X357200211Y-339202420D01*
X357229280Y-339178564D01*
X357256630Y-339145238D01*
X357324503Y-339062535D01*
X357395259Y-338930158D01*
X357395260Y-338930157D01*
X357438832Y-338786520D01*
X357449858Y-338674568D01*
X357449858Y-338674565D01*
X357453544Y-338637142D01*
X357449858Y-338599719D01*
X357449858Y-336706665D01*
X359093334Y-335063189D01*
X369204416Y-335063189D01*
X369204416Y-335287696D01*
X369495162Y-335582787D01*
X369591854Y-335662140D01*
X369702168Y-335721104D01*
X369821866Y-335757413D01*
X369946348Y-335769674D01*
X370070829Y-335757413D01*
X370190527Y-335721104D01*
X370300841Y-335662140D01*
X370397533Y-335582787D01*
X370555697Y-335420278D01*
X370555697Y-335195772D01*
X369813765Y-334453840D01*
X369204416Y-335063189D01*
X359093334Y-335063189D01*
X360014871Y-334141652D01*
X368318326Y-334141652D01*
X368330587Y-334266134D01*
X368366896Y-334385832D01*
X368425860Y-334496146D01*
X368505213Y-334592838D01*
X368800304Y-334883584D01*
X369024811Y-334883584D01*
X369634160Y-334274235D01*
X368892228Y-333532303D01*
X368667722Y-333532303D01*
X368505213Y-333690467D01*
X368425860Y-333787159D01*
X368366896Y-333897473D01*
X368330587Y-334017171D01*
X368318326Y-334141652D01*
X360014871Y-334141652D01*
X363326175Y-330830348D01*
X364726971Y-330830348D01*
X364739232Y-330954829D01*
X364775541Y-331074528D01*
X364834505Y-331184842D01*
X364913858Y-331281533D01*
X365067528Y-331430858D01*
X365292034Y-331430858D01*
X366051644Y-330671249D01*
X365451133Y-330070739D01*
X365226627Y-330070739D01*
X364913858Y-330379163D01*
X364834505Y-330475854D01*
X364775541Y-330586168D01*
X364739232Y-330705867D01*
X364726971Y-330830348D01*
X363326175Y-330830348D01*
X364845524Y-329311000D01*
X365991385Y-329311000D01*
X365939163Y-329353858D01*
X365630739Y-329666627D01*
X365630739Y-329891133D01*
X366231249Y-330491644D01*
X366245391Y-330477501D01*
X366424997Y-330657107D01*
X366410854Y-330671249D01*
X366424997Y-330685392D01*
X366245392Y-330864997D01*
X366231249Y-330850854D01*
X365471640Y-331610464D01*
X365471640Y-331834970D01*
X365620965Y-331988640D01*
X365717656Y-332067993D01*
X365827970Y-332126957D01*
X365947669Y-332163266D01*
X366072150Y-332175527D01*
X366174858Y-332165411D01*
X366174027Y-332173850D01*
X366191091Y-332347104D01*
X366241627Y-332513700D01*
X366323694Y-332667236D01*
X366434137Y-332801812D01*
X366787690Y-333155365D01*
X366922266Y-333265808D01*
X367075802Y-333347875D01*
X367242398Y-333398411D01*
X367415652Y-333415475D01*
X367588906Y-333398411D01*
X367755502Y-333347875D01*
X367909038Y-333265808D01*
X368043614Y-333155365D01*
X368715365Y-332483614D01*
X368825808Y-332349038D01*
X368907875Y-332195502D01*
X368958411Y-332028906D01*
X368975475Y-331855652D01*
X368958411Y-331682398D01*
X368907875Y-331515802D01*
X368825808Y-331362266D01*
X368715365Y-331227690D01*
X368400251Y-330912576D01*
X368400251Y-330189881D01*
X369289887Y-329300245D01*
X369316000Y-329268426D01*
X369342113Y-329300245D01*
%TA.AperFunction,Conductor*%
D18*
G36*
X369342113Y-329300245D02*
G01*
X369756082Y-329714214D01*
X369756083Y-332360179D01*
X369752396Y-332397612D01*
X369767109Y-332546990D01*
X369768121Y-332550325D01*
X369729413Y-332677928D01*
X369719110Y-332782532D01*
X369681182Y-332778796D01*
X369556701Y-332791057D01*
X369437003Y-332827366D01*
X369326689Y-332886330D01*
X369229997Y-332965683D01*
X369071833Y-333128192D01*
X369071833Y-333352698D01*
X369813765Y-334094630D01*
X369827908Y-334080488D01*
X370007513Y-334260093D01*
X369993370Y-334274235D01*
X370735302Y-335016167D01*
X370959808Y-335016167D01*
X371122317Y-334858003D01*
X371201670Y-334761311D01*
X371260634Y-334650997D01*
X371296943Y-334531299D01*
X371309204Y-334406818D01*
X371305468Y-334368890D01*
X371410072Y-334358587D01*
X371576668Y-334308051D01*
X371730203Y-334225984D01*
X371864778Y-334115541D01*
X372236011Y-333744308D01*
X372346454Y-333609733D01*
X372428521Y-333456198D01*
X372479057Y-333289602D01*
X372496121Y-333116348D01*
X372479057Y-332943094D01*
X372428521Y-332776498D01*
X372346454Y-332622963D01*
X372236011Y-332488388D01*
X371599612Y-331851989D01*
X371465037Y-331741546D01*
X371311502Y-331659479D01*
X371280082Y-331649948D01*
X371280082Y-330381472D01*
X371305143Y-330360905D01*
X371526467Y-330139581D01*
X382397001Y-341010115D01*
X382397000Y-342198289D01*
X382355063Y-342240226D01*
X382241795Y-342409744D01*
X382163774Y-342598102D01*
X382124000Y-342798061D01*
X382124000Y-343001939D01*
X382163774Y-343201898D01*
X382241795Y-343390256D01*
X382355063Y-343559774D01*
X382499226Y-343703937D01*
X382668744Y-343817205D01*
X382857102Y-343895226D01*
X383057061Y-343935000D01*
X383260939Y-343935000D01*
X383460898Y-343895226D01*
X383649256Y-343817205D01*
X383818774Y-343703937D01*
X383860711Y-343662000D01*
X394551577Y-343662000D01*
X394589000Y-343665686D01*
X394626423Y-343662000D01*
X401447000Y-343662000D01*
X401447000Y-344043000D01*
X356616000Y-344043000D01*
X356616000Y-339786631D01*
X357200211Y-339202420D01*
X357229280Y-339178564D01*
X357256630Y-339145238D01*
X357324503Y-339062535D01*
X357395259Y-338930158D01*
X357395260Y-338930157D01*
X357438832Y-338786520D01*
X357449858Y-338674568D01*
X357449858Y-338674565D01*
X357453544Y-338637142D01*
X357449858Y-338599719D01*
X357449858Y-336706665D01*
X359093334Y-335063189D01*
X369204416Y-335063189D01*
X369204416Y-335287696D01*
X369495162Y-335582787D01*
X369591854Y-335662140D01*
X369702168Y-335721104D01*
X369821866Y-335757413D01*
X369946348Y-335769674D01*
X370070829Y-335757413D01*
X370190527Y-335721104D01*
X370300841Y-335662140D01*
X370397533Y-335582787D01*
X370555697Y-335420278D01*
X370555697Y-335195772D01*
X369813765Y-334453840D01*
X369204416Y-335063189D01*
X359093334Y-335063189D01*
X360014871Y-334141652D01*
X368318326Y-334141652D01*
X368330587Y-334266134D01*
X368366896Y-334385832D01*
X368425860Y-334496146D01*
X368505213Y-334592838D01*
X368800304Y-334883584D01*
X369024811Y-334883584D01*
X369634160Y-334274235D01*
X368892228Y-333532303D01*
X368667722Y-333532303D01*
X368505213Y-333690467D01*
X368425860Y-333787159D01*
X368366896Y-333897473D01*
X368330587Y-334017171D01*
X368318326Y-334141652D01*
X360014871Y-334141652D01*
X363326175Y-330830348D01*
X364726971Y-330830348D01*
X364739232Y-330954829D01*
X364775541Y-331074528D01*
X364834505Y-331184842D01*
X364913858Y-331281533D01*
X365067528Y-331430858D01*
X365292034Y-331430858D01*
X366051644Y-330671249D01*
X365451133Y-330070739D01*
X365226627Y-330070739D01*
X364913858Y-330379163D01*
X364834505Y-330475854D01*
X364775541Y-330586168D01*
X364739232Y-330705867D01*
X364726971Y-330830348D01*
X363326175Y-330830348D01*
X364845524Y-329311000D01*
X365991385Y-329311000D01*
X365939163Y-329353858D01*
X365630739Y-329666627D01*
X365630739Y-329891133D01*
X366231249Y-330491644D01*
X366245391Y-330477501D01*
X366424997Y-330657107D01*
X366410854Y-330671249D01*
X366424997Y-330685392D01*
X366245392Y-330864997D01*
X366231249Y-330850854D01*
X365471640Y-331610464D01*
X365471640Y-331834970D01*
X365620965Y-331988640D01*
X365717656Y-332067993D01*
X365827970Y-332126957D01*
X365947669Y-332163266D01*
X366072150Y-332175527D01*
X366174858Y-332165411D01*
X366174027Y-332173850D01*
X366191091Y-332347104D01*
X366241627Y-332513700D01*
X366323694Y-332667236D01*
X366434137Y-332801812D01*
X366787690Y-333155365D01*
X366922266Y-333265808D01*
X367075802Y-333347875D01*
X367242398Y-333398411D01*
X367415652Y-333415475D01*
X367588906Y-333398411D01*
X367755502Y-333347875D01*
X367909038Y-333265808D01*
X368043614Y-333155365D01*
X368715365Y-332483614D01*
X368825808Y-332349038D01*
X368907875Y-332195502D01*
X368958411Y-332028906D01*
X368975475Y-331855652D01*
X368958411Y-331682398D01*
X368907875Y-331515802D01*
X368825808Y-331362266D01*
X368715365Y-331227690D01*
X368400251Y-330912576D01*
X368400251Y-330189881D01*
X369289887Y-329300245D01*
X369316000Y-329268426D01*
X369342113Y-329300245D01*
G37*
%TD.AperFunction*%
D17*
X356679501Y-308442438D02*
X356679500Y-308442448D01*
X356679501Y-314665438D01*
X356679500Y-314665448D01*
X356679501Y-322031440D01*
X356675506Y-322072000D01*
X356691445Y-322233826D01*
X356738647Y-322389433D01*
X356815301Y-322532842D01*
X356853948Y-322579933D01*
X356918460Y-322658541D01*
X356949961Y-322684393D01*
X358290620Y-324025053D01*
X358243589Y-324180094D01*
X358226525Y-324353348D01*
X358243589Y-324526602D01*
X358294125Y-324693198D01*
X358376192Y-324846734D01*
X358486635Y-324981310D01*
X358840188Y-325334863D01*
X358974764Y-325445306D01*
X359128300Y-325527373D01*
X359294896Y-325577909D01*
X359468150Y-325594973D01*
X359476589Y-325594142D01*
X359466473Y-325696850D01*
X359478734Y-325821331D01*
X359515043Y-325941030D01*
X359574007Y-326051344D01*
X359653360Y-326148035D01*
X359807030Y-326297360D01*
X360031536Y-326297360D01*
X360791146Y-325537751D01*
X360777004Y-325523609D01*
X360956609Y-325344003D01*
X360970751Y-325358146D01*
X360984894Y-325344004D01*
X361164499Y-325523609D01*
X361150356Y-325537751D01*
X361164499Y-325551893D01*
X360984893Y-325731499D01*
X360970751Y-325717356D01*
X360211142Y-326476966D01*
X360211142Y-326701472D01*
X360360467Y-326855142D01*
X360457158Y-326934495D01*
X360567472Y-326993459D01*
X360687171Y-327029768D01*
X360811652Y-327042029D01*
X360936133Y-327029768D01*
X361055832Y-326993459D01*
X361166146Y-326934495D01*
X361197029Y-326909150D01*
X361169000Y-327050061D01*
X361169000Y-327253939D01*
X361208774Y-327453898D01*
X361286795Y-327642256D01*
X361400063Y-327811774D01*
X361510644Y-327922355D01*
X357360324Y-332072675D01*
X357357226Y-332057102D01*
X357279205Y-331868744D01*
X357267349Y-331851000D01*
X357279205Y-331833256D01*
X357357226Y-331644898D01*
X357397000Y-331444939D01*
X357397000Y-331241061D01*
X357357226Y-331041102D01*
X357279205Y-330852744D01*
X357224920Y-330771500D01*
X357279205Y-330690256D01*
X357357226Y-330501898D01*
X357397000Y-330301939D01*
X357397000Y-330098061D01*
X357357226Y-329898102D01*
X357279205Y-329709744D01*
X357224920Y-329628500D01*
X357279205Y-329547256D01*
X357357226Y-329358898D01*
X357397000Y-329158939D01*
X357397000Y-328955061D01*
X357357226Y-328755102D01*
X357279205Y-328566744D01*
X357224920Y-328485500D01*
X357279205Y-328404256D01*
X357357226Y-328215898D01*
X357397000Y-328015939D01*
X357397000Y-327812061D01*
X357357226Y-327612102D01*
X357279205Y-327423744D01*
X357182490Y-327279000D01*
X357279205Y-327134256D01*
X357357226Y-326945898D01*
X357397000Y-326745939D01*
X357397000Y-326542061D01*
X357357226Y-326342102D01*
X357279205Y-326153744D01*
X357182490Y-326009000D01*
X357279205Y-325864256D01*
X357357226Y-325675898D01*
X357397000Y-325475939D01*
X357397000Y-325272061D01*
X357357226Y-325072102D01*
X357279205Y-324883744D01*
X357165937Y-324714226D01*
X357021774Y-324570063D01*
X356852256Y-324456795D01*
X356663898Y-324378774D01*
X356616000Y-324369247D01*
X356616000Y-307213000D01*
X356679501Y-307213000D01*
X356679501Y-308442438D01*
%TA.AperFunction,Conductor*%
D18*
G36*
X356679501Y-308442438D02*
G01*
X356679500Y-308442448D01*
X356679501Y-314665438D01*
X356679500Y-314665448D01*
X356679501Y-322031440D01*
X356675506Y-322072000D01*
X356691445Y-322233826D01*
X356738647Y-322389433D01*
X356815301Y-322532842D01*
X356853948Y-322579933D01*
X356918460Y-322658541D01*
X356949961Y-322684393D01*
X358290620Y-324025053D01*
X358243589Y-324180094D01*
X358226525Y-324353348D01*
X358243589Y-324526602D01*
X358294125Y-324693198D01*
X358376192Y-324846734D01*
X358486635Y-324981310D01*
X358840188Y-325334863D01*
X358974764Y-325445306D01*
X359128300Y-325527373D01*
X359294896Y-325577909D01*
X359468150Y-325594973D01*
X359476589Y-325594142D01*
X359466473Y-325696850D01*
X359478734Y-325821331D01*
X359515043Y-325941030D01*
X359574007Y-326051344D01*
X359653360Y-326148035D01*
X359807030Y-326297360D01*
X360031536Y-326297360D01*
X360791146Y-325537751D01*
X360777004Y-325523609D01*
X360956609Y-325344003D01*
X360970751Y-325358146D01*
X360984894Y-325344004D01*
X361164499Y-325523609D01*
X361150356Y-325537751D01*
X361164499Y-325551893D01*
X360984893Y-325731499D01*
X360970751Y-325717356D01*
X360211142Y-326476966D01*
X360211142Y-326701472D01*
X360360467Y-326855142D01*
X360457158Y-326934495D01*
X360567472Y-326993459D01*
X360687171Y-327029768D01*
X360811652Y-327042029D01*
X360936133Y-327029768D01*
X361055832Y-326993459D01*
X361166146Y-326934495D01*
X361197029Y-326909150D01*
X361169000Y-327050061D01*
X361169000Y-327253939D01*
X361208774Y-327453898D01*
X361286795Y-327642256D01*
X361400063Y-327811774D01*
X361510644Y-327922355D01*
X357360324Y-332072675D01*
X357357226Y-332057102D01*
X357279205Y-331868744D01*
X357267349Y-331851000D01*
X357279205Y-331833256D01*
X357357226Y-331644898D01*
X357397000Y-331444939D01*
X357397000Y-331241061D01*
X357357226Y-331041102D01*
X357279205Y-330852744D01*
X357224920Y-330771500D01*
X357279205Y-330690256D01*
X357357226Y-330501898D01*
X357397000Y-330301939D01*
X357397000Y-330098061D01*
X357357226Y-329898102D01*
X357279205Y-329709744D01*
X357224920Y-329628500D01*
X357279205Y-329547256D01*
X357357226Y-329358898D01*
X357397000Y-329158939D01*
X357397000Y-328955061D01*
X357357226Y-328755102D01*
X357279205Y-328566744D01*
X357224920Y-328485500D01*
X357279205Y-328404256D01*
X357357226Y-328215898D01*
X357397000Y-328015939D01*
X357397000Y-327812061D01*
X357357226Y-327612102D01*
X357279205Y-327423744D01*
X357182490Y-327279000D01*
X357279205Y-327134256D01*
X357357226Y-326945898D01*
X357397000Y-326745939D01*
X357397000Y-326542061D01*
X357357226Y-326342102D01*
X357279205Y-326153744D01*
X357182490Y-326009000D01*
X357279205Y-325864256D01*
X357357226Y-325675898D01*
X357397000Y-325475939D01*
X357397000Y-325272061D01*
X357357226Y-325072102D01*
X357279205Y-324883744D01*
X357165937Y-324714226D01*
X357021774Y-324570063D01*
X356852256Y-324456795D01*
X356663898Y-324378774D01*
X356616000Y-324369247D01*
X356616000Y-307213000D01*
X356679501Y-307213000D01*
X356679501Y-308442438D01*
G37*
%TD.AperFunction*%
D17*
X368418539Y-327569336D02*
X368338660Y-327649215D01*
X368333144Y-327593207D01*
X368325520Y-327568074D01*
X368325520Y-327437851D01*
X368238450Y-327364282D01*
X368237869Y-327363195D01*
X368158517Y-327266504D01*
X367769609Y-326877596D01*
X367672918Y-326798244D01*
X367672438Y-326797988D01*
X367672183Y-326797510D01*
X367592831Y-326700819D01*
X367203923Y-326311911D01*
X367107232Y-326232559D01*
X367106754Y-326232304D01*
X367106498Y-326231824D01*
X367027146Y-326135133D01*
X366638238Y-325746225D01*
X366541547Y-325666873D01*
X366541067Y-325666617D01*
X366540812Y-325666139D01*
X366461460Y-325569448D01*
X366072552Y-325180540D01*
X365975861Y-325101188D01*
X365975383Y-325100933D01*
X365975127Y-325100453D01*
X365895775Y-325003762D01*
X365506867Y-324614854D01*
X365410176Y-324535502D01*
X365409696Y-324535246D01*
X365409441Y-324534768D01*
X365330089Y-324438077D01*
X364941181Y-324049169D01*
X364844490Y-323969817D01*
X364844012Y-323969562D01*
X364843756Y-323969082D01*
X364764404Y-323872391D01*
X364375496Y-323483483D01*
X364278805Y-323404131D01*
X364277718Y-323403550D01*
X364204149Y-323316480D01*
X364073926Y-323316480D01*
X364048793Y-323308856D01*
X363992785Y-323303340D01*
X364057837Y-323238288D01*
X368418538Y-323238288D01*
X368418539Y-327569336D01*
%TA.AperFunction,Conductor*%
D18*
G36*
X368418539Y-327569336D02*
G01*
X368338660Y-327649215D01*
X368333144Y-327593207D01*
X368325520Y-327568074D01*
X368325520Y-327437851D01*
X368238450Y-327364282D01*
X368237869Y-327363195D01*
X368158517Y-327266504D01*
X367769609Y-326877596D01*
X367672918Y-326798244D01*
X367672438Y-326797988D01*
X367672183Y-326797510D01*
X367592831Y-326700819D01*
X367203923Y-326311911D01*
X367107232Y-326232559D01*
X367106754Y-326232304D01*
X367106498Y-326231824D01*
X367027146Y-326135133D01*
X366638238Y-325746225D01*
X366541547Y-325666873D01*
X366541067Y-325666617D01*
X366540812Y-325666139D01*
X366461460Y-325569448D01*
X366072552Y-325180540D01*
X365975861Y-325101188D01*
X365975383Y-325100933D01*
X365975127Y-325100453D01*
X365895775Y-325003762D01*
X365506867Y-324614854D01*
X365410176Y-324535502D01*
X365409696Y-324535246D01*
X365409441Y-324534768D01*
X365330089Y-324438077D01*
X364941181Y-324049169D01*
X364844490Y-323969817D01*
X364844012Y-323969562D01*
X364843756Y-323969082D01*
X364764404Y-323872391D01*
X364375496Y-323483483D01*
X364278805Y-323404131D01*
X364277718Y-323403550D01*
X364204149Y-323316480D01*
X364073926Y-323316480D01*
X364048793Y-323308856D01*
X363992785Y-323303340D01*
X364057837Y-323238288D01*
X368418538Y-323238288D01*
X368418539Y-327569336D01*
G37*
%TD.AperFunction*%
D17*
X392176000Y-307978686D02*
X392213423Y-307975000D01*
X401447000Y-307975000D01*
X401447000Y-325501000D01*
X380656423Y-325501000D01*
X380619000Y-325497314D01*
X380581577Y-325501000D01*
X380581574Y-325501000D01*
X380469622Y-325512026D01*
X380325985Y-325555598D01*
X380280598Y-325579858D01*
X380193607Y-325626355D01*
X380114310Y-325691433D01*
X380077578Y-325721578D01*
X380053721Y-325750649D01*
X379474118Y-326330252D01*
X379331256Y-326234795D01*
X379142898Y-326156774D01*
X378942939Y-326117000D01*
X378874774Y-326117000D01*
X378949057Y-326026485D01*
X379031124Y-325872949D01*
X379081660Y-325706353D01*
X379098724Y-325533099D01*
X379097893Y-325524660D01*
X379200601Y-325534776D01*
X379325082Y-325522515D01*
X379444781Y-325486206D01*
X379555095Y-325427242D01*
X379651786Y-325347889D01*
X379801111Y-325194219D01*
X379801111Y-324969713D01*
X379041502Y-324210103D01*
X379027360Y-324224246D01*
X378847755Y-324044641D01*
X378861897Y-324030498D01*
X379221107Y-324030498D01*
X379980717Y-324790107D01*
X380205223Y-324790107D01*
X380358893Y-324640782D01*
X380438246Y-324544091D01*
X380497210Y-324433777D01*
X380533519Y-324314078D01*
X380545780Y-324189597D01*
X380533519Y-324065116D01*
X380497210Y-323945417D01*
X380438246Y-323835103D01*
X380358893Y-323738412D01*
X380046124Y-323429988D01*
X379821618Y-323429988D01*
X379221107Y-324030498D01*
X378861897Y-324030498D01*
X378102287Y-323270889D01*
X377877781Y-323270889D01*
X377724111Y-323420214D01*
X377644758Y-323516905D01*
X377585794Y-323627219D01*
X377549485Y-323746918D01*
X377537224Y-323871399D01*
X377547340Y-323974107D01*
X377538901Y-323973276D01*
X377527165Y-323974432D01*
X377537785Y-323860745D01*
X377524898Y-323736326D01*
X377487985Y-323616813D01*
X377428466Y-323506797D01*
X377348628Y-323410506D01*
X377020459Y-323086671D01*
X376795953Y-323086671D01*
X376354541Y-323528082D01*
X376368684Y-323542225D01*
X376358835Y-323552074D01*
X376150945Y-323344184D01*
X376160794Y-323334335D01*
X376174936Y-323348477D01*
X376616347Y-322907065D01*
X376616347Y-322866777D01*
X378281893Y-322866777D01*
X378281893Y-323091283D01*
X379041502Y-323850893D01*
X379642012Y-323250382D01*
X379642012Y-323025876D01*
X379333588Y-322713107D01*
X379236897Y-322633754D01*
X379126583Y-322574790D01*
X379006884Y-322538481D01*
X378882403Y-322526220D01*
X378757922Y-322538481D01*
X378638223Y-322574790D01*
X378527909Y-322633754D01*
X378431218Y-322713107D01*
X378281893Y-322866777D01*
X376616347Y-322866777D01*
X376616347Y-322682559D01*
X376292512Y-322354390D01*
X376258348Y-322326064D01*
X376290245Y-322299887D01*
X377350905Y-321239227D01*
X377430257Y-321142536D01*
X377489222Y-321032222D01*
X377525532Y-320912524D01*
X377532259Y-320844226D01*
X377562217Y-320814268D01*
X377596061Y-320821000D01*
X377799939Y-320821000D01*
X377999898Y-320781226D01*
X378188256Y-320703205D01*
X378243732Y-320666137D01*
X390789764Y-320666137D01*
X390789764Y-320890644D01*
X390974445Y-321079669D01*
X391071136Y-321159022D01*
X391181450Y-321217986D01*
X391301148Y-321254295D01*
X391425630Y-321266556D01*
X391550111Y-321254295D01*
X391669809Y-321217986D01*
X391780123Y-321159022D01*
X391876815Y-321079669D01*
X392308983Y-320643156D01*
X392308983Y-320418650D01*
X391673117Y-319782784D01*
X390789764Y-320666137D01*
X378243732Y-320666137D01*
X378357774Y-320589937D01*
X378501937Y-320445774D01*
X378615205Y-320276256D01*
X378693226Y-320087898D01*
X378733000Y-319887939D01*
X378733000Y-319850666D01*
X390009740Y-319850666D01*
X390022001Y-319975148D01*
X390058310Y-320094846D01*
X390117274Y-320205160D01*
X390196627Y-320301851D01*
X390385652Y-320486532D01*
X390610159Y-320486532D01*
X391493512Y-319603179D01*
X391852722Y-319603179D01*
X392488588Y-320239045D01*
X392713094Y-320239045D01*
X393149607Y-319806877D01*
X393228960Y-319710185D01*
X393287924Y-319599871D01*
X393324233Y-319480173D01*
X393336494Y-319355692D01*
X393324233Y-319231210D01*
X393287924Y-319111512D01*
X393228960Y-319001198D01*
X393149607Y-318904507D01*
X392960582Y-318719826D01*
X392736075Y-318719826D01*
X391852722Y-319603179D01*
X391493512Y-319603179D01*
X390857646Y-318967313D01*
X390633140Y-318967313D01*
X390196627Y-319399481D01*
X390117274Y-319496173D01*
X390058310Y-319606487D01*
X390022001Y-319726185D01*
X390009740Y-319850666D01*
X378733000Y-319850666D01*
X378733000Y-319684061D01*
X378693226Y-319484102D01*
X378615205Y-319295744D01*
X378603349Y-319278000D01*
X378615205Y-319260256D01*
X378693226Y-319071898D01*
X378733000Y-318871939D01*
X378733000Y-318668061D01*
X378693226Y-318468102D01*
X378615205Y-318279744D01*
X378501937Y-318110226D01*
X378357774Y-317966063D01*
X378188256Y-317852795D01*
X377999898Y-317774774D01*
X377799939Y-317735000D01*
X377596061Y-317735000D01*
X377562193Y-317741737D01*
X377590000Y-317601939D01*
X377590000Y-317398061D01*
X377550226Y-317198102D01*
X377472205Y-317009744D01*
X377417920Y-316928500D01*
X377472205Y-316847256D01*
X377550226Y-316658898D01*
X377590000Y-316458939D01*
X377590000Y-316255061D01*
X377550226Y-316055102D01*
X377523097Y-315989608D01*
X380505379Y-315989608D01*
X381113803Y-316598032D01*
X381210494Y-316677384D01*
X381320808Y-316736349D01*
X381440506Y-316772659D01*
X381564988Y-316784919D01*
X381689470Y-316772659D01*
X381809168Y-316736349D01*
X381854817Y-316711949D01*
X382117229Y-316974361D01*
X382102525Y-317123652D01*
X382119589Y-317296906D01*
X382170125Y-317463502D01*
X382252192Y-317617038D01*
X382362635Y-317751614D01*
X383034386Y-318423365D01*
X383168962Y-318533808D01*
X383322498Y-318615875D01*
X383489094Y-318666411D01*
X383662348Y-318683475D01*
X383835602Y-318666411D01*
X384002198Y-318615875D01*
X384155734Y-318533808D01*
X384290310Y-318423365D01*
X384643863Y-318069812D01*
X384754306Y-317935236D01*
X384836373Y-317781700D01*
X384886909Y-317615104D01*
X384903973Y-317441850D01*
X384903142Y-317433411D01*
X385005850Y-317443527D01*
X385130331Y-317431266D01*
X385250030Y-317394957D01*
X385360344Y-317335993D01*
X385457035Y-317256640D01*
X385478675Y-317234370D01*
X387393444Y-317234370D01*
X387405704Y-317358852D01*
X387442014Y-317478550D01*
X387500979Y-317588864D01*
X387580331Y-317685555D01*
X388358149Y-318463373D01*
X388454840Y-318542725D01*
X388565154Y-318601690D01*
X388684852Y-318638000D01*
X388809334Y-318650260D01*
X388933816Y-318638000D01*
X389053514Y-318601690D01*
X389125518Y-318563202D01*
X391037251Y-318563202D01*
X391037251Y-318787708D01*
X391673117Y-319423574D01*
X392556470Y-318540221D01*
X392556470Y-318315714D01*
X392371789Y-318126689D01*
X392275098Y-318047336D01*
X392164784Y-317988372D01*
X392045086Y-317952063D01*
X391920604Y-317939802D01*
X391796123Y-317952063D01*
X391676425Y-317988372D01*
X391566111Y-318047336D01*
X391469419Y-318126689D01*
X391037251Y-318563202D01*
X389125518Y-318563202D01*
X389163828Y-318542725D01*
X389260519Y-318463373D01*
X390533311Y-317190581D01*
X390612663Y-317093890D01*
X390671628Y-316983576D01*
X390707938Y-316863878D01*
X390720198Y-316739396D01*
X390707938Y-316614914D01*
X390671628Y-316495216D01*
X390612663Y-316384902D01*
X390533311Y-316288211D01*
X389755493Y-315510393D01*
X389702136Y-315466604D01*
X394393802Y-315466604D01*
X394406062Y-315591086D01*
X394442372Y-315710784D01*
X394501337Y-315821098D01*
X394580689Y-315917789D01*
X395358507Y-316695607D01*
X395455198Y-316774959D01*
X395565512Y-316833924D01*
X395685210Y-316870234D01*
X395809692Y-316882494D01*
X395934174Y-316870234D01*
X396053872Y-316833924D01*
X396164186Y-316774959D01*
X396260877Y-316695607D01*
X397533669Y-315422815D01*
X397613021Y-315326124D01*
X397671986Y-315215810D01*
X397708296Y-315096112D01*
X397720556Y-314971630D01*
X397708296Y-314847148D01*
X397671986Y-314727450D01*
X397613021Y-314617136D01*
X397533669Y-314520445D01*
X396755851Y-313742627D01*
X396659160Y-313663275D01*
X396548846Y-313604310D01*
X396429148Y-313568000D01*
X396304666Y-313555740D01*
X396180184Y-313568000D01*
X396060486Y-313604310D01*
X395950172Y-313663275D01*
X395853481Y-313742627D01*
X394580689Y-315015419D01*
X394501337Y-315112110D01*
X394442372Y-315222424D01*
X394406062Y-315342122D01*
X394393802Y-315466604D01*
X389702136Y-315466604D01*
X389658802Y-315431041D01*
X389548488Y-315372076D01*
X389428790Y-315335766D01*
X389304308Y-315323506D01*
X389179826Y-315335766D01*
X389060128Y-315372076D01*
X388949814Y-315431041D01*
X388853123Y-315510393D01*
X387580331Y-316783185D01*
X387500979Y-316879876D01*
X387442014Y-316990190D01*
X387405704Y-317109888D01*
X387393444Y-317234370D01*
X385478675Y-317234370D01*
X385606360Y-317102970D01*
X385606360Y-316878464D01*
X384846751Y-316118854D01*
X384832609Y-316132997D01*
X384653004Y-315953392D01*
X384667146Y-315939249D01*
X385026356Y-315939249D01*
X385785966Y-316698858D01*
X386010472Y-316698858D01*
X386164142Y-316549533D01*
X386243495Y-316452842D01*
X386302459Y-316342528D01*
X386338768Y-316222829D01*
X386351029Y-316098348D01*
X386338768Y-315973867D01*
X386302459Y-315854168D01*
X386243495Y-315743854D01*
X386164142Y-315647163D01*
X385851373Y-315338739D01*
X385626867Y-315338739D01*
X385026356Y-315939249D01*
X384667146Y-315939249D01*
X383907536Y-315179640D01*
X383683030Y-315179640D01*
X383529360Y-315328965D01*
X383450007Y-315425656D01*
X383391043Y-315535970D01*
X383354734Y-315655669D01*
X383342473Y-315780150D01*
X383352589Y-315882858D01*
X383344150Y-315882027D01*
X383194859Y-315896731D01*
X382946452Y-315648324D01*
X383003018Y-315542499D01*
X383004934Y-315536183D01*
X383011248Y-315534268D01*
X383121563Y-315475304D01*
X383218254Y-315395951D01*
X383438290Y-315171570D01*
X383438290Y-314947064D01*
X383266754Y-314775528D01*
X384087142Y-314775528D01*
X384087142Y-315000034D01*
X384846751Y-315759644D01*
X385447261Y-315159133D01*
X385447261Y-314934627D01*
X385138837Y-314621858D01*
X385042146Y-314542505D01*
X384931832Y-314483541D01*
X384812133Y-314447232D01*
X384687652Y-314434971D01*
X384563171Y-314447232D01*
X384443472Y-314483541D01*
X384333158Y-314542505D01*
X384236467Y-314621858D01*
X384087142Y-314775528D01*
X383266754Y-314775528D01*
X382696358Y-314205132D01*
X382682216Y-314219275D01*
X382502611Y-314039670D01*
X382516753Y-314025527D01*
X382875963Y-314025527D01*
X383617895Y-314767459D01*
X383842401Y-314767459D01*
X384066782Y-314547423D01*
X384146135Y-314450732D01*
X384205099Y-314340417D01*
X384241408Y-314220719D01*
X384253669Y-314096238D01*
X384241408Y-313971756D01*
X384205099Y-313852058D01*
X384146135Y-313741744D01*
X384066782Y-313645053D01*
X383771691Y-313354306D01*
X383547184Y-313354306D01*
X382875963Y-314025527D01*
X382516753Y-314025527D01*
X382502611Y-314011385D01*
X382682216Y-313831780D01*
X382696358Y-313845922D01*
X383367579Y-313174701D01*
X383367579Y-312950194D01*
X383076832Y-312655103D01*
X382980141Y-312575750D01*
X382869827Y-312516786D01*
X382750129Y-312480477D01*
X382691544Y-312474707D01*
X382685774Y-312416121D01*
X382649464Y-312296423D01*
X382590499Y-312186109D01*
X382511147Y-312089418D01*
X381521197Y-311099468D01*
X381424506Y-311020116D01*
X381314192Y-310961151D01*
X381194494Y-310924841D01*
X381070012Y-310912581D01*
X380945530Y-310924841D01*
X380918249Y-310933117D01*
X380644771Y-310659639D01*
X380659475Y-310510348D01*
X380642411Y-310337094D01*
X380591875Y-310170498D01*
X380509808Y-310016962D01*
X380399365Y-309882386D01*
X379727614Y-309210635D01*
X379593038Y-309100192D01*
X379439502Y-309018125D01*
X379272906Y-308967589D01*
X379099652Y-308950525D01*
X378926398Y-308967589D01*
X378759802Y-309018125D01*
X378606266Y-309100192D01*
X378471690Y-309210635D01*
X378118137Y-309564188D01*
X378007694Y-309698764D01*
X377925627Y-309852300D01*
X377875091Y-310018896D01*
X377858027Y-310192150D01*
X377858858Y-310200589D01*
X377756150Y-310190473D01*
X377631669Y-310202734D01*
X377511970Y-310239043D01*
X377401656Y-310298007D01*
X377304965Y-310377360D01*
X377155640Y-310531030D01*
X377155640Y-310755536D01*
X377915249Y-311515146D01*
X377929392Y-311501004D01*
X378108997Y-311680609D01*
X378094854Y-311694751D01*
X378108997Y-311708893D01*
X377929391Y-311888499D01*
X377915249Y-311874356D01*
X377314739Y-312474867D01*
X377314739Y-312699373D01*
X377524888Y-312912482D01*
X377509370Y-312928000D01*
X376858051Y-312928000D01*
X376820628Y-312924314D01*
X376783205Y-312928000D01*
X376783203Y-312928000D01*
X376671251Y-312939026D01*
X376527614Y-312982598D01*
X376395237Y-313053355D01*
X376279207Y-313148578D01*
X376255350Y-313177648D01*
X373221351Y-316211647D01*
X373212512Y-316202808D01*
X373644288Y-315771032D01*
X373675790Y-315745179D01*
X373751439Y-315653000D01*
X373778947Y-315619482D01*
X373805087Y-315570577D01*
X373855602Y-315476072D01*
X373902805Y-315320464D01*
X373914749Y-315199191D01*
X373914749Y-315199182D01*
X373918742Y-315158639D01*
X373914749Y-315118096D01*
X373914749Y-314611877D01*
X373919158Y-314615495D01*
X374029472Y-314674459D01*
X374149171Y-314710768D01*
X374273652Y-314723029D01*
X374398133Y-314710768D01*
X374517832Y-314674459D01*
X374628146Y-314615495D01*
X374724837Y-314536142D01*
X375033261Y-314223373D01*
X375033261Y-313998867D01*
X374432751Y-313398356D01*
X374418609Y-313412499D01*
X374239004Y-313232894D01*
X374253146Y-313218751D01*
X374612356Y-313218751D01*
X375212867Y-313819261D01*
X375437373Y-313819261D01*
X375750142Y-313510837D01*
X375829495Y-313414146D01*
X375888459Y-313303832D01*
X375924768Y-313184133D01*
X375937029Y-313059652D01*
X375924768Y-312935171D01*
X375888459Y-312815472D01*
X375829495Y-312705158D01*
X375750142Y-312608467D01*
X375596472Y-312459142D01*
X375371966Y-312459142D01*
X374612356Y-313218751D01*
X374253146Y-313218751D01*
X374239003Y-313204609D01*
X374418609Y-313025004D01*
X374432751Y-313039146D01*
X375192360Y-312279536D01*
X375192360Y-312055030D01*
X375043035Y-311901360D01*
X374946344Y-311822007D01*
X374836030Y-311763043D01*
X374716331Y-311726734D01*
X374591850Y-311714473D01*
X374489142Y-311724589D01*
X374489973Y-311716150D01*
X374472909Y-311542896D01*
X374470712Y-311535652D01*
X376410971Y-311535652D01*
X376423232Y-311660133D01*
X376459541Y-311779832D01*
X376518505Y-311890146D01*
X376597858Y-311986837D01*
X376910627Y-312295261D01*
X377135133Y-312295261D01*
X377735644Y-311694751D01*
X376976034Y-310935142D01*
X376751528Y-310935142D01*
X376597858Y-311084467D01*
X376518505Y-311181158D01*
X376459541Y-311291472D01*
X376423232Y-311411171D01*
X376410971Y-311535652D01*
X374470712Y-311535652D01*
X374422373Y-311376300D01*
X374340306Y-311222764D01*
X374229863Y-311088188D01*
X373876310Y-310734635D01*
X373741734Y-310624192D01*
X373588198Y-310542125D01*
X373421602Y-310491589D01*
X373254654Y-310475146D01*
X373241057Y-310337094D01*
X373190521Y-310170498D01*
X373108454Y-310016963D01*
X372998011Y-309882388D01*
X372361612Y-309245989D01*
X372256722Y-309159908D01*
X372987621Y-308429010D01*
X388189442Y-308429010D01*
X392061974Y-312301542D01*
X391964393Y-312399123D01*
X391885041Y-312495814D01*
X391826076Y-312606128D01*
X391789766Y-312725826D01*
X391777506Y-312850308D01*
X391789766Y-312974790D01*
X391826076Y-313094488D01*
X391885041Y-313204802D01*
X391964393Y-313301493D01*
X392742211Y-314079311D01*
X392838902Y-314158663D01*
X392949216Y-314217628D01*
X393068914Y-314253938D01*
X393193396Y-314266198D01*
X393317878Y-314253938D01*
X393437576Y-314217628D01*
X393547890Y-314158663D01*
X393644581Y-314079311D01*
X394917373Y-312806519D01*
X394996725Y-312709828D01*
X395055690Y-312599514D01*
X395092000Y-312479816D01*
X395104260Y-312355334D01*
X395092000Y-312230852D01*
X395055690Y-312111154D01*
X394996725Y-312000840D01*
X394917373Y-311904149D01*
X394139555Y-311126331D01*
X394042864Y-311046979D01*
X393932550Y-310988014D01*
X393812852Y-310951704D01*
X393688370Y-310939444D01*
X393563888Y-310951704D01*
X393444190Y-310988014D01*
X393333876Y-311046979D01*
X393237185Y-311126331D01*
X393139604Y-311223912D01*
X389890692Y-307975000D01*
X392138577Y-307975000D01*
X392176000Y-307978686D01*
%TA.AperFunction,Conductor*%
D18*
G36*
X392176000Y-307978686D02*
G01*
X392213423Y-307975000D01*
X401447000Y-307975000D01*
X401447000Y-325501000D01*
X380656423Y-325501000D01*
X380619000Y-325497314D01*
X380581577Y-325501000D01*
X380581574Y-325501000D01*
X380469622Y-325512026D01*
X380325985Y-325555598D01*
X380280598Y-325579858D01*
X380193607Y-325626355D01*
X380114310Y-325691433D01*
X380077578Y-325721578D01*
X380053721Y-325750649D01*
X379474118Y-326330252D01*
X379331256Y-326234795D01*
X379142898Y-326156774D01*
X378942939Y-326117000D01*
X378874774Y-326117000D01*
X378949057Y-326026485D01*
X379031124Y-325872949D01*
X379081660Y-325706353D01*
X379098724Y-325533099D01*
X379097893Y-325524660D01*
X379200601Y-325534776D01*
X379325082Y-325522515D01*
X379444781Y-325486206D01*
X379555095Y-325427242D01*
X379651786Y-325347889D01*
X379801111Y-325194219D01*
X379801111Y-324969713D01*
X379041502Y-324210103D01*
X379027360Y-324224246D01*
X378847755Y-324044641D01*
X378861897Y-324030498D01*
X379221107Y-324030498D01*
X379980717Y-324790107D01*
X380205223Y-324790107D01*
X380358893Y-324640782D01*
X380438246Y-324544091D01*
X380497210Y-324433777D01*
X380533519Y-324314078D01*
X380545780Y-324189597D01*
X380533519Y-324065116D01*
X380497210Y-323945417D01*
X380438246Y-323835103D01*
X380358893Y-323738412D01*
X380046124Y-323429988D01*
X379821618Y-323429988D01*
X379221107Y-324030498D01*
X378861897Y-324030498D01*
X378102287Y-323270889D01*
X377877781Y-323270889D01*
X377724111Y-323420214D01*
X377644758Y-323516905D01*
X377585794Y-323627219D01*
X377549485Y-323746918D01*
X377537224Y-323871399D01*
X377547340Y-323974107D01*
X377538901Y-323973276D01*
X377527165Y-323974432D01*
X377537785Y-323860745D01*
X377524898Y-323736326D01*
X377487985Y-323616813D01*
X377428466Y-323506797D01*
X377348628Y-323410506D01*
X377020459Y-323086671D01*
X376795953Y-323086671D01*
X376354541Y-323528082D01*
X376368684Y-323542225D01*
X376358835Y-323552074D01*
X376150945Y-323344184D01*
X376160794Y-323334335D01*
X376174936Y-323348477D01*
X376616347Y-322907065D01*
X376616347Y-322866777D01*
X378281893Y-322866777D01*
X378281893Y-323091283D01*
X379041502Y-323850893D01*
X379642012Y-323250382D01*
X379642012Y-323025876D01*
X379333588Y-322713107D01*
X379236897Y-322633754D01*
X379126583Y-322574790D01*
X379006884Y-322538481D01*
X378882403Y-322526220D01*
X378757922Y-322538481D01*
X378638223Y-322574790D01*
X378527909Y-322633754D01*
X378431218Y-322713107D01*
X378281893Y-322866777D01*
X376616347Y-322866777D01*
X376616347Y-322682559D01*
X376292512Y-322354390D01*
X376258348Y-322326064D01*
X376290245Y-322299887D01*
X377350905Y-321239227D01*
X377430257Y-321142536D01*
X377489222Y-321032222D01*
X377525532Y-320912524D01*
X377532259Y-320844226D01*
X377562217Y-320814268D01*
X377596061Y-320821000D01*
X377799939Y-320821000D01*
X377999898Y-320781226D01*
X378188256Y-320703205D01*
X378243732Y-320666137D01*
X390789764Y-320666137D01*
X390789764Y-320890644D01*
X390974445Y-321079669D01*
X391071136Y-321159022D01*
X391181450Y-321217986D01*
X391301148Y-321254295D01*
X391425630Y-321266556D01*
X391550111Y-321254295D01*
X391669809Y-321217986D01*
X391780123Y-321159022D01*
X391876815Y-321079669D01*
X392308983Y-320643156D01*
X392308983Y-320418650D01*
X391673117Y-319782784D01*
X390789764Y-320666137D01*
X378243732Y-320666137D01*
X378357774Y-320589937D01*
X378501937Y-320445774D01*
X378615205Y-320276256D01*
X378693226Y-320087898D01*
X378733000Y-319887939D01*
X378733000Y-319850666D01*
X390009740Y-319850666D01*
X390022001Y-319975148D01*
X390058310Y-320094846D01*
X390117274Y-320205160D01*
X390196627Y-320301851D01*
X390385652Y-320486532D01*
X390610159Y-320486532D01*
X391493512Y-319603179D01*
X391852722Y-319603179D01*
X392488588Y-320239045D01*
X392713094Y-320239045D01*
X393149607Y-319806877D01*
X393228960Y-319710185D01*
X393287924Y-319599871D01*
X393324233Y-319480173D01*
X393336494Y-319355692D01*
X393324233Y-319231210D01*
X393287924Y-319111512D01*
X393228960Y-319001198D01*
X393149607Y-318904507D01*
X392960582Y-318719826D01*
X392736075Y-318719826D01*
X391852722Y-319603179D01*
X391493512Y-319603179D01*
X390857646Y-318967313D01*
X390633140Y-318967313D01*
X390196627Y-319399481D01*
X390117274Y-319496173D01*
X390058310Y-319606487D01*
X390022001Y-319726185D01*
X390009740Y-319850666D01*
X378733000Y-319850666D01*
X378733000Y-319684061D01*
X378693226Y-319484102D01*
X378615205Y-319295744D01*
X378603349Y-319278000D01*
X378615205Y-319260256D01*
X378693226Y-319071898D01*
X378733000Y-318871939D01*
X378733000Y-318668061D01*
X378693226Y-318468102D01*
X378615205Y-318279744D01*
X378501937Y-318110226D01*
X378357774Y-317966063D01*
X378188256Y-317852795D01*
X377999898Y-317774774D01*
X377799939Y-317735000D01*
X377596061Y-317735000D01*
X377562193Y-317741737D01*
X377590000Y-317601939D01*
X377590000Y-317398061D01*
X377550226Y-317198102D01*
X377472205Y-317009744D01*
X377417920Y-316928500D01*
X377472205Y-316847256D01*
X377550226Y-316658898D01*
X377590000Y-316458939D01*
X377590000Y-316255061D01*
X377550226Y-316055102D01*
X377523097Y-315989608D01*
X380505379Y-315989608D01*
X381113803Y-316598032D01*
X381210494Y-316677384D01*
X381320808Y-316736349D01*
X381440506Y-316772659D01*
X381564988Y-316784919D01*
X381689470Y-316772659D01*
X381809168Y-316736349D01*
X381854817Y-316711949D01*
X382117229Y-316974361D01*
X382102525Y-317123652D01*
X382119589Y-317296906D01*
X382170125Y-317463502D01*
X382252192Y-317617038D01*
X382362635Y-317751614D01*
X383034386Y-318423365D01*
X383168962Y-318533808D01*
X383322498Y-318615875D01*
X383489094Y-318666411D01*
X383662348Y-318683475D01*
X383835602Y-318666411D01*
X384002198Y-318615875D01*
X384155734Y-318533808D01*
X384290310Y-318423365D01*
X384643863Y-318069812D01*
X384754306Y-317935236D01*
X384836373Y-317781700D01*
X384886909Y-317615104D01*
X384903973Y-317441850D01*
X384903142Y-317433411D01*
X385005850Y-317443527D01*
X385130331Y-317431266D01*
X385250030Y-317394957D01*
X385360344Y-317335993D01*
X385457035Y-317256640D01*
X385478675Y-317234370D01*
X387393444Y-317234370D01*
X387405704Y-317358852D01*
X387442014Y-317478550D01*
X387500979Y-317588864D01*
X387580331Y-317685555D01*
X388358149Y-318463373D01*
X388454840Y-318542725D01*
X388565154Y-318601690D01*
X388684852Y-318638000D01*
X388809334Y-318650260D01*
X388933816Y-318638000D01*
X389053514Y-318601690D01*
X389125518Y-318563202D01*
X391037251Y-318563202D01*
X391037251Y-318787708D01*
X391673117Y-319423574D01*
X392556470Y-318540221D01*
X392556470Y-318315714D01*
X392371789Y-318126689D01*
X392275098Y-318047336D01*
X392164784Y-317988372D01*
X392045086Y-317952063D01*
X391920604Y-317939802D01*
X391796123Y-317952063D01*
X391676425Y-317988372D01*
X391566111Y-318047336D01*
X391469419Y-318126689D01*
X391037251Y-318563202D01*
X389125518Y-318563202D01*
X389163828Y-318542725D01*
X389260519Y-318463373D01*
X390533311Y-317190581D01*
X390612663Y-317093890D01*
X390671628Y-316983576D01*
X390707938Y-316863878D01*
X390720198Y-316739396D01*
X390707938Y-316614914D01*
X390671628Y-316495216D01*
X390612663Y-316384902D01*
X390533311Y-316288211D01*
X389755493Y-315510393D01*
X389702136Y-315466604D01*
X394393802Y-315466604D01*
X394406062Y-315591086D01*
X394442372Y-315710784D01*
X394501337Y-315821098D01*
X394580689Y-315917789D01*
X395358507Y-316695607D01*
X395455198Y-316774959D01*
X395565512Y-316833924D01*
X395685210Y-316870234D01*
X395809692Y-316882494D01*
X395934174Y-316870234D01*
X396053872Y-316833924D01*
X396164186Y-316774959D01*
X396260877Y-316695607D01*
X397533669Y-315422815D01*
X397613021Y-315326124D01*
X397671986Y-315215810D01*
X397708296Y-315096112D01*
X397720556Y-314971630D01*
X397708296Y-314847148D01*
X397671986Y-314727450D01*
X397613021Y-314617136D01*
X397533669Y-314520445D01*
X396755851Y-313742627D01*
X396659160Y-313663275D01*
X396548846Y-313604310D01*
X396429148Y-313568000D01*
X396304666Y-313555740D01*
X396180184Y-313568000D01*
X396060486Y-313604310D01*
X395950172Y-313663275D01*
X395853481Y-313742627D01*
X394580689Y-315015419D01*
X394501337Y-315112110D01*
X394442372Y-315222424D01*
X394406062Y-315342122D01*
X394393802Y-315466604D01*
X389702136Y-315466604D01*
X389658802Y-315431041D01*
X389548488Y-315372076D01*
X389428790Y-315335766D01*
X389304308Y-315323506D01*
X389179826Y-315335766D01*
X389060128Y-315372076D01*
X388949814Y-315431041D01*
X388853123Y-315510393D01*
X387580331Y-316783185D01*
X387500979Y-316879876D01*
X387442014Y-316990190D01*
X387405704Y-317109888D01*
X387393444Y-317234370D01*
X385478675Y-317234370D01*
X385606360Y-317102970D01*
X385606360Y-316878464D01*
X384846751Y-316118854D01*
X384832609Y-316132997D01*
X384653004Y-315953392D01*
X384667146Y-315939249D01*
X385026356Y-315939249D01*
X385785966Y-316698858D01*
X386010472Y-316698858D01*
X386164142Y-316549533D01*
X386243495Y-316452842D01*
X386302459Y-316342528D01*
X386338768Y-316222829D01*
X386351029Y-316098348D01*
X386338768Y-315973867D01*
X386302459Y-315854168D01*
X386243495Y-315743854D01*
X386164142Y-315647163D01*
X385851373Y-315338739D01*
X385626867Y-315338739D01*
X385026356Y-315939249D01*
X384667146Y-315939249D01*
X383907536Y-315179640D01*
X383683030Y-315179640D01*
X383529360Y-315328965D01*
X383450007Y-315425656D01*
X383391043Y-315535970D01*
X383354734Y-315655669D01*
X383342473Y-315780150D01*
X383352589Y-315882858D01*
X383344150Y-315882027D01*
X383194859Y-315896731D01*
X382946452Y-315648324D01*
X383003018Y-315542499D01*
X383004934Y-315536183D01*
X383011248Y-315534268D01*
X383121563Y-315475304D01*
X383218254Y-315395951D01*
X383438290Y-315171570D01*
X383438290Y-314947064D01*
X383266754Y-314775528D01*
X384087142Y-314775528D01*
X384087142Y-315000034D01*
X384846751Y-315759644D01*
X385447261Y-315159133D01*
X385447261Y-314934627D01*
X385138837Y-314621858D01*
X385042146Y-314542505D01*
X384931832Y-314483541D01*
X384812133Y-314447232D01*
X384687652Y-314434971D01*
X384563171Y-314447232D01*
X384443472Y-314483541D01*
X384333158Y-314542505D01*
X384236467Y-314621858D01*
X384087142Y-314775528D01*
X383266754Y-314775528D01*
X382696358Y-314205132D01*
X382682216Y-314219275D01*
X382502611Y-314039670D01*
X382516753Y-314025527D01*
X382875963Y-314025527D01*
X383617895Y-314767459D01*
X383842401Y-314767459D01*
X384066782Y-314547423D01*
X384146135Y-314450732D01*
X384205099Y-314340417D01*
X384241408Y-314220719D01*
X384253669Y-314096238D01*
X384241408Y-313971756D01*
X384205099Y-313852058D01*
X384146135Y-313741744D01*
X384066782Y-313645053D01*
X383771691Y-313354306D01*
X383547184Y-313354306D01*
X382875963Y-314025527D01*
X382516753Y-314025527D01*
X382502611Y-314011385D01*
X382682216Y-313831780D01*
X382696358Y-313845922D01*
X383367579Y-313174701D01*
X383367579Y-312950194D01*
X383076832Y-312655103D01*
X382980141Y-312575750D01*
X382869827Y-312516786D01*
X382750129Y-312480477D01*
X382691544Y-312474707D01*
X382685774Y-312416121D01*
X382649464Y-312296423D01*
X382590499Y-312186109D01*
X382511147Y-312089418D01*
X381521197Y-311099468D01*
X381424506Y-311020116D01*
X381314192Y-310961151D01*
X381194494Y-310924841D01*
X381070012Y-310912581D01*
X380945530Y-310924841D01*
X380918249Y-310933117D01*
X380644771Y-310659639D01*
X380659475Y-310510348D01*
X380642411Y-310337094D01*
X380591875Y-310170498D01*
X380509808Y-310016962D01*
X380399365Y-309882386D01*
X379727614Y-309210635D01*
X379593038Y-309100192D01*
X379439502Y-309018125D01*
X379272906Y-308967589D01*
X379099652Y-308950525D01*
X378926398Y-308967589D01*
X378759802Y-309018125D01*
X378606266Y-309100192D01*
X378471690Y-309210635D01*
X378118137Y-309564188D01*
X378007694Y-309698764D01*
X377925627Y-309852300D01*
X377875091Y-310018896D01*
X377858027Y-310192150D01*
X377858858Y-310200589D01*
X377756150Y-310190473D01*
X377631669Y-310202734D01*
X377511970Y-310239043D01*
X377401656Y-310298007D01*
X377304965Y-310377360D01*
X377155640Y-310531030D01*
X377155640Y-310755536D01*
X377915249Y-311515146D01*
X377929392Y-311501004D01*
X378108997Y-311680609D01*
X378094854Y-311694751D01*
X378108997Y-311708893D01*
X377929391Y-311888499D01*
X377915249Y-311874356D01*
X377314739Y-312474867D01*
X377314739Y-312699373D01*
X377524888Y-312912482D01*
X377509370Y-312928000D01*
X376858051Y-312928000D01*
X376820628Y-312924314D01*
X376783205Y-312928000D01*
X376783203Y-312928000D01*
X376671251Y-312939026D01*
X376527614Y-312982598D01*
X376395237Y-313053355D01*
X376279207Y-313148578D01*
X376255350Y-313177648D01*
X373221351Y-316211647D01*
X373212512Y-316202808D01*
X373644288Y-315771032D01*
X373675790Y-315745179D01*
X373751439Y-315653000D01*
X373778947Y-315619482D01*
X373805087Y-315570577D01*
X373855602Y-315476072D01*
X373902805Y-315320464D01*
X373914749Y-315199191D01*
X373914749Y-315199182D01*
X373918742Y-315158639D01*
X373914749Y-315118096D01*
X373914749Y-314611877D01*
X373919158Y-314615495D01*
X374029472Y-314674459D01*
X374149171Y-314710768D01*
X374273652Y-314723029D01*
X374398133Y-314710768D01*
X374517832Y-314674459D01*
X374628146Y-314615495D01*
X374724837Y-314536142D01*
X375033261Y-314223373D01*
X375033261Y-313998867D01*
X374432751Y-313398356D01*
X374418609Y-313412499D01*
X374239004Y-313232894D01*
X374253146Y-313218751D01*
X374612356Y-313218751D01*
X375212867Y-313819261D01*
X375437373Y-313819261D01*
X375750142Y-313510837D01*
X375829495Y-313414146D01*
X375888459Y-313303832D01*
X375924768Y-313184133D01*
X375937029Y-313059652D01*
X375924768Y-312935171D01*
X375888459Y-312815472D01*
X375829495Y-312705158D01*
X375750142Y-312608467D01*
X375596472Y-312459142D01*
X375371966Y-312459142D01*
X374612356Y-313218751D01*
X374253146Y-313218751D01*
X374239003Y-313204609D01*
X374418609Y-313025004D01*
X374432751Y-313039146D01*
X375192360Y-312279536D01*
X375192360Y-312055030D01*
X375043035Y-311901360D01*
X374946344Y-311822007D01*
X374836030Y-311763043D01*
X374716331Y-311726734D01*
X374591850Y-311714473D01*
X374489142Y-311724589D01*
X374489973Y-311716150D01*
X374472909Y-311542896D01*
X374470712Y-311535652D01*
X376410971Y-311535652D01*
X376423232Y-311660133D01*
X376459541Y-311779832D01*
X376518505Y-311890146D01*
X376597858Y-311986837D01*
X376910627Y-312295261D01*
X377135133Y-312295261D01*
X377735644Y-311694751D01*
X376976034Y-310935142D01*
X376751528Y-310935142D01*
X376597858Y-311084467D01*
X376518505Y-311181158D01*
X376459541Y-311291472D01*
X376423232Y-311411171D01*
X376410971Y-311535652D01*
X374470712Y-311535652D01*
X374422373Y-311376300D01*
X374340306Y-311222764D01*
X374229863Y-311088188D01*
X373876310Y-310734635D01*
X373741734Y-310624192D01*
X373588198Y-310542125D01*
X373421602Y-310491589D01*
X373254654Y-310475146D01*
X373241057Y-310337094D01*
X373190521Y-310170498D01*
X373108454Y-310016963D01*
X372998011Y-309882388D01*
X372361612Y-309245989D01*
X372256722Y-309159908D01*
X372987621Y-308429010D01*
X388189442Y-308429010D01*
X392061974Y-312301542D01*
X391964393Y-312399123D01*
X391885041Y-312495814D01*
X391826076Y-312606128D01*
X391789766Y-312725826D01*
X391777506Y-312850308D01*
X391789766Y-312974790D01*
X391826076Y-313094488D01*
X391885041Y-313204802D01*
X391964393Y-313301493D01*
X392742211Y-314079311D01*
X392838902Y-314158663D01*
X392949216Y-314217628D01*
X393068914Y-314253938D01*
X393193396Y-314266198D01*
X393317878Y-314253938D01*
X393437576Y-314217628D01*
X393547890Y-314158663D01*
X393644581Y-314079311D01*
X394917373Y-312806519D01*
X394996725Y-312709828D01*
X395055690Y-312599514D01*
X395092000Y-312479816D01*
X395104260Y-312355334D01*
X395092000Y-312230852D01*
X395055690Y-312111154D01*
X394996725Y-312000840D01*
X394917373Y-311904149D01*
X394139555Y-311126331D01*
X394042864Y-311046979D01*
X393932550Y-310988014D01*
X393812852Y-310951704D01*
X393688370Y-310939444D01*
X393563888Y-310951704D01*
X393444190Y-310988014D01*
X393333876Y-311046979D01*
X393237185Y-311126331D01*
X393139604Y-311223912D01*
X389890692Y-307975000D01*
X392138577Y-307975000D01*
X392176000Y-307978686D01*
G37*
%TD.AperFunction*%
D17*
X371430227Y-318190164D02*
X371437851Y-318215297D01*
X371437851Y-318345519D01*
X371524920Y-318419088D01*
X371525502Y-318420176D01*
X371604854Y-318516867D01*
X371993762Y-318905775D01*
X372090453Y-318985127D01*
X372090933Y-318985383D01*
X372091188Y-318985861D01*
X372170540Y-319082552D01*
X372559448Y-319471460D01*
X372656139Y-319550812D01*
X372656617Y-319551067D01*
X372656873Y-319551547D01*
X372736225Y-319648238D01*
X373125133Y-320037146D01*
X373221824Y-320116498D01*
X373222304Y-320116754D01*
X373222559Y-320117232D01*
X373301911Y-320213923D01*
X373690819Y-320602831D01*
X373787510Y-320682183D01*
X373787988Y-320682438D01*
X373788244Y-320682918D01*
X373867596Y-320779609D01*
X374256504Y-321168517D01*
X374353195Y-321247869D01*
X374353673Y-321248125D01*
X374353929Y-321248603D01*
X374433281Y-321345294D01*
X374822189Y-321734202D01*
X374918880Y-321813554D01*
X374919360Y-321813810D01*
X374919615Y-321814288D01*
X374998967Y-321910979D01*
X375387875Y-322299887D01*
X375420928Y-322327013D01*
X375397649Y-322346683D01*
X375397649Y-322571187D01*
X375285397Y-322458935D01*
X375213624Y-322530709D01*
X374540669Y-321857754D01*
X374514812Y-321826247D01*
X374389113Y-321723089D01*
X374245705Y-321646435D01*
X374090097Y-321599232D01*
X373968824Y-321587288D01*
X373968821Y-321587288D01*
X373928271Y-321583294D01*
X373887721Y-321587288D01*
X369919250Y-321587288D01*
X369919250Y-321012929D01*
X369923244Y-320972379D01*
X369919250Y-320931826D01*
X369919250Y-319496069D01*
X371253826Y-318161494D01*
X371325599Y-318233267D01*
X371424711Y-318134155D01*
X371430227Y-318190164D01*
%TA.AperFunction,Conductor*%
D18*
G36*
X371430227Y-318190164D02*
G01*
X371437851Y-318215297D01*
X371437851Y-318345519D01*
X371524920Y-318419088D01*
X371525502Y-318420176D01*
X371604854Y-318516867D01*
X371993762Y-318905775D01*
X372090453Y-318985127D01*
X372090933Y-318985383D01*
X372091188Y-318985861D01*
X372170540Y-319082552D01*
X372559448Y-319471460D01*
X372656139Y-319550812D01*
X372656617Y-319551067D01*
X372656873Y-319551547D01*
X372736225Y-319648238D01*
X373125133Y-320037146D01*
X373221824Y-320116498D01*
X373222304Y-320116754D01*
X373222559Y-320117232D01*
X373301911Y-320213923D01*
X373690819Y-320602831D01*
X373787510Y-320682183D01*
X373787988Y-320682438D01*
X373788244Y-320682918D01*
X373867596Y-320779609D01*
X374256504Y-321168517D01*
X374353195Y-321247869D01*
X374353673Y-321248125D01*
X374353929Y-321248603D01*
X374433281Y-321345294D01*
X374822189Y-321734202D01*
X374918880Y-321813554D01*
X374919360Y-321813810D01*
X374919615Y-321814288D01*
X374998967Y-321910979D01*
X375387875Y-322299887D01*
X375420928Y-322327013D01*
X375397649Y-322346683D01*
X375397649Y-322571187D01*
X375285397Y-322458935D01*
X375213624Y-322530709D01*
X374540669Y-321857754D01*
X374514812Y-321826247D01*
X374389113Y-321723089D01*
X374245705Y-321646435D01*
X374090097Y-321599232D01*
X373968824Y-321587288D01*
X373968821Y-321587288D01*
X373928271Y-321583294D01*
X373887721Y-321587288D01*
X369919250Y-321587288D01*
X369919250Y-321012929D01*
X369923244Y-320972379D01*
X369919250Y-320931826D01*
X369919250Y-319496069D01*
X371253826Y-318161494D01*
X371325599Y-318233267D01*
X371424711Y-318134155D01*
X371430227Y-318190164D01*
G37*
%TD.AperFunction*%
D17*
X368268250Y-321314313D02*
X368268250Y-321587288D01*
X364397858Y-321587288D01*
X364397858Y-321148391D01*
X364398102Y-321145911D01*
X364764404Y-320779609D01*
X364843756Y-320682918D01*
X364844012Y-320682438D01*
X364844490Y-320682183D01*
X364941181Y-320602831D01*
X365330089Y-320213923D01*
X365409441Y-320117232D01*
X365410021Y-320116147D01*
X365497093Y-320042576D01*
X365497093Y-319912350D01*
X365504716Y-319887220D01*
X365516976Y-319762738D01*
X365505572Y-319646943D01*
X365621367Y-319658347D01*
X365745849Y-319646087D01*
X365770979Y-319638464D01*
X365901205Y-319638464D01*
X365974776Y-319551392D01*
X365975861Y-319550812D01*
X366072552Y-319471460D01*
X366248975Y-319295037D01*
X368268250Y-321314313D01*
%TA.AperFunction,Conductor*%
D18*
G36*
X368268250Y-321314313D02*
G01*
X368268250Y-321587288D01*
X364397858Y-321587288D01*
X364397858Y-321148391D01*
X364398102Y-321145911D01*
X364764404Y-320779609D01*
X364843756Y-320682918D01*
X364844012Y-320682438D01*
X364844490Y-320682183D01*
X364941181Y-320602831D01*
X365330089Y-320213923D01*
X365409441Y-320117232D01*
X365410021Y-320116147D01*
X365497093Y-320042576D01*
X365497093Y-319912350D01*
X365504716Y-319887220D01*
X365516976Y-319762738D01*
X365505572Y-319646943D01*
X365621367Y-319658347D01*
X365745849Y-319646087D01*
X365770979Y-319638464D01*
X365901205Y-319638464D01*
X365974776Y-319551392D01*
X365975861Y-319550812D01*
X366072552Y-319471460D01*
X366248975Y-319295037D01*
X368268250Y-321314313D01*
G37*
%TD.AperFunction*%
D17*
X369342113Y-316254125D02*
X369731021Y-316643033D01*
X369827712Y-316722385D01*
X369828190Y-316722640D01*
X369828446Y-316723120D01*
X369907798Y-316819811D01*
X370084221Y-316996234D01*
X368538716Y-318541739D01*
X368507209Y-318567596D01*
X368439761Y-318649783D01*
X368404051Y-318693295D01*
X368389870Y-318719826D01*
X368327397Y-318836704D01*
X368280409Y-318991604D01*
X367416408Y-318127604D01*
X367592831Y-317951181D01*
X367672183Y-317854490D01*
X367672438Y-317854012D01*
X367672918Y-317853756D01*
X367769609Y-317774404D01*
X368158517Y-317385496D01*
X368237869Y-317288805D01*
X368238125Y-317288327D01*
X368238603Y-317288071D01*
X368335294Y-317208719D01*
X368724202Y-316819811D01*
X368803554Y-316723120D01*
X368803810Y-316722640D01*
X368804288Y-316722385D01*
X368900979Y-316643033D01*
X369289887Y-316254125D01*
X369316000Y-316222306D01*
X369342113Y-316254125D01*
%TA.AperFunction,Conductor*%
D18*
G36*
X369342113Y-316254125D02*
G01*
X369731021Y-316643033D01*
X369827712Y-316722385D01*
X369828190Y-316722640D01*
X369828446Y-316723120D01*
X369907798Y-316819811D01*
X370084221Y-316996234D01*
X368538716Y-318541739D01*
X368507209Y-318567596D01*
X368439761Y-318649783D01*
X368404051Y-318693295D01*
X368389870Y-318719826D01*
X368327397Y-318836704D01*
X368280409Y-318991604D01*
X367416408Y-318127604D01*
X367592831Y-317951181D01*
X367672183Y-317854490D01*
X367672438Y-317854012D01*
X367672918Y-317853756D01*
X367769609Y-317774404D01*
X368158517Y-317385496D01*
X368237869Y-317288805D01*
X368238125Y-317288327D01*
X368238603Y-317288071D01*
X368335294Y-317208719D01*
X368724202Y-316819811D01*
X368803554Y-316723120D01*
X368803810Y-316722640D01*
X368804288Y-316722385D01*
X368900979Y-316643033D01*
X369289887Y-316254125D01*
X369316000Y-316222306D01*
X369342113Y-316254125D01*
G37*
%TD.AperFunction*%
D17*
X363200981Y-310732656D02*
X363197294Y-310770089D01*
X363212007Y-310919467D01*
X363255579Y-311063104D01*
X363326335Y-311195481D01*
X363385453Y-311267516D01*
X363421559Y-311311511D01*
X363450629Y-311335368D01*
X364978980Y-312863719D01*
X364978981Y-316450805D01*
X364975294Y-316488238D01*
X364989140Y-316628813D01*
X364842792Y-316775162D01*
X364018751Y-315951121D01*
X364018751Y-315322430D01*
X364043812Y-315301863D01*
X364397365Y-314948310D01*
X364507808Y-314813734D01*
X364589875Y-314660198D01*
X364640411Y-314493602D01*
X364657475Y-314320348D01*
X364640411Y-314147094D01*
X364589875Y-313980498D01*
X364507808Y-313826962D01*
X364397365Y-313692386D01*
X363725614Y-313020635D01*
X363591038Y-312910192D01*
X363437502Y-312828125D01*
X363270906Y-312777589D01*
X363097652Y-312760525D01*
X362924398Y-312777589D01*
X362757802Y-312828125D01*
X362604266Y-312910192D01*
X362469690Y-313020635D01*
X362116137Y-313374188D01*
X362005694Y-313508764D01*
X361923627Y-313662300D01*
X361873091Y-313828896D01*
X361856027Y-314002150D01*
X361856858Y-314010589D01*
X361754150Y-314000473D01*
X361629669Y-314012734D01*
X361509970Y-314049043D01*
X361399656Y-314108007D01*
X361302965Y-314187360D01*
X361153640Y-314341030D01*
X361153640Y-314565536D01*
X361913249Y-315325146D01*
X361927392Y-315311004D01*
X362106997Y-315490609D01*
X362092854Y-315504751D01*
X362106997Y-315518893D01*
X361927392Y-315698499D01*
X361913249Y-315684356D01*
X361899107Y-315698499D01*
X361719501Y-315518893D01*
X361733644Y-315504751D01*
X360974034Y-314745142D01*
X360934000Y-314745142D01*
X360934000Y-307213000D01*
X363200981Y-307213000D01*
X363200981Y-310732656D01*
%TA.AperFunction,Conductor*%
D18*
G36*
X363200981Y-310732656D02*
G01*
X363197294Y-310770089D01*
X363212007Y-310919467D01*
X363255579Y-311063104D01*
X363326335Y-311195481D01*
X363385453Y-311267516D01*
X363421559Y-311311511D01*
X363450629Y-311335368D01*
X364978980Y-312863719D01*
X364978981Y-316450805D01*
X364975294Y-316488238D01*
X364989140Y-316628813D01*
X364842792Y-316775162D01*
X364018751Y-315951121D01*
X364018751Y-315322430D01*
X364043812Y-315301863D01*
X364397365Y-314948310D01*
X364507808Y-314813734D01*
X364589875Y-314660198D01*
X364640411Y-314493602D01*
X364657475Y-314320348D01*
X364640411Y-314147094D01*
X364589875Y-313980498D01*
X364507808Y-313826962D01*
X364397365Y-313692386D01*
X363725614Y-313020635D01*
X363591038Y-312910192D01*
X363437502Y-312828125D01*
X363270906Y-312777589D01*
X363097652Y-312760525D01*
X362924398Y-312777589D01*
X362757802Y-312828125D01*
X362604266Y-312910192D01*
X362469690Y-313020635D01*
X362116137Y-313374188D01*
X362005694Y-313508764D01*
X361923627Y-313662300D01*
X361873091Y-313828896D01*
X361856027Y-314002150D01*
X361856858Y-314010589D01*
X361754150Y-314000473D01*
X361629669Y-314012734D01*
X361509970Y-314049043D01*
X361399656Y-314108007D01*
X361302965Y-314187360D01*
X361153640Y-314341030D01*
X361153640Y-314565536D01*
X361913249Y-315325146D01*
X361927392Y-315311004D01*
X362106997Y-315490609D01*
X362092854Y-315504751D01*
X362106997Y-315518893D01*
X361927392Y-315698499D01*
X361913249Y-315684356D01*
X361899107Y-315698499D01*
X361719501Y-315518893D01*
X361733644Y-315504751D01*
X360974034Y-314745142D01*
X360934000Y-314745142D01*
X360934000Y-307213000D01*
X363200981Y-307213000D01*
X363200981Y-310732656D01*
G37*
%TD.AperFunction*%
D17*
X380132390Y-313657831D02*
X380118247Y-313671973D01*
X380132390Y-313686116D01*
X379952785Y-313865721D01*
X379938642Y-313851578D01*
X379924500Y-313865721D01*
X379744895Y-313686116D01*
X379759037Y-313671973D01*
X379744895Y-313657831D01*
X379924500Y-313478226D01*
X379938642Y-313492368D01*
X379952785Y-313478226D01*
X380132390Y-313657831D01*
%TA.AperFunction,Conductor*%
D18*
G36*
X380132390Y-313657831D02*
G01*
X380118247Y-313671973D01*
X380132390Y-313686116D01*
X379952785Y-313865721D01*
X379938642Y-313851578D01*
X379924500Y-313865721D01*
X379744895Y-313686116D01*
X379759037Y-313671973D01*
X379744895Y-313657831D01*
X379924500Y-313478226D01*
X379938642Y-313492368D01*
X379952785Y-313478226D01*
X380132390Y-313657831D01*
G37*
%TD.AperFunction*%
%TD*%
M02*
