M48
; DRILL file {KiCad (5.1.9)-1} date 04/11/21 04:13:28
; FORMAT={-:-/ absolute / inch / decimal}
; #@! TF.CreationDate,2021-04-11T04:13:28-04:00
; #@! TF.GenerationSoftware,Kicad,Pcbnew,(5.1.9)-1
; #@! TF.FileFunction,Plated,1,2,PTH
FMAT,2
INCH
T1C0.0157
T2C0.0276
T3C0.0579
%
G90
G05
T1
X7.795Y-12.915
X7.795Y-12.955
X7.795Y-12.995
X7.795Y-13.035
X7.795Y-13.08
X8.35Y-12.875
X13.945Y-13.5
X13.95Y-9.84
X13.95Y-11.34
X13.95Y-13.225
X13.95Y-13.275
X13.95Y-13.325
X13.95Y-13.375
X13.95Y-13.425
X13.955Y-10.59
X13.96Y-12.0
X14.03Y-12.81
X14.03Y-12.86
X14.03Y-12.91
X14.03Y-12.955
X14.03Y-13.0
X14.03Y-13.045
X14.03Y-13.085
X14.16Y-12.54
X14.26Y-12.88
X14.365Y-9.84
X14.365Y-12.725
X14.385Y-10.59
X14.385Y-11.335
X14.4Y-12.095
X14.4Y-12.135
X14.425Y-12.6623
X14.435Y-12.585
X14.48Y-12.54
X14.825Y-12.455
X14.825Y-12.5
X14.87Y-12.55
X14.87Y-12.59
X14.915Y-12.88
X14.915Y-13.0
X14.915Y-13.04
X14.915Y-13.08
X14.915Y-13.12
X15.085Y-13.21
X15.085Y-13.26
X15.085Y-13.5
T3
X3.3813Y-9.3688
X3.3813Y-10.1188
X3.3813Y-13.1188
X3.5688Y-10.8688
X3.5688Y-11.6188
X3.5688Y-12.3688
X3.6313Y-9.2687
X3.6313Y-10.0187
X3.6313Y-13.0187
X3.8188Y-10.7687
X3.8188Y-11.5187
X3.8188Y-12.2687
X4.1312Y-9.3688
X4.1312Y-10.1188
X4.1312Y-13.1188
X4.3812Y-9.2687
X4.3812Y-10.0187
X4.3812Y-13.0187
X4.5062Y-10.8688
X4.5062Y-11.6188
X4.5062Y-12.3688
X4.7562Y-10.7687
X4.7562Y-11.5187
X4.7562Y-12.2687
X4.8812Y-9.3688
X4.8812Y-10.1188
X4.8812Y-13.1188
X5.1312Y-9.2687
X5.1312Y-10.0187
X5.1312Y-13.0187
X5.2562Y-10.8688
X5.2562Y-11.6188
X5.2562Y-12.3688
X5.5062Y-10.7687
X5.5062Y-11.5187
X5.5062Y-12.2687
X5.6312Y-9.3688
X5.6312Y-10.1188
X5.6312Y-13.1188
X5.8812Y-9.2687
X5.8812Y-10.0187
X5.8812Y-13.0187
X6.0062Y-10.8688
X6.0062Y-11.6188
X6.0062Y-12.3688
X6.2562Y-10.7687
X6.2562Y-11.5187
X6.2562Y-12.2687
X6.3812Y-9.3688
X6.3812Y-10.1188
X6.6312Y-9.2687
X6.6312Y-10.0187
X6.7562Y-10.8688
X6.7562Y-11.6188
X6.7562Y-12.3688
X7.0062Y-10.7687
X7.0062Y-11.5187
X7.0062Y-12.2687
X7.1312Y-9.3688
X7.1312Y-10.1188
X7.3812Y-9.2687
X7.3812Y-10.0187
X7.5062Y-10.8688
X7.5062Y-11.6188
X7.5062Y-12.3688
X7.7562Y-10.7687
X7.7562Y-11.5187
X7.7562Y-12.2687
X7.8812Y-9.3688
X7.8812Y-10.1188
X8.1312Y-9.2687
X8.1312Y-10.0187
X8.2562Y-10.8688
X8.2562Y-11.6188
X8.2562Y-12.3688
X8.35Y-13.1188
X8.5062Y-10.7687
X8.5062Y-11.5187
X8.5062Y-12.2687
X8.6Y-13.0187
X8.6312Y-9.3688
X8.6312Y-10.1188
X8.8812Y-9.2687
X8.8812Y-10.0187
X9.0062Y-10.8688
X9.0062Y-11.6188
X9.0062Y-12.3688
X9.2562Y-10.7687
X9.2562Y-11.5187
X9.2562Y-12.2687
X9.3812Y-9.3688
X9.3812Y-10.1188
X9.6312Y-9.2687
X9.6312Y-10.0187
X9.7562Y-10.8688
X9.7562Y-11.6188
X9.7562Y-12.3688
X10.0062Y-10.7687
X10.0062Y-11.5187
X10.0062Y-12.2687
X10.1312Y-9.3688
X10.1312Y-10.1188
X10.3812Y-9.2687
X10.3812Y-10.0187
X10.5062Y-10.8688
X10.5062Y-11.6188
X10.5062Y-12.3688
X10.7562Y-10.7687
X10.7562Y-11.5187
X10.7562Y-12.2687
X10.8812Y-9.3688
X10.8812Y-10.1188
X11.1312Y-9.2687
X11.1312Y-10.0187
X11.1625Y-13.1188
X11.2562Y-10.8688
X11.2562Y-11.6188
X11.2562Y-12.3688
X11.4125Y-13.0187
X11.5062Y-10.7687
X11.5062Y-11.5187
X11.5062Y-12.2687
X11.6312Y-9.3688
X11.6312Y-10.1188
X11.8812Y-9.2687
X11.8812Y-10.0187
X12.0062Y-10.8688
X12.0062Y-11.6188
X12.0062Y-12.3688
X12.1937Y-13.1188
X12.2562Y-10.7687
X12.2562Y-11.5187
X12.2562Y-12.2687
X12.3812Y-9.3688
X12.3812Y-10.1188
X12.4437Y-13.0187
X12.6312Y-9.2687
X12.6312Y-10.0187
X12.7562Y-10.8688
X13.0062Y-10.7687
X13.1312Y-11.6188
X13.1312Y-12.3688
X13.3187Y-9.3688
X13.3187Y-10.1188
X13.3187Y-13.1188
X13.3812Y-11.5187
X13.3812Y-12.2687
X13.5062Y-10.8688
X13.5687Y-9.2687
X13.5687Y-10.0187
X13.5687Y-13.0187
X13.7562Y-10.7687
X14.5375Y-9.3688
X14.5375Y-10.1188
X14.5375Y-10.8688
X14.5375Y-11.6188
X14.7875Y-9.2687
X14.7875Y-10.0187
X14.7875Y-10.7687
X14.7875Y-11.5187
X15.2875Y-9.3688
X15.2875Y-10.1188
X15.2875Y-10.8688
X15.2875Y-11.6188
X15.2875Y-13.1188
X15.5375Y-9.2687
X15.5375Y-10.0187
X15.5375Y-10.7687
X15.5375Y-11.5187
X15.5375Y-13.0187
X16.0375Y-9.3688
X16.0375Y-10.1188
X16.0375Y-10.8688
X16.0375Y-11.6188
X16.0375Y-12.3688
X16.0375Y-13.1188
X16.2875Y-9.2687
X16.2875Y-10.0187
X16.2875Y-10.7687
X16.2875Y-11.5187
X16.2875Y-12.2687
X16.2875Y-13.0187
X16.7875Y-9.3688
X16.7875Y-10.1188
X16.7875Y-10.8688
X16.7875Y-11.6188
X16.7875Y-13.1188
X17.0375Y-9.2687
X17.0375Y-10.0187
X17.0375Y-10.7687
X17.0375Y-11.5187
X17.0375Y-13.0187
T2
G00X14.0313Y-9.1414
M15
G01X14.0313Y-9.1886
M16
G05
G00X14.0313Y-9.3185
M15
G01X14.0313Y-9.3658
M16
G05
G00X14.3187Y-9.1414
M15
G01X14.3187Y-9.1886
M16
G05
G00X14.3187Y-9.3185
M15
G01X14.3187Y-9.3658
M16
G05
T0
M30
