M48
; DRILL file {KiCad (5.1.9)-1} date 04/11/21 04:13:28
; FORMAT={-:-/ absolute / inch / decimal}
; #@! TF.CreationDate,2021-04-11T04:13:28-04:00
; #@! TF.GenerationSoftware,Kicad,Pcbnew,(5.1.9)-1
; #@! TF.FileFunction,NonPlated,1,2,NPTH
FMAT,2
INCH
T1C0.0689
T2C0.1200
T3C0.1570
%
G90
G05
T1
X3.3312Y-9.4688
X3.3312Y-10.2188
X3.3312Y-13.2188
X3.5187Y-10.9688
X3.5187Y-11.7188
X3.5187Y-12.4688
X3.7312Y-9.4688
X3.7312Y-10.2188
X3.7312Y-13.2188
X3.9187Y-10.9688
X3.9187Y-11.7188
X3.9187Y-12.4688
X4.0812Y-9.4688
X4.0812Y-10.2188
X4.0812Y-13.2188
X4.4562Y-10.9688
X4.4562Y-11.7188
X4.4562Y-12.4688
X4.4813Y-9.4688
X4.4813Y-10.2188
X4.4813Y-13.2188
X4.8312Y-9.4688
X4.8312Y-10.2188
X4.8312Y-13.2188
X4.8563Y-10.9688
X4.8563Y-11.7188
X4.8563Y-12.4688
X5.2062Y-10.9688
X5.2062Y-11.7188
X5.2062Y-12.4688
X5.2313Y-9.4688
X5.2313Y-10.2188
X5.2313Y-13.2188
X5.5812Y-9.4688
X5.5812Y-10.2188
X5.5812Y-13.2188
X5.6063Y-10.9688
X5.6063Y-11.7188
X5.6063Y-12.4688
X5.9562Y-10.9688
X5.9562Y-11.7188
X5.9562Y-12.4688
X5.9813Y-9.4688
X5.9813Y-10.2188
X5.9813Y-13.2188
X6.3312Y-9.4688
X6.3312Y-10.2188
X6.3563Y-10.9688
X6.3563Y-11.7188
X6.3563Y-12.4688
X6.7062Y-10.9688
X6.7062Y-11.7188
X6.7062Y-12.4688
X6.7313Y-9.4688
X6.7313Y-10.2188
X7.0812Y-9.4688
X7.0812Y-10.2188
X7.1063Y-10.9688
X7.1063Y-11.7188
X7.1063Y-12.4688
X7.4562Y-10.9688
X7.4562Y-11.7188
X7.4562Y-12.4688
X7.4813Y-9.4688
X7.4813Y-10.2188
X7.8312Y-9.4688
X7.8312Y-10.2188
X7.8563Y-10.9688
X7.8563Y-11.7188
X7.8563Y-12.4688
X8.2062Y-10.9688
X8.2062Y-11.7188
X8.2062Y-12.4688
X8.2312Y-9.4688
X8.2312Y-10.2188
X8.3Y-13.2188
X8.5812Y-9.4688
X8.5812Y-10.2188
X8.6062Y-10.9688
X8.6062Y-11.7188
X8.6062Y-12.4688
X8.7Y-13.2188
X8.9562Y-10.9688
X8.9562Y-11.7188
X8.9562Y-12.4688
X8.9812Y-9.4688
X8.9812Y-10.2188
X9.3312Y-9.4688
X9.3312Y-10.2188
X9.3562Y-10.9688
X9.3562Y-11.7188
X9.3562Y-12.4688
X9.7062Y-10.9688
X9.7062Y-11.7188
X9.7062Y-12.4688
X9.7312Y-9.4688
X9.7312Y-10.2188
X10.0812Y-9.4688
X10.0812Y-10.2188
X10.1062Y-10.9688
X10.1062Y-11.7188
X10.1062Y-12.4688
X10.4562Y-10.9688
X10.4562Y-11.7188
X10.4562Y-12.4688
X10.4812Y-9.4688
X10.4812Y-10.2188
X10.8312Y-9.4688
X10.8312Y-10.2188
X10.8562Y-10.9688
X10.8562Y-11.7188
X10.8562Y-12.4688
X11.1125Y-13.2188
X11.2062Y-10.9688
X11.2062Y-11.7188
X11.2062Y-12.4688
X11.2312Y-9.4688
X11.2312Y-10.2188
X11.5125Y-13.2188
X11.5812Y-9.4688
X11.5812Y-10.2188
X11.6062Y-10.9688
X11.6062Y-11.7188
X11.6062Y-12.4688
X11.9562Y-10.9688
X11.9562Y-11.7188
X11.9562Y-12.4688
X11.9812Y-9.4688
X11.9812Y-10.2188
X12.1437Y-13.2188
X12.3312Y-9.4688
X12.3312Y-10.2188
X12.3562Y-10.9688
X12.3562Y-11.7188
X12.3562Y-12.4688
X12.5437Y-13.2188
X12.7062Y-10.9688
X12.7312Y-9.4688
X12.7312Y-10.2188
X13.0812Y-11.7188
X13.0812Y-12.4688
X13.1062Y-10.9688
X13.2687Y-9.4688
X13.2687Y-10.2188
X13.2687Y-13.2188
X13.4562Y-10.9688
X13.4812Y-11.7188
X13.4812Y-12.4688
X13.6687Y-9.4688
X13.6687Y-10.2188
X13.6687Y-13.2188
X13.8562Y-10.9688
X14.4875Y-9.4688
X14.4875Y-10.2188
X14.4875Y-10.9688
X14.4875Y-11.7188
X14.8875Y-9.4688
X14.8875Y-10.2188
X14.8875Y-10.9688
X14.8875Y-11.7188
X15.2375Y-9.4688
X15.2375Y-10.2188
X15.2375Y-10.9688
X15.2375Y-11.7188
X15.2375Y-13.2188
X15.6375Y-9.4688
X15.6375Y-10.2188
X15.6375Y-10.9688
X15.6375Y-11.7188
X15.6375Y-13.2188
X15.9875Y-9.4688
X15.9875Y-10.2188
X15.9875Y-10.9688
X15.9875Y-11.7188
X15.9875Y-12.4688
X15.9875Y-13.2188
X16.3875Y-9.4688
X16.3875Y-10.2188
X16.3875Y-10.9688
X16.3875Y-11.7188
X16.3875Y-12.4688
X16.3875Y-13.2188
X16.7375Y-9.4688
X16.7375Y-10.2188
X16.7375Y-10.9688
X16.7375Y-11.7188
X16.7375Y-13.2188
X17.1375Y-9.4688
X17.1375Y-10.2188
X17.1375Y-10.9688
X17.1375Y-11.7188
X17.1375Y-13.2188
T2
X6.5315Y-13.4938
X10.4685Y-13.4938
X12.8125Y-11.4437
X12.8125Y-12.1937
X13.75Y-11.4437
X13.75Y-12.1937
T3
X3.5312Y-9.4688
X3.5312Y-10.2188
X3.5312Y-13.2188
X3.7188Y-10.9688
X3.7188Y-11.7188
X3.7188Y-12.4688
X4.2812Y-9.4688
X4.2812Y-10.2188
X4.2812Y-13.2188
X4.6562Y-10.9688
X4.6562Y-11.7188
X4.6562Y-12.4688
X5.0312Y-9.4688
X5.0312Y-10.2188
X5.0312Y-13.2188
X5.4062Y-10.9688
X5.4062Y-11.7188
X5.4062Y-12.4688
X5.7812Y-9.4688
X5.7812Y-10.2188
X5.7812Y-13.2188
X6.1562Y-10.9688
X6.1562Y-11.7188
X6.1562Y-12.4688
X6.5312Y-9.4688
X6.5312Y-10.2188
X6.5315Y-12.8937
X6.9062Y-10.9688
X6.9062Y-11.7188
X6.9062Y-12.4688
X7.2812Y-9.4688
X7.2812Y-10.2188
X7.6562Y-10.9688
X7.6562Y-11.7188
X7.6562Y-12.4688
X8.0312Y-9.4688
X8.0312Y-10.2188
X8.4062Y-10.9688
X8.4062Y-11.7188
X8.4062Y-12.4688
X8.5Y-13.2188
X8.7812Y-9.4688
X8.7812Y-10.2188
X9.1562Y-10.9688
X9.1562Y-11.7188
X9.1562Y-12.4688
X9.5312Y-9.4688
X9.5312Y-10.2188
X9.9062Y-10.9688
X9.9062Y-11.7188
X9.9062Y-12.4688
X10.2812Y-9.4688
X10.2812Y-10.2188
X10.4685Y-12.8937
X10.6562Y-10.9688
X10.6562Y-11.7188
X10.6562Y-12.4688
X11.0312Y-9.4688
X11.0312Y-10.2188
X11.3125Y-13.2188
X11.4062Y-10.9688
X11.4062Y-11.7188
X11.4062Y-12.4688
X11.7812Y-9.4688
X11.7812Y-10.2188
X12.1562Y-10.9688
X12.1562Y-11.7188
X12.1562Y-12.4688
X12.3438Y-13.2188
X12.5312Y-9.4688
X12.5312Y-10.2188
X12.8125Y-12.0437
X12.8125Y-12.7937
X12.9062Y-10.9688
X13.2812Y-11.7188
X13.2812Y-12.4688
X13.4688Y-9.4688
X13.4688Y-10.2188
X13.4688Y-13.2188
X13.6562Y-10.9688
X13.75Y-12.0437
X13.75Y-12.7937
X14.6875Y-9.4688
X14.6875Y-10.2188
X14.6875Y-10.9688
X14.6875Y-11.7188
X15.4375Y-9.4688
X15.4375Y-10.2188
X15.4375Y-10.9688
X15.4375Y-11.7188
X15.4375Y-13.2188
X16.1875Y-9.4688
X16.1875Y-10.2188
X16.1875Y-10.9688
X16.1875Y-11.7188
X16.1875Y-12.4688
X16.1875Y-13.2188
X16.9375Y-9.4688
X16.9375Y-10.2188
X16.9375Y-10.9688
X16.9375Y-11.7188
X16.9375Y-13.2188
T0
M30
