%TF.GenerationSoftware,KiCad,Pcbnew,(5.1.9)-1*%
%TF.CreationDate,2021-04-11T04:13:24-04:00*%
%TF.ProjectId,Progenitor-Tenkey,50726f67-656e-4697-946f-722d54656e6b,rev?*%
%TF.SameCoordinates,Original*%
%TF.FileFunction,Soldermask,Top*%
%TF.FilePolarity,Negative*%
%FSLAX46Y46*%
G04 Gerber Fmt 4.6, Leading zero omitted, Abs format (unit mm)*
G04 Created by KiCad (PCBNEW (5.1.9)-1) date 2021-04-11 04:13:24*
%MOMM*%
%LPD*%
G01*
G04 APERTURE LIST*
%ADD10O,1.700000X2.700000*%
%ADD11C,3.987800*%
%ADD12C,1.750000*%
%ADD13C,3.048000*%
G04 APERTURE END LIST*
D10*
%TO.C,USB1*%
X356395000Y-232791000D03*
X363695000Y-232791000D03*
X363695000Y-237291000D03*
X356395000Y-237291000D03*
%TD*%
D11*
%TO.C,MX-RAL1*%
X287337500Y-335756250D03*
D12*
X282257500Y-335756250D03*
X292417500Y-335756250D03*
%TD*%
D11*
%TO.C,MX-RCT1*%
X342106250Y-335756250D03*
D12*
X337026250Y-335756250D03*
X347186250Y-335756250D03*
%TD*%
D11*
%TO.C,MX-F13*%
X175418750Y-297656250D03*
D12*
X170338750Y-297656250D03*
X180498750Y-297656250D03*
%TD*%
D11*
%TO.C,MX-Z1*%
X118268750Y-316706250D03*
D12*
X113188750Y-316706250D03*
X123348750Y-316706250D03*
%TD*%
D11*
%TO.C,MX-Y1*%
X213518750Y-278606250D03*
D12*
X208438750Y-278606250D03*
X218598750Y-278606250D03*
%TD*%
D11*
%TO.C,MX-X1*%
X137318750Y-316706250D03*
D12*
X132238750Y-316706250D03*
X142398750Y-316706250D03*
%TD*%
D11*
%TO.C,MX-WIN1*%
X127793750Y-335756250D03*
D12*
X122713750Y-335756250D03*
X132873750Y-335756250D03*
%TD*%
D11*
%TO.C,MX-W1*%
X137318750Y-278606250D03*
D12*
X132238750Y-278606250D03*
X142398750Y-278606250D03*
%TD*%
D11*
%TO.C,MX-V1*%
X175418750Y-316706250D03*
D12*
X170338750Y-316706250D03*
X180498750Y-316706250D03*
%TD*%
D11*
%TO.C,MX-UAR1*%
X411162500Y-316706250D03*
D12*
X406082500Y-316706250D03*
X416242500Y-316706250D03*
%TD*%
D11*
%TO.C,MX-U1*%
X232568750Y-278606250D03*
D12*
X227488750Y-278606250D03*
X237648750Y-278606250D03*
%TD*%
D11*
%TO.C,MX-TIL1*%
X89693750Y-259556250D03*
D12*
X84613750Y-259556250D03*
X94773750Y-259556250D03*
%TD*%
D11*
%TO.C,MX-TAB1*%
X94456250Y-278606250D03*
D12*
X89376250Y-278606250D03*
X99536250Y-278606250D03*
%TD*%
D11*
%TO.C,MX-T1*%
X194468750Y-278606250D03*
D12*
X189388750Y-278606250D03*
X199548750Y-278606250D03*
%TD*%
D11*
%TO.C,MX-SPA1*%
X215900000Y-335756250D03*
D12*
X210820000Y-335756250D03*
X220980000Y-335756250D03*
D13*
X165900100Y-342741250D03*
X265899900Y-342741250D03*
D11*
X165900100Y-327501250D03*
X265899900Y-327501250D03*
%TD*%
%TO.C,MX-S1*%
X137318750Y-297656250D03*
D12*
X132238750Y-297656250D03*
X142398750Y-297656250D03*
%TD*%
D11*
%TO.C,MX-RSH1*%
X337343750Y-316706250D03*
D12*
X332263750Y-316706250D03*
X342423750Y-316706250D03*
D13*
X325437500Y-309721250D03*
X349250000Y-309721250D03*
D11*
X325437500Y-324961250D03*
X349250000Y-324961250D03*
%TD*%
%TO.C,MX-RBR1*%
X327818750Y-278606250D03*
D12*
X322738750Y-278606250D03*
X332898750Y-278606250D03*
%TD*%
D11*
%TO.C,MX-RAR1*%
X430212500Y-335756250D03*
D12*
X425132500Y-335756250D03*
X435292500Y-335756250D03*
%TD*%
D11*
%TO.C,MX-R1*%
X175418750Y-278606250D03*
D12*
X170338750Y-278606250D03*
X180498750Y-278606250D03*
%TD*%
D11*
%TO.C,MX-QUO1*%
X308768750Y-297656250D03*
D12*
X303688750Y-297656250D03*
X313848750Y-297656250D03*
%TD*%
D11*
%TO.C,MX-QUE1*%
X289718750Y-316706250D03*
D12*
X284638750Y-316706250D03*
X294798750Y-316706250D03*
%TD*%
D11*
%TO.C,MX-Q1*%
X118268750Y-278606250D03*
D12*
X113188750Y-278606250D03*
X123348750Y-278606250D03*
%TD*%
D11*
%TO.C,MX-PRT1*%
X313531250Y-335756250D03*
D12*
X308451250Y-335756250D03*
X318611250Y-335756250D03*
%TD*%
D11*
%TO.C,MX-PLU1*%
X318293750Y-259556250D03*
D12*
X313213750Y-259556250D03*
X323373750Y-259556250D03*
%TD*%
D11*
%TO.C,MX-P1*%
X289718750Y-278606250D03*
D12*
X284638750Y-278606250D03*
X294798750Y-278606250D03*
%TD*%
D11*
%TO.C,MX-O1*%
X270668750Y-278606250D03*
D12*
X265588750Y-278606250D03*
X275748750Y-278606250D03*
%TD*%
D11*
%TO.C,MX-NUM1*%
X373062500Y-297656250D03*
D12*
X367982500Y-297656250D03*
X378142500Y-297656250D03*
%TD*%
D11*
%TO.C,MX-NSL1*%
X430212500Y-240506250D03*
D12*
X425132500Y-240506250D03*
X435292500Y-240506250D03*
%TD*%
D11*
%TO.C,MX-NPL1*%
X430212500Y-297656250D03*
D12*
X425132500Y-297656250D03*
X435292500Y-297656250D03*
%TD*%
D11*
%TO.C,MX-NDE1*%
X411162500Y-297656250D03*
D12*
X406082500Y-297656250D03*
X416242500Y-297656250D03*
%TD*%
D11*
%TO.C,MX-NDA1*%
X430212500Y-278606250D03*
D12*
X425132500Y-278606250D03*
X435292500Y-278606250D03*
%TD*%
D11*
%TO.C,MX-NAS1*%
X430212500Y-259556250D03*
D12*
X425132500Y-259556250D03*
X435292500Y-259556250D03*
%TD*%
D11*
%TO.C,MX-N10*%
X213518750Y-316706250D03*
D12*
X208438750Y-316706250D03*
X218598750Y-316706250D03*
%TD*%
D11*
%TO.C,MX-N9*%
X411162500Y-240506250D03*
D12*
X406082500Y-240506250D03*
X416242500Y-240506250D03*
%TD*%
D11*
%TO.C,MX-N8*%
X392112500Y-240506250D03*
D12*
X387032500Y-240506250D03*
X397192500Y-240506250D03*
%TD*%
D11*
%TO.C,MX-N7*%
X373062500Y-240506250D03*
D12*
X367982500Y-240506250D03*
X378142500Y-240506250D03*
%TD*%
D11*
%TO.C,MX-N6*%
X411162500Y-259556250D03*
D12*
X406082500Y-259556250D03*
X416242500Y-259556250D03*
%TD*%
D11*
%TO.C,MX-N5*%
X392112500Y-259556250D03*
D12*
X387032500Y-259556250D03*
X397192500Y-259556250D03*
%TD*%
D11*
%TO.C,MX-N4*%
X373062500Y-259556250D03*
D12*
X367982500Y-259556250D03*
X378142500Y-259556250D03*
%TD*%
D11*
%TO.C,MX-N3*%
X411162500Y-278606250D03*
D12*
X406082500Y-278606250D03*
X416242500Y-278606250D03*
%TD*%
D11*
%TO.C,MX-N2*%
X392112500Y-278606250D03*
D12*
X387032500Y-278606250D03*
X397192500Y-278606250D03*
%TD*%
D11*
%TO.C,MX-N1*%
X373062500Y-278606250D03*
D12*
X367982500Y-278606250D03*
X378142500Y-278606250D03*
%TD*%
D11*
%TO.C,MX-N0*%
X392112500Y-297656250D03*
D12*
X387032500Y-297656250D03*
X397192500Y-297656250D03*
%TD*%
D11*
%TO.C,MX-M1*%
X232568750Y-316706250D03*
D12*
X227488750Y-316706250D03*
X237648750Y-316706250D03*
%TD*%
D11*
%TO.C,MX-LSH1*%
X94456250Y-316706250D03*
D12*
X89376250Y-316706250D03*
X99536250Y-316706250D03*
%TD*%
D11*
%TO.C,MX-LFN1*%
X108743750Y-335756250D03*
D12*
X103663750Y-335756250D03*
X113823750Y-335756250D03*
%TD*%
D11*
%TO.C,MX-LES1*%
X251618750Y-316706250D03*
D12*
X246538750Y-316706250D03*
X256698750Y-316706250D03*
%TD*%
D11*
%TO.C,MX-LCT1*%
X89693750Y-335756250D03*
D12*
X84613750Y-335756250D03*
X94773750Y-335756250D03*
%TD*%
D11*
%TO.C,MX-LBR1*%
X308768750Y-278606250D03*
D12*
X303688750Y-278606250D03*
X313848750Y-278606250D03*
%TD*%
D11*
%TO.C,MX-LAR1*%
X392112500Y-335756250D03*
D12*
X387032500Y-335756250D03*
X397192500Y-335756250D03*
%TD*%
D11*
%TO.C,MX-LAL1*%
X146843750Y-335756250D03*
D12*
X141763750Y-335756250D03*
X151923750Y-335756250D03*
%TD*%
D11*
%TO.C,MX-L1*%
X270668750Y-297656250D03*
D12*
X265588750Y-297656250D03*
X275748750Y-297656250D03*
%TD*%
D11*
%TO.C,MX-K1*%
X251618750Y-297656250D03*
D12*
X246538750Y-297656250D03*
X256698750Y-297656250D03*
%TD*%
D11*
%TO.C,MX-J1*%
X232568750Y-297656250D03*
D12*
X227488750Y-297656250D03*
X237648750Y-297656250D03*
%TD*%
D11*
%TO.C,MX-I1*%
X251618750Y-278606250D03*
D12*
X246538750Y-278606250D03*
X256698750Y-278606250D03*
%TD*%
D11*
%TO.C,MX-H1*%
X213518750Y-297656250D03*
D12*
X208438750Y-297656250D03*
X218598750Y-297656250D03*
%TD*%
D11*
%TO.C,MX-GRE1*%
X270668750Y-316706250D03*
D12*
X265588750Y-316706250D03*
X275748750Y-316706250D03*
%TD*%
D11*
%TO.C,MX-G1*%
X194468750Y-297656250D03*
D12*
X189388750Y-297656250D03*
X199548750Y-297656250D03*
%TD*%
D11*
%TO.C,MX-FSL1*%
X346868750Y-278606250D03*
D12*
X341788750Y-278606250D03*
X351948750Y-278606250D03*
%TD*%
D11*
%TO.C,MX-F12*%
X318293750Y-240506250D03*
D12*
X313213750Y-240506250D03*
X323373750Y-240506250D03*
%TD*%
D11*
%TO.C,MX-F11*%
X299243750Y-240506250D03*
D12*
X294163750Y-240506250D03*
X304323750Y-240506250D03*
%TD*%
D11*
%TO.C,MX-F10*%
X280193750Y-240506250D03*
D12*
X275113750Y-240506250D03*
X285273750Y-240506250D03*
%TD*%
D11*
%TO.C,MX-F9*%
X261143750Y-240506250D03*
D12*
X256063750Y-240506250D03*
X266223750Y-240506250D03*
%TD*%
D11*
%TO.C,MX-F8*%
X242093750Y-240506250D03*
D12*
X237013750Y-240506250D03*
X247173750Y-240506250D03*
%TD*%
D11*
%TO.C,MX-F7*%
X223043750Y-240506250D03*
D12*
X217963750Y-240506250D03*
X228123750Y-240506250D03*
%TD*%
D11*
%TO.C,MX-F6*%
X203993750Y-240506250D03*
D12*
X198913750Y-240506250D03*
X209073750Y-240506250D03*
%TD*%
D11*
%TO.C,MX-F5*%
X184943750Y-240506250D03*
D12*
X179863750Y-240506250D03*
X190023750Y-240506250D03*
%TD*%
D11*
%TO.C,MX-F4*%
X165893750Y-240506250D03*
D12*
X160813750Y-240506250D03*
X170973750Y-240506250D03*
%TD*%
D11*
%TO.C,MX-F3*%
X146843750Y-240506250D03*
D12*
X141763750Y-240506250D03*
X151923750Y-240506250D03*
%TD*%
D11*
%TO.C,MX-F2*%
X127793750Y-240506250D03*
D12*
X122713750Y-240506250D03*
X132873750Y-240506250D03*
%TD*%
D11*
%TO.C,MX-F1*%
X108743750Y-240506250D03*
D12*
X103663750Y-240506250D03*
X113823750Y-240506250D03*
%TD*%
D11*
%TO.C,MX-ESC1*%
X89693750Y-240506250D03*
D12*
X84613750Y-240506250D03*
X94773750Y-240506250D03*
%TD*%
D11*
%TO.C,MX-ENT1*%
X337343750Y-297656250D03*
D12*
X332263750Y-297656250D03*
X342423750Y-297656250D03*
D13*
X325437500Y-290671250D03*
X349250000Y-290671250D03*
D11*
X325437500Y-305911250D03*
X349250000Y-305911250D03*
%TD*%
%TO.C,MX-E1*%
X156368750Y-278606250D03*
D12*
X151288750Y-278606250D03*
X161448750Y-278606250D03*
%TD*%
D11*
%TO.C,MX-DEL1*%
X342106250Y-240506250D03*
D12*
X337026250Y-240506250D03*
X347186250Y-240506250D03*
%TD*%
D11*
%TO.C,MX-DAS1*%
X299243750Y-259556250D03*
D12*
X294163750Y-259556250D03*
X304323750Y-259556250D03*
%TD*%
D11*
%TO.C,MX-DAR1*%
X411162500Y-335756250D03*
D12*
X406082500Y-335756250D03*
X416242500Y-335756250D03*
%TD*%
D11*
%TO.C,MX-D1*%
X156368750Y-297656250D03*
D12*
X151288750Y-297656250D03*
X161448750Y-297656250D03*
%TD*%
D11*
%TO.C,MX-CUR1*%
X308768750Y-316706250D03*
D12*
X303688750Y-316706250D03*
X313848750Y-316706250D03*
%TD*%
D11*
%TO.C,MX-COL1*%
X289718750Y-297656250D03*
D12*
X284638750Y-297656250D03*
X294798750Y-297656250D03*
%TD*%
D11*
%TO.C,MX-CAP1*%
X94456250Y-297656250D03*
D12*
X89376250Y-297656250D03*
X99536250Y-297656250D03*
%TD*%
D11*
%TO.C,MX-C1*%
X156368750Y-316706250D03*
D12*
X151288750Y-316706250D03*
X161448750Y-316706250D03*
%TD*%
D11*
%TO.C,MX-BAC1*%
X342106250Y-259556250D03*
D12*
X337026250Y-259556250D03*
X347186250Y-259556250D03*
%TD*%
D11*
%TO.C,MX-B1*%
X194468750Y-316706250D03*
D12*
X189388750Y-316706250D03*
X199548750Y-316706250D03*
%TD*%
D11*
%TO.C,MX-A1*%
X118268750Y-297656250D03*
D12*
X113188750Y-297656250D03*
X123348750Y-297656250D03*
%TD*%
D11*
%TO.C,MX-9*%
X261143750Y-259556250D03*
D12*
X256063750Y-259556250D03*
X266223750Y-259556250D03*
%TD*%
D11*
%TO.C,MX-8*%
X242093750Y-259556250D03*
D12*
X237013750Y-259556250D03*
X247173750Y-259556250D03*
%TD*%
D11*
%TO.C,MX-7*%
X223043750Y-259556250D03*
D12*
X217963750Y-259556250D03*
X228123750Y-259556250D03*
%TD*%
D11*
%TO.C,MX-6*%
X203993750Y-259556250D03*
D12*
X198913750Y-259556250D03*
X209073750Y-259556250D03*
%TD*%
D11*
%TO.C,MX-5*%
X184943750Y-259556250D03*
D12*
X179863750Y-259556250D03*
X190023750Y-259556250D03*
%TD*%
D11*
%TO.C,MX-4*%
X165893750Y-259556250D03*
D12*
X160813750Y-259556250D03*
X170973750Y-259556250D03*
%TD*%
D11*
%TO.C,MX-3*%
X146843750Y-259556250D03*
D12*
X141763750Y-259556250D03*
X151923750Y-259556250D03*
%TD*%
D11*
%TO.C,MX-2*%
X127793750Y-259556250D03*
D12*
X122713750Y-259556250D03*
X132873750Y-259556250D03*
%TD*%
D11*
%TO.C,MX-1*%
X108743750Y-259556250D03*
D12*
X103663750Y-259556250D03*
X113823750Y-259556250D03*
%TD*%
D11*
%TO.C,MX-0*%
X280193750Y-259556250D03*
D12*
X275113750Y-259556250D03*
X285273750Y-259556250D03*
%TD*%
M02*
